<?xml version="1.0" encoding="utf-8"?>
<!-- Generator: Adobe Illustrator 23.0.4, SVG Export Plug-In . SVG Version: 6.00 Build 0)  -->
<svg version="1.1" id="Layer_1" xmlns="http://www.w3.org/2000/svg" xmlns:xlink="http://www.w3.org/1999/xlink" x="0px" y="0px"
	 viewBox="0 0 266.9 72.4" style="enable-background:new 0 0 266.9 72.4;" xml:space="preserve">
<style type="text/css">
	.st0{fill:#FFFFFF;}
	.st1{fill:#D56E38;}
</style>
<g id="XMLID_266_">
	<rect id="XMLID_212_" x="12.8" y="25.4" class="st0" width="50.3" height="21.3"/>
	<g id="XMLID_40_">
		<path id="XMLID_41_" class="st1" d="M38.2,3.5c-18,0-32.6,14.6-32.6,32.6s14.6,32.6,32.6,32.6s32.6-14.6,32.6-32.6
			S56.2,3.5,38.2,3.5z M24.2,44.8L24.2,44.8l-3.4,0v-2.2h2.6c1.4,0,2.5-1.2,2.5-2.8c0-1.5-1.1-2.8-2.5-2.8h-2.6v-2.2h2.5
			c1.3,0,2.4-1.2,2.4-2.6s-1.1-2.6-2.4-2.6h-4.6v15.3h-2.6V29.6v-2.2h2.6h5.5v0c2.3,0.3,4.1,2.2,4.1,4.5c0,1.7-1,3.1-2.4,3.9
			c1.6,0.8,2.7,2.4,2.7,4.3C28.6,42.5,26.7,44.5,24.2,44.8z M39.7,44.8L39.7,44.8l-3.4,0v-2.2h2.6c1.4,0,2.5-1.2,2.5-2.8
			c0-1.5-1.1-2.8-2.5-2.8h-2.6v-2.2h2.5c1.3,0,2.4-1.2,2.4-2.6s-1.1-2.6-2.4-2.6h-4.6v15.3h-2.6V29.6v-2.2h2.6h5.5v0
			c2.3,0.3,4.1,2.2,4.1,4.5c0,1.7-1,3.1-2.4,3.9C43,36.5,44,38.1,44,40C44,42.5,42.1,44.5,39.7,44.8z M60.3,44.9h-2.6l-7.9-12.2
			v12.2h-2.6V27.4h2.6l7.9,12.5V27.4h2.6V44.9z"/>
		<g id="XMLID_73_">
			<path id="XMLID_74_" class="st0" d="M83,33.2h-3v-2.1h8.5v2.1h-3v7.9H83V33.2z"/>
			<path id="XMLID_76_" class="st0" d="M89.5,31.1h2.4v4h3.6v-4H98v10h-2.4v-3.9h-3.6v3.9h-2.4V31.1z"/>
			<path id="XMLID_78_" class="st0" d="M100.1,31.1h6.3v2.1h-3.8V35h3.1v2.1h-3.1V39h4v2.1h-6.5L100.1,31.1L100.1,31.1z"/>
			<path id="XMLID_80_" class="st0" d="M110.1,31.1h2.6l1.3,6.3c0.1,0.6,0.1,1,0.1,1h0c0,0,0-0.4,0.2-1l1.5-6.3h2l1.5,6.3
				c0.2,0.6,0.2,1,0.2,1h0c0,0,0-0.4,0.1-1l1.4-6.3h2.5l-2.5,10h-2.7l-1.3-5.1c-0.2-0.6-0.2-1.2-0.2-1.2h0c0,0,0,0.5-0.2,1.2
				l-1.3,5.1h-2.8L110.1,31.1z"/>
			<path id="XMLID_82_" class="st0" d="M129.2,31c3,0,5.2,2.2,5.2,5.1c0,2.9-2.2,5.2-5.2,5.2s-5.2-2.3-5.2-5.2
				C123.9,33.2,126.1,31,129.2,31z M129.2,39.1c1.5,0,2.7-1.3,2.7-3c0-1.6-1.2-2.9-2.7-2.9c-1.5,0-2.7,1.2-2.7,2.9
				C126.5,37.8,127.7,39.1,129.2,39.1z"/>
			<path id="XMLID_85_" class="st0" d="M135.8,31.1h3.5c1,0,1.5,0.1,1.9,0.2c1.1,0.4,1.9,1.5,1.9,2.9c0,1.1-0.5,2.2-1.5,2.7v0
				c0,0,0.1,0.2,0.4,0.6l1.9,3.5h-2.7l-1.8-3.4h-1.1v3.4h-2.4L135.8,31.1L135.8,31.1z M139.3,35.7c0.8,0,1.3-0.4,1.3-1.2
				c0-0.8-0.3-1.2-1.5-1.2h-0.8v2.4L139.3,35.7L139.3,35.7z"/>
			<path id="XMLID_88_" class="st0" d="M145.1,31.1h2.4V39h4.1v2.1h-6.5V31.1z"/>
			<path id="XMLID_90_" class="st0" d="M152.6,31.1h3.6c3.1,0,5.2,1.8,5.2,5s-2,5-5.2,5h-3.6V31.1z M156.1,39c1.7,0,2.7-1,2.7-2.9
				c0-1.9-1.1-2.9-2.7-2.9h-1V39L156.1,39L156.1,39z"/>
			<path id="XMLID_93_" class="st0" d="M162.9,30.9h2.1l-1.2,3.6h-1.6L162.9,30.9z"/>
			<path id="XMLID_95_" class="st0" d="M166.6,38c0,0,1.1,1,2.4,1c0.5,0,1.1-0.2,1.1-0.8c0-1.2-4.5-1.2-4.5-4.2
				c0-1.8,1.6-3.1,3.5-3.1c2.2,0,3.2,1.1,3.2,1.1l-1,2c0,0-1-0.9-2.2-0.9c-0.5,0-1.1,0.2-1.1,0.8c0,1.3,4.5,1,4.5,4.2
				c0,1.7-1.3,3.1-3.5,3.1c-2.4,0-3.7-1.4-3.7-1.4L166.6,38z"/>
			<path id="XMLID_97_" class="st0" d="M176.8,31.1h3.7c2,0,3.4,0.9,3.4,2.6c0,0.8-0.4,1.7-1.2,2.1v0c1.1,0.3,1.6,1.4,1.6,2.3
				c0,2.2-1.8,3-3.8,3h-3.7V31.1z M180.5,35c0.6,0,0.9-0.5,0.9-0.9c0-0.5-0.3-0.8-0.9-0.8h-1.2V35L180.5,35L180.5,35z M180.8,39
				c0.7,0,1.1-0.5,1.1-1c0-0.6-0.3-1-1.1-1h-1.5V39H180.8z"/>
			<path id="XMLID_101_" class="st0" d="M185.3,40.1c0-3.7,4.3-4.4,4.3-5.8c0-0.7-0.6-1-1.1-1c-0.9,0-1.5,1.1-1.5,1.1l-1.8-1.2
				c0,0,0.9-2.2,3.5-2.2c1.6,0,3.4,0.9,3.4,3.1c0,3.1-4,3.7-4.1,5h4.3v2.1h-6.9C185.3,40.8,185.3,40.4,185.3,40.1z"/>
			<path id="XMLID_103_" class="st0" d="M193.9,31.1h3.7c2,0,3.4,0.9,3.4,2.6c0,0.8-0.4,1.7-1.2,2.1v0c1.1,0.3,1.6,1.4,1.6,2.3
				c0,2.2-1.8,3-3.8,3h-3.7V31.1z M197.6,35c0.6,0,0.9-0.5,0.9-0.9c0-0.5-0.3-0.8-0.9-0.8h-1.2V35L197.6,35L197.6,35z M197.8,39
				c0.7,0,1.1-0.5,1.1-1c0-0.6-0.3-1-1.1-1h-1.5V39H197.8z"/>
			<path id="XMLID_107_" class="st0" d="M210.8,39h-3.1l-0.6,2.1h-2.5l3.4-10h2.6l3.4,10h-2.5L210.8,39z M209.2,33.4
				c0,0-0.2,1.1-0.4,1.7l-0.6,2h2l-0.6-2C209.5,34.5,209.2,33.4,209.2,33.4L209.2,33.4z"/>
			<path id="XMLID_110_" class="st0" d="M219.3,31c2.6,0,3.9,1.3,3.9,1.3l-1.2,1.8c0,0-1-0.9-2.4-0.9c-2.1,0-3,1.3-3,2.8
				c0,1.9,1.3,3,2.9,3c1.2,0,2-0.7,2-0.7v-0.8H220v-2.1h3.6v5.7h-2v-0.3c0-0.2,0-0.4,0-0.4h0c0,0-1,0.9-2.6,0.9
				c-2.6,0-4.9-1.9-4.9-5.2C214,33.2,216.2,31,219.3,31z"/>
			<path id="XMLID_112_" class="st0" d="M225.2,31.1h6.3v2.1h-3.8V35h3.1v2.1h-3.1V39h4v2.1h-6.5L225.2,31.1L225.2,31.1z"/>
			<path id="XMLID_114_" class="st0" d="M233.2,31.1h2.5l2.8,4.7c0.4,0.7,0.8,1.7,0.8,1.7h0c0,0-0.1-1.1-0.1-1.7v-4.7h2.4v10h-2.5
				l-2.8-4.7c-0.4-0.7-0.8-1.7-0.8-1.7h0c0,0,0.1,1.1,0.1,1.7v4.7h-2.4L233.2,31.1L233.2,31.1z"/>
			<path id="XMLID_116_" class="st0" d="M248.3,31c2.5,0,3.8,1.4,3.8,1.4l-1.1,1.8c0,0-1.1-1-2.5-1c-1.9,0-2.8,1.4-2.8,2.9
				c0,1.5,1,3,2.8,3c1.5,0,2.7-1.2,2.7-1.2l1.3,1.8c0,0-1.4,1.7-4,1.7c-3.1,0-5.2-2.2-5.2-5.2C243,33.2,245.2,31,248.3,31z"/>
			<path id="XMLID_118_" class="st0" d="M255.6,37l-3.3-5.9h2.8l1.1,2.4c0.3,0.7,0.6,1.4,0.6,1.4h0c0,0,0.3-0.8,0.6-1.4l1.1-2.4h2.8
				L258,37v4.1h-2.4L255.6,37L255.6,37z"/>
		</g>
	</g>
</g>
</svg>
