<?xml version="1.0" encoding="utf-8"?>
<!-- Generator: Adobe Illustrator 23.0.4, SVG Export Plug-In . SVG Version: 6.00 Build 0)  -->
<svg version="1.1" id="Layer_1" xmlns="http://www.w3.org/2000/svg" xmlns:xlink="http://www.w3.org/1999/xlink" x="0px" y="0px"
	 viewBox="0 0 266.91 72.44" style="enable-background:new 0 0 266.91 72.44;" xml:space="preserve">
<style type="text/css">
	.st0{fill:#D56E38;}
	.st1{fill:#FFFFFF;}
</style>
<g id="XMLID_266_">
	<rect id="XMLID_212_" x="12.79" y="25.39" class="st0" width="50.33" height="21.33"/>
	<g id="XMLID_40_">
		<path id="XMLID_41_" class="st1" d="M38.18,3.53c-18,0-32.59,14.59-32.59,32.59s14.59,32.59,32.59,32.59
			c18,0,32.59-14.59,32.59-32.59S56.18,3.53,38.18,3.53z M24.21,44.79v0.02h-3.41V42.6h2.64c1.39,0,2.52-1.25,2.52-2.78
			c0-1.54-1.13-2.81-2.52-2.81h-2.64V34.8h2.52c1.33,0,2.41-1.17,2.41-2.62c0-1.45-1.08-2.62-2.41-2.62h-4.64v15.32H16.1V29.56
			v-2.21h2.59h5.52v0.01c2.33,0.28,4.12,2.17,4.12,4.46c0,1.67-0.96,3.13-2.39,3.9c1.58,0.79,2.66,2.41,2.66,4.28
			C28.61,42.5,26.68,44.55,24.21,44.79z M39.65,44.79v0.02h-3.41V42.6h2.64c1.39,0,2.52-1.25,2.52-2.78c0-1.54-1.13-2.81-2.52-2.81
			h-2.64V34.8h2.52c1.33,0,2.41-1.17,2.41-2.62c0-1.45-1.08-2.62-2.41-2.62h-4.64v15.32h-2.59V29.56v-2.21h2.59h5.52v0.01
			c2.33,0.28,4.12,2.17,4.12,4.46c0,1.67-0.96,3.13-2.39,3.9c1.58,0.79,2.66,2.41,2.66,4.28C44.05,42.5,42.12,44.55,39.65,44.79z
			 M60.27,44.88h-2.59l-7.94-12.25v12.25h-2.59V27.35h2.59l7.94,12.52V27.35h2.59V44.88z"/>
		<g id="XMLID_73_">
			<path id="XMLID_74_" class="st1" d="M83.03,33.23h-3.04v-2.1h8.53v2.1h-3.04v7.91h-2.45V33.23z"/>
			<path id="XMLID_76_" class="st1" d="M89.47,31.13h2.45v4.01h3.64v-4.01h2.45v10.02h-2.45v-3.92h-3.64v3.92h-2.45V31.13z"/>
			<path id="XMLID_78_" class="st1" d="M100.08,31.13h6.28v2.1h-3.82v1.82h3.05v2.1h-3.05v1.89h4.02v2.1h-6.47V31.13z"/>
			<path id="XMLID_80_" class="st1" d="M110.08,31.13h2.58l1.26,6.26c0.13,0.62,0.13,1.05,0.13,1.05h0.03c0,0,0.01-0.43,0.17-1.05
				l1.54-6.26h1.98l1.5,6.26c0.15,0.62,0.17,1.05,0.17,1.05h0.03c0,0,0-0.43,0.13-1.05l1.37-6.26h2.54l-2.54,10.02h-2.73l-1.26-5.06
				c-0.15-0.64-0.2-1.18-0.2-1.18h-0.03c0,0-0.04,0.53-0.2,1.18l-1.26,5.06h-2.76L110.08,31.13z"/>
			<path id="XMLID_82_" class="st1" d="M129.16,30.96c3.03,0,5.24,2.24,5.24,5.11c0,2.94-2.21,5.24-5.24,5.24
				c-3.03,0-5.24-2.3-5.24-5.24C123.92,33.2,126.13,30.96,129.16,30.96z M129.16,39.07c1.5,0,2.7-1.29,2.7-3
				c0-1.64-1.21-2.87-2.7-2.87c-1.5,0-2.7,1.23-2.7,2.87C126.46,37.78,127.66,39.07,129.16,39.07z"/>
			<path id="XMLID_85_" class="st1" d="M135.78,31.13h3.49c1.02,0,1.51,0.07,1.95,0.24c1.13,0.43,1.85,1.46,1.85,2.91
				c0,1.06-0.5,2.23-1.5,2.73v0.03c0,0,0.14,0.18,0.38,0.6l1.95,3.5h-2.73l-1.78-3.38h-1.15v3.38h-2.45V31.13z M139.3,35.67
				c0.78,0,1.27-0.43,1.27-1.23c0-0.76-0.28-1.2-1.51-1.2h-0.83v2.44H139.3z"/>
			<path id="XMLID_88_" class="st1" d="M145.05,31.13h2.45v7.91h4.09v2.1h-6.54V31.13z"/>
			<path id="XMLID_90_" class="st1" d="M152.65,31.13h3.56c3.15,0,5.17,1.84,5.17,4.99c0,3.15-2.02,5.03-5.17,5.03h-3.56V31.13z
				 M156.11,39.04c1.69,0,2.73-1.01,2.73-2.93c0-1.9-1.08-2.89-2.73-2.89h-1.01v5.81H156.11z"/>
			<path id="XMLID_93_" class="st1" d="M162.88,30.92h2.13l-1.25,3.57h-1.64L162.88,30.92z"/>
			<path id="XMLID_95_" class="st1" d="M166.61,38.02c0,0,1.13,1.04,2.4,1.04c0.5,0,1.05-0.2,1.05-0.8c0-1.19-4.51-1.15-4.51-4.23
				c0-1.85,1.55-3.07,3.54-3.07c2.16,0,3.22,1.13,3.22,1.13l-1.04,2c0,0-1.01-0.88-2.21-0.88c-0.5,0-1.06,0.22-1.06,0.78
				c0,1.26,4.51,1.04,4.51,4.2c0,1.67-1.27,3.11-3.53,3.11c-2.35,0-3.66-1.43-3.66-1.43L166.61,38.02z"/>
			<path id="XMLID_97_" class="st1" d="M176.83,31.13h3.68c2,0,3.4,0.9,3.4,2.62c0,0.84-0.41,1.69-1.16,2.13v0.03
				c1.15,0.35,1.57,1.37,1.57,2.26c0,2.19-1.82,2.98-3.81,2.98h-3.68V31.13z M180.54,35.01c0.62,0,0.88-0.45,0.88-0.92
				c0-0.46-0.27-0.85-0.92-0.85h-1.22v1.78H180.54z M180.75,39.04c0.71,0,1.06-0.49,1.06-1.05c0-0.56-0.34-1.02-1.05-1.02h-1.48
				v2.07H180.75z"/>
			<path id="XMLID_101_" class="st1" d="M185.27,40.07c0-3.7,4.33-4.36,4.33-5.8c0-0.7-0.56-0.99-1.08-0.99
				c-0.95,0-1.48,1.06-1.48,1.06l-1.82-1.22c0,0,0.92-2.16,3.53-2.16c1.64,0,3.42,0.94,3.42,3.07c0,3.12-4.03,3.73-4.1,5.01h4.26
				v2.1h-6.93C185.31,40.75,185.27,40.4,185.27,40.07z"/>
			<path id="XMLID_103_" class="st1" d="M193.91,31.13h3.68c2,0,3.4,0.9,3.4,2.62c0,0.84-0.41,1.69-1.16,2.13v0.03
				c1.15,0.35,1.57,1.37,1.57,2.26c0,2.19-1.82,2.98-3.81,2.98h-3.68V31.13z M197.62,35.01c0.62,0,0.88-0.45,0.88-0.92
				c0-0.46-0.27-0.85-0.92-0.85h-1.22v1.78H197.62z M197.83,39.04c0.71,0,1.06-0.49,1.06-1.05c0-0.56-0.34-1.02-1.05-1.02h-1.48
				v2.07H197.83z"/>
			<path id="XMLID_107_" class="st1" d="M210.79,39.04h-3.12l-0.6,2.1h-2.52l3.4-10.02h2.58l3.4,10.02h-2.52L210.79,39.04z
				 M209.22,33.41c0,0-0.22,1.09-0.41,1.72l-0.57,1.95h1.98l-0.56-1.95c-0.18-0.63-0.41-1.72-0.41-1.72H209.22z"/>
			<path id="XMLID_110_" class="st1" d="M219.29,30.96c2.56,0,3.85,1.33,3.85,1.33l-1.18,1.84c0,0-1.02-0.92-2.44-0.92
				c-2.1,0-2.96,1.34-2.96,2.83c0,1.91,1.32,3.04,2.87,3.04c1.18,0,2.03-0.73,2.03-0.73v-0.77h-1.42v-2.09h3.59v5.66h-2.04v-0.28
				c0-0.21,0.01-0.42,0.01-0.42h-0.03c0,0-0.97,0.87-2.63,0.87c-2.56,0-4.92-1.92-4.92-5.2C214.04,33.2,216.24,30.96,219.29,30.96z"
				/>
			<path id="XMLID_112_" class="st1" d="M225.21,31.13h6.28v2.1h-3.82v1.82h3.05v2.1h-3.05v1.89h4.02v2.1h-6.47V31.13z"/>
			<path id="XMLID_114_" class="st1" d="M233.16,31.13h2.48l2.77,4.68c0.39,0.66,0.84,1.71,0.84,1.71h0.03c0,0-0.11-1.08-0.11-1.71
				v-4.68h2.45v10.02h-2.47l-2.79-4.66c-0.39-0.66-0.84-1.71-0.84-1.71h-0.03c0,0,0.11,1.08,0.11,1.71v4.66h-2.45V31.13z"/>
			<path id="XMLID_116_" class="st1" d="M248.26,30.96c2.48,0,3.75,1.42,3.75,1.42l-1.13,1.85c0,0-1.12-1.02-2.51-1.02
				c-1.92,0-2.83,1.42-2.83,2.86c0,1.48,0.98,3.01,2.83,3.01c1.51,0,2.66-1.23,2.66-1.23l1.26,1.79c0,0-1.42,1.68-4.03,1.68
				c-3.14,0-5.25-2.23-5.25-5.2C243,33.2,245.25,30.96,248.26,30.96z"/>
			<path id="XMLID_118_" class="st1" d="M255.56,37.04l-3.31-5.91h2.79l1.13,2.41c0.32,0.69,0.6,1.44,0.6,1.44h0.03
				c0,0,0.28-0.76,0.6-1.44l1.12-2.41h2.79l-3.31,5.91v4.1h-2.45V37.04z"/>
		</g>
	</g>
</g>
</svg>
