<?xml version="1.0" encoding="utf-8"?>
<!-- Generator: Adobe Illustrator 23.0.4, SVG Export Plug-In . SVG Version: 6.00 Build 0)  -->
<svg version="1.1" id="Layer_1" xmlns="http://www.w3.org/2000/svg" xmlns:xlink="http://www.w3.org/1999/xlink" x="0px" y="0px"
	 viewBox="0 0 242 101.8" style="enable-background:new 0 0 242 101.8;" xml:space="preserve">
<style type="text/css">
	.st0{fill:#D76E3C;stroke:#FFFFFF;stroke-width:3;stroke-miterlimit:10;}
	.st1{fill:#CBCBCA;stroke:#FFFFFF;stroke-width:3;stroke-miterlimit:10;}
</style>
<g>
	<path class="st0" d="M145.9,59.3c-5.2,0-9.4-4.2-9.4-9.4l0,0c0-5.2,4.2-9.4,9.4-9.4h79.5c5.2,0,9.4,4.2,9.4,9.4l0,0
		c0,5.2-4.2,9.4-9.4,9.4H145.9z"/>
	<path class="st0" d="M93.3,59.3c5.2,0,9.4-4.2,9.4-9.4l0,0c0-5.2-4.2-9.4-9.4-9.4H13.8c-5.2,0-9.4,4.2-9.4,9.4l0,0
		c0,5.2,4.2,9.4,9.4,9.4H93.3z"/>
	<g>
		<path class="st1" d="M140.4,73.9H98.8c-6,0-11.3-3.2-14.2-8H65c3.9,15,17.5,26.1,33.8,26.1h41.6c16.2,0,29.9-11.1,33.8-26.1h-19.5
			C151.6,70.7,146.4,73.9,140.4,73.9z"/>
		<path class="st1" d="M98.8,25.8h41.6c6,0,11.3,3.2,14.2,8h19.5c-3.9-15-17.5-26.1-33.8-26.1H98.8C82.6,7.7,68.9,18.8,65,33.8h19.5
			C87.5,29,92.8,25.8,98.8,25.8z"/>
	</g>
</g>
</svg>
