<?xml version="1.0" encoding="utf-8"?>
<!-- Generator: Adobe Illustrator 23.0.4, SVG Export Plug-In . SVG Version: 6.00 Build 0)  -->
<svg version="1.1" id="Layer_1" xmlns="http://www.w3.org/2000/svg" xmlns:xlink="http://www.w3.org/1999/xlink" x="0px" y="0px"
	 viewBox="0 0 43.8 44.3" style="enable-background:new 0 0 43.8 44.3;" xml:space="preserve">
<style type="text/css">
	.st0{fill:#CCCBCB;stroke:#FFFFFF;stroke-width:2;stroke-miterlimit:10;}
	.st1{fill:#F26E36;stroke:#FFFFFF;stroke-width:2;stroke-miterlimit:10;}
	.st2{fill:#F26E36;stroke:#FFFFFF;stroke-miterlimit:10;}
	.st3{fill:#CCCBCB;}
	.st4{fill:#F26E36;}
</style>
<g>
	<g>
		<g>
			<path class="st0" d="M10.1,15.2c0.6,0,1.1,0.5,1.1,1.1v3.2c0,0.6-0.5,1.1-1.1,1.1H6.9c-0.6,0-1.1-0.5-1.1-1.1v-3.2
				c0-0.6,0.5-1.1,1.1-1.1L10.1,15.2 M10.1,13.8H6.9c-1.4,0-2.6,1.1-2.6,2.6v3.2c0,1.4,1.2,2.6,2.6,2.6h3.2c1.4,0,2.6-1.1,2.6-2.6
				v-3.2C12.7,14.9,11.6,13.8,10.1,13.8L10.1,13.8z"/>
		</g>
		<g>
			<path class="st0" d="M30.1,15.2c0.6,0,1.1,0.5,1.1,1.1v3.2c0,0.6-0.5,1.1-1.1,1.1h-3.2c-0.6,0-1.1-0.5-1.1-1.1v-3.2
				c0-0.6,0.5-1.1,1.1-1.1L30.1,15.2 M30.1,13.8h-3.2c-1.4,0-2.6,1.1-2.6,2.6v3.2c0,1.4,1.1,2.6,2.6,2.6h3.2c1.4,0,2.6-1.1,2.6-2.6
				v-3.2C32.7,14.9,31.5,13.8,30.1,13.8L30.1,13.8z"/>
		</g>
		<g>
			<path class="st0" d="M10.1,32.3c0.6,0,1.1,0.5,1.1,1.1v3.2c0,0.6-0.5,1.1-1.1,1.1H6.9c-0.6,0-1.1-0.5-1.1-1.1v-3.2
				c0-0.6,0.5-1.1,1.1-1.1H10.1 M10.1,30.8H6.9c-1.4,0-2.6,1.1-2.6,2.6v3.2c0,1.4,1.2,2.6,2.6,2.6h3.2c1.4,0,2.6-1.2,2.6-2.6v-3.2
				C12.7,32,11.6,30.8,10.1,30.8L10.1,30.8z"/>
		</g>
		<g>
			<path class="st0" d="M30.1,32.3c0.6,0,1.1,0.5,1.1,1.1v3.2c0,0.6-0.5,1.1-1.1,1.1h-3.2c-0.6,0-1.1-0.5-1.1-1.1v-3.2
				c0-0.6,0.5-1.1,1.1-1.1H30.1 M30.1,30.8h-3.2c-1.4,0-2.6,1.1-2.6,2.6v3.2c0,1.4,1.1,2.6,2.6,2.6h3.2c1.4,0,2.6-1.2,2.6-2.6v-3.2
				C32.7,32,31.5,30.8,30.1,30.8L30.1,30.8z"/>
		</g>
		<path class="st0" d="M24.3,19.4v0.1c0,1.4,1.1,2.6,2.6,2.6H27v8.7h-0.1c-1.4,0-2.6,1.1-2.6,2.6v0.1H12.7v-0.1
			c0-1.4-1.1-2.6-2.6-2.6H10v-8.7h0.1c1.4,0,2.6-1.1,2.6-2.6v-0.1H24.3 M25.8,17.9H11.2v1.6c0,0.6-0.5,1.1-1.1,1.1H8.5v11.6h1.6
			c0.6,0,1.1,0.5,1.1,1.1V35h14.5v-1.6c0-0.6,0.5-1.1,1.1-1.1h1.6V20.6h-1.6c-0.6,0-1.1-0.5-1.1-1.1V17.9L25.8,17.9z"/>
		<path class="st1" d="M22.2,8.4l-2.9-2.9l0,0c0,0,0,0-0.1-0.1c0,0,0,0,0,0c0,0,0,0,0,0c0,0,0,0,0,0c0,0,0,0,0,0c0,0,0,0,0,0
			c0,0,0,0,0,0c0,0,0,0,0,0c0,0,0,0-0.1,0c0,0,0,0,0,0c0,0,0,0-0.1,0c0,0,0,0,0,0c0,0,0,0-0.1,0c0,0-0.1,0-0.1,0c0,0,0,0,0,0
			s0,0,0,0c0,0-0.1,0-0.1,0c0,0,0,0-0.1,0c0,0,0,0,0,0c0,0,0,0-0.1,0c0,0,0,0,0,0c0,0,0,0-0.1,0c0,0,0,0,0,0c0,0,0,0,0,0
			c0,0,0,0,0,0c0,0,0,0,0,0c0,0,0,0,0,0c0,0,0,0,0,0c0,0,0,0,0,0c0,0,0,0-0.1,0.1l0,0l-2.9,2.9c-0.4,0.4-0.4,1.1,0,1.6
			c0.2,0.2,0.5,0.3,0.8,0.3s0.6-0.1,0.8-0.3l1-1V16c0,0.6,0.5,1.1,1.1,1.1s1.1-0.5,1.1-1.1V8.9l1,1c0.2,0.2,0.5,0.3,0.8,0.3
			s0.6-0.1,0.8-0.3C22.7,9.6,22.7,8.9,22.2,8.4z"/>
		<path class="st1" d="M38,30.1l2.9-2.9l0,0c0,0,0,0,0.1-0.1c0,0,0,0,0,0c0,0,0,0,0,0c0,0,0,0,0,0c0,0,0,0,0,0c0,0,0,0,0,0
			c0,0,0,0,0,0c0,0,0,0,0,0c0,0,0,0,0-0.1c0,0,0,0,0,0c0,0,0,0,0-0.1c0,0,0,0,0,0c0,0,0,0,0-0.1c0,0,0-0.1,0-0.1c0,0,0,0,0,0
			s0,0,0,0c0,0,0-0.1,0-0.1c0,0,0,0,0-0.1c0,0,0,0,0,0c0,0,0,0,0-0.1c0,0,0,0,0,0c0,0,0,0,0-0.1c0,0,0,0,0,0c0,0,0,0,0,0
			c0,0,0,0,0,0c0,0,0,0,0,0c0,0,0,0,0,0c0,0,0,0,0,0c0,0,0,0,0,0c0,0,0,0-0.1-0.1l0,0L38,22.7c-0.4-0.4-1.1-0.4-1.5,0
			c-0.2,0.2-0.3,0.5-0.3,0.8s0.1,0.6,0.3,0.8l1,1h-7.1c-0.6,0-1.1,0.5-1.1,1.1s0.5,1.1,1.1,1.1h7.1l-1,1c-0.2,0.2-0.3,0.5-0.3,0.8
			s0.1,0.6,0.3,0.8C36.8,30.6,37.5,30.6,38,30.1z"/>
	</g>
	<g>
		<path class="st2" d="M10.1,15.2c0.6,0,1.1,0.5,1.1,1.1v3.2c0,0.6-0.5,1.1-1.1,1.1H6.9c-0.6,0-1.1-0.5-1.1-1.1v-3.2
			c0-0.6,0.5-1.1,1.1-1.1L10.1,15.2"/>
	</g>
	<g>
		<path class="st2" d="M30.1,15.2c0.6,0,1.1,0.5,1.1,1.1v3.2c0,0.6-0.5,1.1-1.1,1.1h-3.2c-0.6,0-1.1-0.5-1.1-1.1v-3.2
			c0-0.6,0.5-1.1,1.1-1.1L30.1,15.2"/>
	</g>
	<g>
		<path class="st2" d="M10.1,32.3c0.6,0,1.1,0.5,1.1,1.1v3.2c0,0.6-0.5,1.1-1.1,1.1H6.9c-0.6,0-1.1-0.5-1.1-1.1v-3.2
			c0-0.6,0.5-1.1,1.1-1.1H10.1"/>
	</g>
	<g>
		<path class="st2" d="M30.1,32.3c0.6,0,1.1,0.5,1.1,1.1v3.2c0,0.6-0.5,1.1-1.1,1.1h-3.2c-0.6,0-1.1-0.5-1.1-1.1v-3.2
			c0-0.6,0.5-1.1,1.1-1.1H30.1"/>
	</g>
	<g>
		<g>
			<g>
				<path class="st3" d="M10.1,15.2c0.6,0,1.1,0.5,1.1,1.1v3.2c0,0.6-0.5,1.1-1.1,1.1H6.9c-0.6,0-1.1-0.5-1.1-1.1v-3.2
					c0-0.6,0.5-1.1,1.1-1.1L10.1,15.2 M10.1,13.8H6.9c-1.4,0-2.6,1.1-2.6,2.6v3.2c0,1.4,1.2,2.6,2.6,2.6h3.2c1.4,0,2.6-1.1,2.6-2.6
					v-3.2C12.7,14.9,11.6,13.8,10.1,13.8L10.1,13.8z"/>
			</g>
			<g>
				<path class="st3" d="M30.1,15.2c0.6,0,1.1,0.5,1.1,1.1v3.2c0,0.6-0.5,1.1-1.1,1.1h-3.2c-0.6,0-1.1-0.5-1.1-1.1v-3.2
					c0-0.6,0.5-1.1,1.1-1.1L30.1,15.2 M30.1,13.8h-3.2c-1.4,0-2.6,1.1-2.6,2.6v3.2c0,1.4,1.1,2.6,2.6,2.6h3.2c1.4,0,2.6-1.1,2.6-2.6
					v-3.2C32.7,14.9,31.5,13.8,30.1,13.8L30.1,13.8z"/>
			</g>
			<g>
				<path class="st3" d="M10.1,32.3c0.6,0,1.1,0.5,1.1,1.1v3.2c0,0.6-0.5,1.1-1.1,1.1H6.9c-0.6,0-1.1-0.5-1.1-1.1v-3.2
					c0-0.6,0.5-1.1,1.1-1.1H10.1 M10.1,30.8H6.9c-1.4,0-2.6,1.1-2.6,2.6v3.2c0,1.4,1.2,2.6,2.6,2.6h3.2c1.4,0,2.6-1.2,2.6-2.6v-3.2
					C12.7,32,11.6,30.8,10.1,30.8L10.1,30.8z"/>
			</g>
			<g>
				<path class="st3" d="M30.1,32.3c0.6,0,1.1,0.5,1.1,1.1v3.2c0,0.6-0.5,1.1-1.1,1.1h-3.2c-0.6,0-1.1-0.5-1.1-1.1v-3.2
					c0-0.6,0.5-1.1,1.1-1.1H30.1 M30.1,30.8h-3.2c-1.4,0-2.6,1.1-2.6,2.6v3.2c0,1.4,1.1,2.6,2.6,2.6h3.2c1.4,0,2.6-1.2,2.6-2.6v-3.2
					C32.7,32,31.5,30.8,30.1,30.8L30.1,30.8z"/>
			</g>
			<path class="st3" d="M24.3,19.4v0.1c0,1.4,1.1,2.6,2.6,2.6H27v8.7h-0.1c-1.4,0-2.6,1.1-2.6,2.6v0.1H12.7v-0.1
				c0-1.4-1.1-2.6-2.6-2.6H10v-8.7h0.1c1.4,0,2.6-1.1,2.6-2.6v-0.1H24.3 M25.8,17.9H11.2v1.6c0,0.6-0.5,1.1-1.1,1.1H8.5v11.6h1.6
				c0.6,0,1.1,0.5,1.1,1.1V35h14.5v-1.6c0-0.6,0.5-1.1,1.1-1.1h1.6V20.6h-1.6c-0.6,0-1.1-0.5-1.1-1.1V17.9L25.8,17.9z"/>
			<path class="st4" d="M22.2,8.4l-2.9-2.9l0,0c0,0,0,0-0.1-0.1c0,0,0,0,0,0c0,0,0,0,0,0c0,0,0,0,0,0c0,0,0,0,0,0c0,0,0,0,0,0
				c0,0,0,0,0,0c0,0,0,0,0,0c0,0,0,0-0.1,0c0,0,0,0,0,0c0,0,0,0-0.1,0c0,0,0,0,0,0c0,0,0,0-0.1,0c0,0-0.1,0-0.1,0c0,0,0,0,0,0
				s0,0,0,0c0,0-0.1,0-0.1,0c0,0,0,0-0.1,0c0,0,0,0,0,0c0,0,0,0-0.1,0c0,0,0,0,0,0c0,0,0,0-0.1,0c0,0,0,0,0,0c0,0,0,0,0,0
				c0,0,0,0,0,0c0,0,0,0,0,0c0,0,0,0,0,0c0,0,0,0,0,0c0,0,0,0,0,0c0,0,0,0-0.1,0.1l0,0l-2.9,2.9c-0.4,0.4-0.4,1.1,0,1.6
				c0.2,0.2,0.5,0.3,0.8,0.3s0.6-0.1,0.8-0.3l1-1V16c0,0.6,0.5,1.1,1.1,1.1s1.1-0.5,1.1-1.1V8.9l1,1c0.2,0.2,0.5,0.3,0.8,0.3
				s0.6-0.1,0.8-0.3C22.7,9.6,22.7,8.9,22.2,8.4z"/>
			<path class="st4" d="M38,30.1l2.9-2.9l0,0c0,0,0,0,0.1-0.1c0,0,0,0,0,0c0,0,0,0,0,0c0,0,0,0,0,0c0,0,0,0,0,0c0,0,0,0,0,0
				c0,0,0,0,0,0c0,0,0,0,0,0c0,0,0,0,0-0.1c0,0,0,0,0,0c0,0,0,0,0-0.1c0,0,0,0,0,0c0,0,0,0,0-0.1c0,0,0-0.1,0-0.1c0,0,0,0,0,0
				s0,0,0,0c0,0,0-0.1,0-0.1c0,0,0,0,0-0.1c0,0,0,0,0,0c0,0,0,0,0-0.1c0,0,0,0,0,0c0,0,0,0,0-0.1c0,0,0,0,0,0c0,0,0,0,0,0
				c0,0,0,0,0,0c0,0,0,0,0,0c0,0,0,0,0,0c0,0,0,0,0,0c0,0,0,0,0,0c0,0,0,0-0.1-0.1l0,0L38,22.7c-0.4-0.4-1.1-0.4-1.5,0
				c-0.2,0.2-0.3,0.5-0.3,0.8s0.1,0.6,0.3,0.8l1,1h-7.1c-0.6,0-1.1,0.5-1.1,1.1s0.5,1.1,1.1,1.1h7.1l-1,1c-0.2,0.2-0.3,0.5-0.3,0.8
				s0.1,0.6,0.3,0.8C36.8,30.6,37.5,30.6,38,30.1z"/>
		</g>
		<g>
			<path class="st4" d="M10.1,15.2c0.6,0,1.1,0.5,1.1,1.1v3.2c0,0.6-0.5,1.1-1.1,1.1H6.9c-0.6,0-1.1-0.5-1.1-1.1v-3.2
				c0-0.6,0.5-1.1,1.1-1.1L10.1,15.2"/>
		</g>
		<g>
			<path class="st4" d="M30.1,15.2c0.6,0,1.1,0.5,1.1,1.1v3.2c0,0.6-0.5,1.1-1.1,1.1h-3.2c-0.6,0-1.1-0.5-1.1-1.1v-3.2
				c0-0.6,0.5-1.1,1.1-1.1L30.1,15.2"/>
		</g>
		<g>
			<path class="st4" d="M10.1,32.3c0.6,0,1.1,0.5,1.1,1.1v3.2c0,0.6-0.5,1.1-1.1,1.1H6.9c-0.6,0-1.1-0.5-1.1-1.1v-3.2
				c0-0.6,0.5-1.1,1.1-1.1H10.1"/>
		</g>
		<g>
			<path class="st4" d="M30.1,32.3c0.6,0,1.1,0.5,1.1,1.1v3.2c0,0.6-0.5,1.1-1.1,1.1h-3.2c-0.6,0-1.1-0.5-1.1-1.1v-3.2
				c0-0.6,0.5-1.1,1.1-1.1H30.1"/>
		</g>
	</g>
</g>
</svg>
