<?xml version="1.0" encoding="utf-8"?>
<!-- Generator: Adobe Illustrator 23.0.4, SVG Export Plug-In . SVG Version: 6.00 Build 0)  -->
<svg version="1.1" id="Layer_1" xmlns="http://www.w3.org/2000/svg" xmlns:xlink="http://www.w3.org/1999/xlink" x="0px" y="0px"
	 viewBox="0 0 48.2 46.5" style="enable-background:new 0 0 48.2 46.5;" xml:space="preserve">
<style type="text/css">
	.st0{fill:#F26E36;stroke:#FFFFFF;stroke-width:2;stroke-miterlimit:10;}
	.st1{fill:#CCCBCB;stroke:#FFFFFF;stroke-width:2;stroke-miterlimit:10;}
	.st2{fill:#848689;stroke:#FFFFFF;stroke-width:2;stroke-miterlimit:10;}
	.st3{fill:#848689;stroke:#FFFFFF;stroke-miterlimit:10;}
	.st4{fill:#CCCBCB;stroke:#FFFFFF;stroke-miterlimit:10;}
	.st5{fill:#F26E36;stroke:#FFFFFF;stroke-miterlimit:10;}
	.st6{fill:#F26E36;}
	.st7{fill:#CCCBCB;}
	.st8{fill:#848689;}
</style>
<g>
	<rect x="12.7" y="19.2" transform="matrix(0.5364 -0.844 0.844 0.5364 -8.8099 26.546)" class="st0" width="14.1" height="4.2"/>
	
		<rect x="29.9" y="20.6" transform="matrix(0.8113 -0.5846 0.5846 0.8113 -10.1063 23.9149)" class="st1" width="4.2" height="14.1"/>
	
		<rect x="19.5" y="26.5" transform="matrix(1.764140e-03 -1 1 1.764140e-03 -12.0265 55.0725)" class="st2" width="4.2" height="14.1"/>
	<circle class="st3" cx="36.2" cy="33.5" r="8.7"/>
	<circle class="st4" cx="23.5" cy="15.4" r="8.7"/>
	<circle class="st5" cx="11.7" cy="33.5" r="8.7"/>
	<circle class="st6" cx="23.5" cy="15.4" r="4"/>
	<circle class="st7" cx="36.2" cy="33.5" r="4"/>
	<circle class="st8" cx="11.7" cy="33.5" r="4"/>
	<rect x="12.7" y="19.2" transform="matrix(0.5364 -0.844 0.844 0.5364 -8.8099 26.546)" class="st6" width="14.1" height="4.2"/>
	
		<rect x="29.9" y="20.6" transform="matrix(0.8113 -0.5846 0.5846 0.8113 -10.1063 23.9149)" class="st7" width="4.2" height="14.1"/>
	
		<rect x="19.5" y="26.5" transform="matrix(1.764140e-03 -1 1 1.764140e-03 -12.0265 55.0725)" class="st8" width="4.2" height="14.1"/>
</g>
</svg>
