<?xml version="1.0" encoding="utf-8"?>
<!-- Generator: Adobe Illustrator 23.0.4, SVG Export Plug-In . SVG Version: 6.00 Build 0)  -->
<svg version="1.1" id="Layer_1" xmlns="http://www.w3.org/2000/svg" xmlns:xlink="http://www.w3.org/1999/xlink" x="0px" y="0px"
	 viewBox="0 0 242.03 101.76" style="enable-background:new 0 0 242.03 101.76;" xml:space="preserve">
<style type="text/css">
	.st0{fill:#D76E3C;}
	.st1{fill:#CBCBCA;}
</style>
<g>
	<path class="st0" d="M145.85,59.29c-5.2,0-9.42-4.22-9.42-9.42l0,0c0-5.2,4.22-9.42,9.42-9.42l79.53,0c5.2,0,9.42,4.22,9.42,9.42
		l0,0c0,5.2-4.22,9.42-9.42,9.42L145.85,59.29z"/>
	<path class="st0" d="M93.28,59.29c5.2,0,9.42-4.22,9.42-9.42l0,0c0-5.2-4.22-9.42-9.42-9.42H13.75c-5.2,0-9.42,4.22-9.42,9.42l0,0
		c0,5.2,4.21,9.42,9.42,9.42L93.28,59.29z"/>
	<g>
		<path class="st1" d="M140.36,73.94H98.78c-6.01,0-11.28-3.2-14.23-7.97l-19.54,0c3.89,15.02,17.53,26.11,33.77,26.11l41.58,0
			c16.23,0,29.88-11.09,33.77-26.11l-19.54,0C151.64,70.74,146.37,73.94,140.36,73.94z"/>
		<path class="st1" d="M98.78,25.8l41.58,0c6.01,0,11.28,3.2,14.23,7.97l19.54,0c-3.89-15.02-17.54-26.11-33.77-26.11l-41.58,0
			c-16.23,0-29.88,11.09-33.77,26.11l19.53,0C87.5,29,92.77,25.8,98.78,25.8z"/>
	</g>
</g>
</svg>
