<?xml version="1.0" encoding="utf-8"?>
<!-- Generator: Adobe Illustrator 23.0.4, SVG Export Plug-In . SVG Version: 6.00 Build 0)  -->
<svg version="1.1" id="Layer_1" xmlns="http://www.w3.org/2000/svg" xmlns:xlink="http://www.w3.org/1999/xlink" x="0px" y="0px"
	 viewBox="0 0 43.79 44.3" style="enable-background:new 0 0 43.79 44.3;" xml:space="preserve">
<style type="text/css">
	.st0{fill:#CCCBCB;}
	.st1{fill:#F26E36;}
</style>
<g>
	<g>
		<g>
			<path class="st0" d="M10.15,15.22c0.61,0,1.1,0.49,1.1,1.1v3.21c0,0.61-0.49,1.1-1.1,1.1H6.94c-0.61,0-1.1-0.49-1.1-1.1v-3.21
				c0-0.61,0.49-1.1,1.1-1.1H10.15 M10.15,13.75H6.94c-1.42,0-2.57,1.15-2.57,2.57v3.21c0,1.42,1.15,2.57,2.57,2.57h3.21
				c1.42,0,2.57-1.15,2.57-2.57v-3.21C12.71,14.9,11.56,13.75,10.15,13.75L10.15,13.75z"/>
		</g>
		<g>
			<path class="st0" d="M30.1,15.22c0.61,0,1.1,0.49,1.1,1.1v3.21c0,0.61-0.49,1.1-1.1,1.1h-3.21c-0.61,0-1.1-0.49-1.1-1.1v-3.21
				c0-0.61,0.49-1.1,1.1-1.1H30.1 M30.1,13.75h-3.21c-1.42,0-2.57,1.15-2.57,2.57v3.21c0,1.42,1.15,2.57,2.57,2.57h3.21
				c1.42,0,2.57-1.15,2.57-2.57v-3.21C32.67,14.9,31.51,13.75,30.1,13.75L30.1,13.75z"/>
		</g>
		<g>
			<path class="st0" d="M10.15,32.27c0.61,0,1.1,0.49,1.1,1.1v3.21c0,0.61-0.49,1.1-1.1,1.1H6.94c-0.61,0-1.1-0.49-1.1-1.1v-3.21
				c0-0.61,0.49-1.1,1.1-1.1H10.15 M10.15,30.81H6.94c-1.42,0-2.57,1.15-2.57,2.57v3.21c0,1.42,1.15,2.57,2.57,2.57h3.21
				c1.42,0,2.57-1.15,2.57-2.57v-3.21C12.71,31.96,11.56,30.81,10.15,30.81L10.15,30.81z"/>
		</g>
		<g>
			<path class="st0" d="M30.1,32.27c0.61,0,1.1,0.49,1.1,1.1v3.21c0,0.61-0.49,1.1-1.1,1.1h-3.21c-0.61,0-1.1-0.49-1.1-1.1v-3.21
				c0-0.61,0.49-1.1,1.1-1.1H30.1 M30.1,30.81h-3.21c-1.42,0-2.57,1.15-2.57,2.57v3.21c0,1.42,1.15,2.57,2.57,2.57h3.21
				c1.42,0,2.57-1.15,2.57-2.57v-3.21C32.67,31.96,31.51,30.81,30.1,30.81L30.1,30.81z"/>
		</g>
		<path class="st0" d="M24.32,19.39v0.14c0,1.42,1.15,2.57,2.57,2.57h0.14v8.72h-0.14c-1.42,0-2.57,1.15-2.57,2.57v0.14H12.71v-0.14
			c0-1.42-1.15-2.57-2.57-2.57h-0.14v-8.72h0.14c1.42,0,2.57-1.15,2.57-2.57v-0.14H24.32 M25.79,17.92H11.25v1.6
			c0,0.61-0.49,1.1-1.1,1.1h-1.6v11.64h1.6c0.61,0,1.1,0.49,1.1,1.1v1.6h14.54v-1.6c0-0.61,0.49-1.1,1.1-1.1h1.6V20.63h-1.6
			c-0.61,0-1.1-0.49-1.1-1.1V17.92L25.79,17.92z"/>
		<path class="st1" d="M22.24,8.44l-2.91-2.91c0,0-0.01-0.01-0.01-0.01c-0.02-0.02-0.05-0.04-0.07-0.06
			c-0.01-0.01-0.03-0.02-0.04-0.03c-0.02-0.01-0.03-0.02-0.05-0.03c-0.02-0.01-0.03-0.02-0.05-0.03c-0.02-0.01-0.03-0.02-0.05-0.03
			c-0.02-0.01-0.03-0.02-0.05-0.02c-0.02-0.01-0.03-0.02-0.05-0.02c-0.02-0.01-0.03-0.01-0.05-0.02c-0.02-0.01-0.04-0.01-0.06-0.02
			c-0.01,0-0.03-0.01-0.05-0.01c-0.02-0.01-0.04-0.01-0.06-0.01c-0.02,0-0.03-0.01-0.05-0.01c-0.02,0-0.04-0.01-0.06-0.01
			c-0.03,0-0.06,0-0.09,0c-0.01,0-0.01,0-0.02,0c-0.01,0-0.01,0-0.02,0c-0.03,0-0.06,0-0.09,0c-0.02,0-0.04,0.01-0.06,0.01
			c-0.02,0-0.03,0-0.05,0.01c-0.02,0-0.04,0.01-0.06,0.01c-0.02,0-0.03,0.01-0.05,0.01c-0.02,0.01-0.04,0.01-0.06,0.02
			c-0.02,0.01-0.03,0.01-0.05,0.02c-0.02,0.01-0.03,0.02-0.05,0.02c-0.02,0.01-0.03,0.01-0.05,0.02C18.02,5.34,18,5.35,17.99,5.36
			c-0.02,0.01-0.03,0.02-0.05,0.03c-0.02,0.01-0.03,0.02-0.05,0.03c-0.01,0.01-0.03,0.02-0.04,0.03c-0.02,0.02-0.05,0.04-0.07,0.06
			c0,0-0.01,0.01-0.01,0.01l-2.91,2.91c-0.43,0.43-0.43,1.12,0,1.55c0.21,0.21,0.5,0.32,0.78,0.32c0.28,0,0.56-0.11,0.78-0.32
			l1.04-1.04v7.08c0,0.61,0.49,1.1,1.1,1.1c0.61,0,1.1-0.49,1.1-1.1V8.95l1.04,1.04c0.21,0.21,0.5,0.32,0.78,0.32
			c0.28,0,0.56-0.11,0.78-0.32C22.67,9.56,22.67,8.86,22.24,8.44z"/>
		<path class="st1" d="M37.97,30.15l2.91-2.91c0,0,0.01-0.01,0.01-0.01c0.02-0.02,0.04-0.05,0.06-0.07
			c0.01-0.01,0.02-0.03,0.03-0.04c0.01-0.02,0.02-0.03,0.03-0.05c0.01-0.02,0.02-0.03,0.03-0.05c0.01-0.02,0.02-0.03,0.03-0.05
			c0.01-0.02,0.02-0.03,0.02-0.05c0.01-0.02,0.02-0.03,0.02-0.05c0.01-0.02,0.01-0.03,0.02-0.05c0.01-0.02,0.01-0.04,0.02-0.06
			c0-0.01,0.01-0.03,0.01-0.05c0.01-0.02,0.01-0.04,0.01-0.06c0-0.02,0.01-0.03,0.01-0.05c0-0.02,0.01-0.04,0.01-0.06
			c0-0.03,0-0.06,0-0.09c0-0.01,0-0.01,0-0.02s0-0.01,0-0.02c0-0.03,0-0.06,0-0.09c0-0.02-0.01-0.04-0.01-0.06
			c0-0.02,0-0.03-0.01-0.05c0-0.02-0.01-0.04-0.01-0.06c0-0.02-0.01-0.03-0.01-0.05c-0.01-0.02-0.01-0.04-0.02-0.06
			c-0.01-0.02-0.01-0.03-0.02-0.05c-0.01-0.02-0.02-0.03-0.02-0.05c-0.01-0.02-0.01-0.03-0.02-0.05c-0.01-0.02-0.02-0.03-0.03-0.05
			c-0.01-0.02-0.02-0.03-0.03-0.05c-0.01-0.02-0.02-0.03-0.03-0.05c-0.01-0.01-0.02-0.03-0.03-0.04c-0.02-0.02-0.04-0.05-0.06-0.07
			c0,0-0.01-0.01-0.01-0.01l-2.91-2.91c-0.43-0.43-1.12-0.43-1.55,0c-0.21,0.21-0.32,0.5-0.32,0.78c0,0.28,0.11,0.56,0.32,0.78
			l1.04,1.04h-7.08c-0.61,0-1.1,0.49-1.1,1.1c0,0.61,0.49,1.1,1.1,1.1h7.08l-1.04,1.04c-0.21,0.21-0.32,0.5-0.32,0.78
			c0,0.28,0.11,0.56,0.32,0.78C36.84,30.58,37.54,30.58,37.97,30.15z"/>
	</g>
	<g>
		<path class="st1" d="M10.15,15.22c0.61,0,1.1,0.49,1.1,1.1v3.21c0,0.61-0.49,1.1-1.1,1.1H6.94c-0.61,0-1.1-0.49-1.1-1.1v-3.21
			c0-0.61,0.49-1.1,1.1-1.1H10.15"/>
	</g>
	<g>
		<path class="st1" d="M30.1,15.22c0.61,0,1.1,0.49,1.1,1.1v3.21c0,0.61-0.49,1.1-1.1,1.1h-3.21c-0.61,0-1.1-0.49-1.1-1.1v-3.21
			c0-0.61,0.49-1.1,1.1-1.1H30.1"/>
	</g>
	<g>
		<path class="st1" d="M10.15,32.27c0.61,0,1.1,0.49,1.1,1.1v3.21c0,0.61-0.49,1.1-1.1,1.1H6.94c-0.61,0-1.1-0.49-1.1-1.1v-3.21
			c0-0.61,0.49-1.1,1.1-1.1H10.15"/>
	</g>
	<g>
		<path class="st1" d="M30.1,32.27c0.61,0,1.1,0.49,1.1,1.1v3.21c0,0.61-0.49,1.1-1.1,1.1h-3.21c-0.61,0-1.1-0.49-1.1-1.1v-3.21
			c0-0.61,0.49-1.1,1.1-1.1H30.1"/>
	</g>
</g>
</svg>
