<?xml version="1.0" encoding="utf-8"?>
<!-- Generator: Adobe Illustrator 23.0.4, SVG Export Plug-In . SVG Version: 6.00 Build 0)  -->
<svg version="1.1" id="Layer_1" xmlns="http://www.w3.org/2000/svg" xmlns:xlink="http://www.w3.org/1999/xlink" x="0px" y="0px"
	 viewBox="0 0 276.7 318.5" style="enable-background:new 0 0 276.7 318.5;" xml:space="preserve">
<style type="text/css">
	.st0{fill:#CBCBCA;}
	.st1{fill:#FE7943;}
</style>
<g>
	<g>
		<g>
			<path class="st0" d="M219.3,269.8c-4.6,0-9.2-2-12.2-3.6l-55.8-30.6c-6.8-3.7-19.2-3.9-26-0.4l-56.7,28.8
				c-5.2,2.6-14.9,6-21.5-0.7c-6.6-6.8-2.8-16.4,0-21.5L77.6,186c3.7-6.8,3.9-19.2,0.4-26l-28.8-56.7C46.6,98,43.2,88.3,50,81.7
				s16.4-2.8,21.5,0l55.8,30.6c6.8,3.7,19.2,3.9,26,0.4L210,83.9c5.2-2.6,14.9-6.1,21.5,0.7s2.8,16.4,0,21.5l-30.6,55.8
				c-3.7,6.8-3.9,19.2-0.4,26l28.8,56.7c2.6,5.2,6.1,14.9-0.7,21.5C225.8,268.8,222.5,269.8,219.3,269.8z M137.7,212.6
				c8.3,0,16.6,1.8,23.2,5.4l44.9,24.6L182.7,197c-6.5-12.9-6.2-32.1,0.7-44.7l24.6-44.9l-45.7,23.2c-12.9,6.5-32.1,6.2-44.7-0.7
				l-44.9-24.7l23.2,45.7c6.5,12.9,6.2,32.1-0.7,44.7l-24.7,44.9l45.7-23.2C122.4,214.2,130,212.6,137.7,212.6z"/>
		</g>
		<g>
			<path class="st0" d="M137.4,302.3c-0.1,0-0.1,0-0.2,0c-4.1-0.1-11.4-2.1-15.2-15.2L104.2,226c-2.2-7.4-10.8-16.3-18.1-18.7
				l-60.5-19.8c-5.6-1.8-14.8-6.3-14.7-15.7c0.1-4.1,2.1-11.4,15.2-15.2l61.1-17.8c7.4-2.2,16.3-10.8,18.7-18.1l19.8-60.5
				c1.8-5.5,6.2-14.7,15.5-14.7c0.1,0,0.1,0,0.2,0c4.1,0.1,11.4,2.1,15.2,15.2l17.8,61.1c2.2,7.4,10.8,16.3,18.1,18.7l60.5,19.8
				c5.5,1.8,14.8,6.3,14.7,15.7c-0.1,4.1-2.1,11.4-15.2,15.2L191.4,209c-7.4,2.2-16.3,10.8-18.7,18.1l-19.8,60.5
				C151.1,293.1,146.7,302.3,137.4,302.3z M43.6,172.4l48.7,15.9c13.7,4.5,27.1,18.3,31.1,32.1l14.3,49.2l15.9-48.7
				c4.5-13.7,18.3-27.1,32.1-31.1l49.2-14.3l-48.7-15.9c-13.7-4.5-27.1-18.3-31.1-32.1l-14.3-49.2l-15.9,48.7
				c-4.5,13.7-18.3,27.1-32.1,31.1L43.6,172.4z M249.5,180.5L249.5,180.5L249.5,180.5z"/>
		</g>
	</g>
	<path class="st1" d="M231.5,84.4c-6.6-6.8-16.3-3.4-21.5-0.7l-39.9,20.2l-0.6,1l-16.2,7.5l-2.2,0.8l0,0.1c-0.4,0.1-0.8,0.3-1.2,0.4
		l-23.8,9.1l-32.4,12.4c-2.2,1.5-4.5,2.7-6.6,3.3l-8.6,2.5l-8.3,3.2l-44.1,12.1c-13.1,3.8-15.1,11.2-15.2,15.2
		c-0.1,9.4,9.1,13.9,14.7,15.7l60.5,19.8c7.3,2.4,16,11.3,18.1,18.7l17.8,61.1c3.8,13,11.2,15.1,15.2,15.2c0.1,0,0.1,0,0.2,0
		c9.3,0,13.7-9.2,15.5-14.7l19.8-60.5c0.8-6.9,4.9-17.8,10.3-29.6l0,0c1.1-2.5,2.3-5,3.5-7.5c0,0,0-0.1,0-0.1
		c4.4-9.2,9.2-18.4,13.5-26.5c0.3-0.5,0.5-1,0.8-1.4c0.2-0.3,0.4-0.7,0.5-1c0.3-0.6,0.6-1.1,0.9-1.7c0.2-0.3,0.3-0.6,0.5-0.9
		c0.4-0.7,0.7-1.4,1.1-2c0.2-0.3,0.3-0.6,0.5-0.8c0.2-0.4,0.5-0.9,0.7-1.3c0.2-0.3,0.4-0.6,0.5-0.9c0.2-0.4,0.4-0.8,0.6-1.1
		c0.2-0.3,0.3-0.6,0.5-0.9c0.2-0.4,0.4-0.7,0.6-1c0.2-0.3,0.3-0.6,0.5-0.9c0.2-0.4,0.4-0.7,0.6-1.1c0.2-0.4,0.4-0.7,0.6-1
		c0.2-0.4,0.4-0.8,0.6-1.1c2.3-4.1,3.7-6.5,3.7-6.5l18.4-33.6C234.3,100.8,238.1,91.2,231.5,84.4z M190.3,139.4L179,162.1l0,0
		c-6.4,14.9-21.9,48-25.4,58.5l-15.9,48.7l-14.3-49.2c-4-13.8-17.4-27.6-31.1-32.1l-48.7-15.9l49.2-14.3
		c11.2-3.3,48.1-19.3,61.7-24.4l0,0l20.7-9.6c0,0,0,0,0,0l32.9-16.7L190.3,139.4z"/>
	<g>
		<path class="st1" d="M133.3,33.5V11.7h6.9l3.5,6.7c1.2,2.2,2.5,5.1,3.4,7.6h0.1c-0.3-2.9-0.4-5.9-0.4-9.2v-5.2h5.3v21.8h-6.1
			l-3.7-7.2c-1.2-2.3-2.6-5.2-3.7-7.9h-0.1c0.2,3,0.2,6.2,0.2,9.8v5.4L133.3,33.5L133.3,33.5z"/>
	</g>
</g>
</svg>
