<?xml version="1.0" encoding="utf-8"?>
<!-- Generator: Adobe Illustrator 23.0.4, SVG Export Plug-In . SVG Version: 6.00 Build 0)  -->
<svg version="1.1" id="Layer_1" xmlns="http://www.w3.org/2000/svg" xmlns:xlink="http://www.w3.org/1999/xlink" x="0px" y="0px"
	 viewBox="0 0 336 331.35" style="enable-background:new 0 0 336 331.35;" xml:space="preserve">
<style type="text/css">
	.st0{fill:#FFFFFF;}
	.st1{display:none;fill:#F26E34;}
	.st2{fill:#F26E34;}
</style>
<g>
	<circle class="st0" cx="165.5" cy="166.24" r="160.5"/>
</g>
<path class="st1" d="M195.31,103.34h15.87V71.23h-34.4c-20.89,0-37.83,16.94-37.83,37.83v19.21h-27.14v32.11h27.14v98.87h42.2
	v-98.87h30.02v-32.11h-30.02V117.5C181.16,109.68,187.5,103.34,195.31,103.34z"/>
<path class="st2" d="M183.33,142.06c6.8-8.43,14.8-14.78,25.37-16.79c26.89-5.11,51.47,6.2,57.5,38.3
	c1.16,6.16,1.55,12.54,1.6,18.83c0.19,21.35,0,42.7,0.14,64.04c0.03,3.69-0.89,5.08-4.82,4.99c-11.06-0.25-22.14-0.22-33.21-0.01
	c-3.54,0.07-4.5-1.15-4.48-4.55c0.11-21.61,0.1-43.22-0.05-64.84c-0.02-3.5-0.67-7.07-1.55-10.47c-4.4-17.04-23.99-16.81-32.62-8.73
	c-5.83,5.45-7.88,12.24-7.89,19.91c-0.01,21.35-0.09,42.7,0.08,64.04c0.03,3.61-0.96,4.71-4.61,4.64
	c-11.06-0.23-22.14-0.17-33.21-0.03c-2.98,0.04-4.12-0.69-4.11-3.94c0.11-38.88,0.11-77.75,0.01-116.63
	c-0.01-3.14,1.02-4.16,4.06-4.14c11.33,0.1,22.67,0.1,34,0.01c2.87-0.02,4.01,0.96,3.84,3.93
	C183.16,134.43,183.33,138.25,183.33,142.06z"/>
<path class="st2" d="M119.93,188.95c0,19.11-0.1,38.23,0.08,57.34c0.04,3.94-1.03,5.25-5.1,5.15c-10.93-0.28-21.88-0.21-32.82-0.03
	c-3.36,0.06-4.61-0.82-4.6-4.4c0.11-38.62,0.1-77.24,0.02-115.87c-0.01-3.18,0.93-4.5,4.25-4.46c11.33,0.13,22.67,0.14,34.01,0
	c3.4-0.04,4.23,1.41,4.21,4.52C119.88,150.46,119.93,169.7,119.93,188.95z"/>
<path class="st2" d="M122.4,89.67c-0.06,12.39-10.26,21.6-23.89,21.57c-13.35-0.03-23.43-9.61-23.33-22.18
	c0.09-12.47,10.24-21.75,23.77-21.75C112.7,67.31,122.47,76.63,122.4,89.67z"/>
<path class="st1" d="M265.87,104.72c-0.11-0.48-0.3-0.95-0.6-1.39c-0.69-1.01-1.78-1.58-2.91-1.68c-3.16-2.17-6.99-3.44-11.11-3.44
	H84c-4.12,0-7.95,1.27-11.11,3.45c-1.13,0.1-2.22,0.67-2.91,1.68c-0.3,0.43-0.49,0.9-0.59,1.39c-3.15,3.49-5.07,8.11-5.07,13.18
	v104.68c0,10.86,8.83,19.69,19.69,19.69h167.26c10.86,0,19.69-8.83,19.69-19.69V117.9C270.95,112.83,269.02,108.21,265.87,104.72z
	 M251.26,106.08c0.9,0,1.76,0.11,2.6,0.3l-80.42,55.1c-3.47,2.38-8.14,2.38-11.62,0l-80.42-55.1c0.84-0.19,1.71-0.3,2.6-0.3H251.26z
	 M263.07,222.58c0,6.51-5.3,11.81-11.81,11.81H84c-6.51,0-11.81-5.3-11.81-11.81V117.9c0-2.53,0.81-4.87,2.17-6.8l83.02,56.88
	c3.07,2.1,6.66,3.15,10.26,3.15c3.6,0,7.19-1.05,10.26-3.15l83.02-56.88c1.36,1.92,2.17,4.27,2.17,6.8V222.58z"/>
</svg>
