<?xml version="1.0" encoding="utf-8"?>
<!-- Generator: Adobe Illustrator 23.0.4, SVG Export Plug-In . SVG Version: 6.00 Build 0)  -->
<svg version="1.1" id="Layer_1" xmlns="http://www.w3.org/2000/svg" xmlns:xlink="http://www.w3.org/1999/xlink" x="0px" y="0px"
	 viewBox="0 0 336 331.35" style="enable-background:new 0 0 336 331.35;" xml:space="preserve">
<style type="text/css">
	.st0{fill:#F26E34;}
	.st1{fill:#FFFFFF;}
</style>
<g>
	<circle class="st0" cx="165.5" cy="166.24" r="160.5"/>
	<g>
		<path class="st1" d="M115.13,93.43c-2.35-2.35-5.55-3.64-9.01-3.64c-3.46,0-6.64,1.28-8.97,3.6c-2.44,2.43-3.67,5.46-3.67,9.01
			v49.27v91.42c0,3.52,1.22,6.54,3.64,8.97c2.35,2.35,5.55,3.64,9.01,3.64c3.46,0,6.64-1.28,8.97-3.6c2.44-2.43,3.68-5.46,3.68-9.01
			v-91.42V102.4C118.76,98.88,117.54,95.86,115.13,93.43"/>
		<path class="st1" d="M290.14,69.34c-3.61-8.73-8.69-16.4-15.11-22.79c-6.3-6.32-13.97-11.48-22.82-15.34
			c-5.39-2.34-11.27-3.98-17.38-4.86c-3.63-0.54-7.33-0.82-11.06-0.82c-11.87,0-23.68,2.87-33.25,8.09
			c-7.31,4.01-13.84,9.08-19.44,15.08l-6.08,6.52l-6.08-6.52c-5.6-6-12.13-11.07-19.44-15.08c-9.56-5.21-21.37-8.09-33.25-8.09
			c-3.73,0-7.43,0.28-11.05,0.82c-6.11,0.89-11.99,2.52-17.38,4.86c-8.84,3.86-16.51,9.02-22.81,15.34
			c-6.42,6.39-11.5,14.06-15.11,22.79c-3.64,8.76-5.49,18.18-5.49,28v145.75c0,3.55,1.24,6.58,3.67,9.01
			c2.33,2.32,5.52,3.6,8.98,3.6c3.45,0,6.65-1.29,9.01-3.64c2.41-2.43,3.64-5.45,3.64-8.97V97.34c0-6.47,1.21-12.37,3.71-18.04
			c1.86-4.28,4.13-8.05,6.88-11.46c0.93-1.12,1.92-2.19,2.97-3.23c4.38-4.44,9.27-7.78,14.92-10.2c5.53-2.34,11.76-3.57,17.99-3.57
			c1.44,0,2.88,0.08,4.32,0.22c10.35,1.07,19.99,5.6,27.55,13.03c8.47,8.37,13.22,18.82,14.21,31.04c0.03,0.74,0.11,1.47,0.11,2.22
			v145.79c0,3.5,1.2,6.49,3.58,8.91c2.37,2.36,5.57,3.65,9.03,3.65c0.02,0,0.04,0,0.06,0c0.02,0,0.03,0,0.05,0
			c3.45,0,6.66-1.3,9.03-3.65c2.39-2.43,3.59-5.42,3.59-8.91V97.34c0-0.75,0.07-1.48,0.11-2.22c0.99-12.22,5.73-22.67,14.21-31.04
			c7.56-7.43,17.2-11.95,27.55-13.03c1.44-0.13,2.88-0.22,4.32-0.22c6.23,0,12.45,1.23,17.99,3.57c5.66,2.43,10.55,5.77,14.92,10.2
			c1.05,1.04,2.04,2.11,2.97,3.23c2.75,3.4,5.02,7.18,6.89,11.46c2.49,5.67,3.71,11.57,3.71,18.04v145.75
			c0,3.52,1.22,6.54,3.64,8.97c2.35,2.35,5.55,3.64,9.01,3.64c3.46,0,6.64-1.28,8.98-3.6c2.44-2.43,3.67-5.46,3.67-9.01V97.34
			C295.62,87.52,293.78,78.1,290.14,69.34"/>
		<path class="st1" d="M283.12,316.74c-13.53-0.32-24.48-2.92-33.56-7.92c-8.95-4.88-16.41-11.06-22.16-18.37
			c-5.66-7.28-9.78-15.09-12.24-23.24c-2.49-8.14-3.75-15.53-3.75-21.97V102.35c0-3.63,1.16-6.48,3.65-8.98
			c2.35-2.32,5.55-3.58,9.03-3.58c3.43,0,6.67,1.3,8.9,3.58c2.53,2.51,3.73,5.37,3.73,8.99v142.88c0,2.6,0.51,6.19,1.58,10.97
			c1.09,4.98,3.34,10.06,6.68,15.11c3.28,5.08,8.02,9.66,14.11,13.64c5.98,3.97,14.1,6.14,24.16,6.45c3.55,0,6.53,1.2,9.01,3.65
			c2.47,2.47,3.72,5.49,3.72,8.99c0,3.53-1.25,6.56-3.71,9.02c-2.47,2.44-5.49,3.67-8.99,3.67H283.12z"/>
	</g>
</g>
</svg>
