<?xml version="1.0" encoding="utf-8"?>
<!-- Generator: Adobe Illustrator 23.0.4, SVG Export Plug-In . SVG Version: 6.00 Build 0)  -->
<svg version="1.1" id="Layer_1" xmlns="http://www.w3.org/2000/svg" xmlns:xlink="http://www.w3.org/1999/xlink" x="0px" y="0px"
	 viewBox="0 0 231.8 165.9" style="enable-background:new 0 0 231.8 165.9;" xml:space="preserve">
<style type="text/css">
	.st0{fill:#8D837A;}
	.st1{fill:#D76E3C;}
	.st2{fill:none;}
</style>
<path class="st0" d="M33.8,128c-0.7-0.7-1.6-1.3-2.6-1.7c-2.2-1-4.9-0.8-7,0.3c-0.8,0.5-1.6,1-2.2,1.7c-0.6-0.7-1.3-1.2-2.2-1.7
	c-2.1-1.1-4.8-1.2-7-0.3c-1,0.4-1.9,1-2.6,1.7c-0.7,0.7-1.3,1.6-1.7,2.6c-0.4,1-0.6,2.1-0.6,3.2v13.1c0,0.6,0.2,1.1,0.6,1.5
	c0.8,0.8,2.2,0.8,3.1,0c0.4-0.4,0.6-0.9,0.6-1.5v-13.1c0-0.5,0.1-1,0.3-1.5c0.2-0.5,0.5-0.9,0.8-1.2c0.3-0.3,0.7-0.6,1.2-0.8
	c1.4-0.6,3-0.3,4.1,0.8c0.8,0.7,1.1,1.7,1.2,2.7v7.7c0,0.6,0.2,1.1,0.6,1.5c0.8,0.8,2.2,0.8,3.1,0c0.4-0.4,0.6-0.9,0.6-1.5v-7.7
	c0-0.5,0.1-1,0.3-1.5c0.2-0.5,0.5-0.9,0.8-1.2c0.3-0.4,0.7-0.6,1.2-0.8c0.9-0.4,2-0.4,3,0c0.5,0.2,0.9,0.5,1.2,0.8
	c0.4,0.4,0.6,0.8,0.8,1.2c0.2,0.5,0.3,1,0.3,1.5v13.1c0,0.6,0.2,1.1,0.6,1.5c0.4,0.4,0.9,0.6,1.5,0.6c0.6,0,1.1-0.2,1.5-0.6
	c0.4-0.4,0.6-0.9,0.6-1.5v-13.1c0-1.1-0.2-2.2-0.6-3.2C35.1,129.6,34.5,128.7,33.8,128"/>
<path class="st0" d="M58.6,129.1c-1.1-1.1-2.3-1.9-3.7-2.5c-1.4-0.6-2.9-1-4.5-1h0c-1.7,0.1-3.2,0.4-4.6,1c-1.4,0.6-2.7,1.5-3.7,2.5
	c-1,1.1-1.9,2.3-2.5,3.7c-0.6,1.4-0.9,2.9-0.9,4.5c0,1.7,0.3,3.2,0.9,4.6c0.6,1.4,1.5,2.6,2.5,3.7c1.1,1,2.3,1.8,3.7,2.4
	c2.9,1.2,6.5,1.2,9.4-0.4c0.9-0.5,1.7-1.1,2.5-1.7v0.9c0,0.6,0.2,1.1,0.6,1.5c0.4,0.4,0.9,0.6,1.5,0.6c0.6,0,1.1-0.2,1.5-0.6
	c0.4-0.4,0.6-0.9,0.6-1.5v-9.5c0-1.6-0.3-3.1-1-4.6C60.5,131.5,59.7,130.2,58.6,129.1 M50.4,130c1,0,2,0.2,2.9,0.6
	c0.9,0.4,1.7,0.9,2.4,1.6c0.7,0.7,1.2,1.5,1.6,2.4c0.4,0.9,0.6,1.9,0.6,2.8c-0.1,1.1-0.3,2.1-0.7,3c-0.4,0.9-0.9,1.7-1.6,2.3
	c-0.7,0.7-1.5,1.2-2.3,1.5c-1.8,0.7-3.9,0.7-5.6,0c-0.9-0.4-1.7-0.9-2.3-1.6c-0.7-0.7-1.2-1.4-1.6-2.3c-0.4-0.9-0.6-1.8-0.6-2.8
	c0-1,0.2-2,0.6-2.9c0.4-0.9,0.9-1.7,1.6-2.4c0.7-0.7,1.4-1.2,2.3-1.6C48.4,130.2,49.4,130,50.4,130"/>
<path class="st0" d="M86.9,135.2l6.2-5.9c0.4-0.4,0.6-0.9,0.6-1.5c0-0.6-0.2-1.1-0.6-1.5c-0.8-0.8-2.2-0.8-3.1,0l-8,7.8v-13.4
	c0-0.6-0.2-1.1-0.6-1.5c-0.8-0.8-2.2-0.8-3.1,0c-0.4,0.4-0.6,0.9-0.6,1.5v26.2c0,0.6,0.2,1.1,0.6,1.5c0.8,0.8,2.2,0.8,3.1,0
	c0.4-0.4,0.6-0.9,0.6-1.5V140l1.7-1.7l6.1,9.7c0.3,0.5,0.8,0.8,1.3,1c0.2,0.1,0.4,0.1,0.6,0.1c0.4,0,0.8-0.1,1.1-0.3
	c0.5-0.3,0.8-0.7,1-1.3c0.2-0.6,0.1-1.1-0.2-1.7L86.9,135.2z"/>
<path class="st0" d="M113.8,129c-1.1-1-2.3-1.8-3.6-2.5c-1.4-0.6-2.9-0.9-4.4-0.9h0c-1.7,0.1-3.2,0.4-4.6,1
	c-1.4,0.6-2.7,1.5-3.7,2.5c-1,1-1.9,2.3-2.5,3.7c-0.6,1.4-0.9,2.9-0.9,4.5c0,1.7,0.3,3.2,0.9,4.6c0.6,1.4,1.5,2.7,2.5,3.7
	c1.1,1,2.3,1.8,3.7,2.4c1.4,0.6,2.9,0.9,4.5,0.9c1.7,0,3.2-0.3,4.6-0.8c1.4-0.5,2.6-1.4,3.6-2.6c0.4-0.4,0.6-0.9,0.6-1.5
	c0-0.6-0.2-1.1-0.6-1.5c-0.8-0.8-2.3-0.8-3.1,0c-0.7,0.7-1.5,1.2-2.3,1.5c-1.6,0.7-3.7,0.7-5.4,0.1c-0.8-0.3-1.6-0.7-2.2-1.3
	c-0.6-0.6-1.2-1.2-1.6-1.9c-0.3-0.5-0.5-1-0.7-1.5h16.6c0.5,0,1.1-0.2,1.5-0.6c0.4-0.3,0.8-0.9,0.7-1.8c-0.1-1.6-0.4-3.1-1-4.4
	C115.7,131.2,114.9,130,113.8,129 M112.7,135.1h-14c0.2-0.5,0.4-1,0.6-1.5c0.4-0.7,1-1.4,1.6-1.9c0.7-0.5,1.4-1,2.2-1.3
	c1.6-0.6,3.5-0.6,5.1,0c0.8,0.3,1.6,0.8,2.2,1.3c0.6,0.5,1.2,1.2,1.6,1.9C112.3,134.1,112.6,134.6,112.7,135.1"/>
<path class="st0" d="M119.7,129.8h9.2c0.7,0,1.3-0.2,1.7-0.6c0.4-0.4,0.7-0.9,0.7-1.6c0-0.6-0.2-1.1-0.7-1.5c-0.4-0.4-1-0.6-1.7-0.6
	h-9.2V129.8z"/>
<path class="st1" d="M142,144.7c-0.9,0-1.5-0.2-2-0.5c-0.5-0.3-0.9-0.7-1.2-1.1c-0.3-0.4-0.5-0.8-0.6-1.2c-0.1-0.5-0.1-0.8-0.1-0.9
	v-20.3c0-0.6-0.2-1.1-0.6-1.5c-0.8-0.8-2.2-0.8-3.1,0c-0.4,0.4-0.6,0.9-0.6,1.5v20.3c0,0.7,0.1,1.6,0.4,2.5c0.3,0.9,0.7,1.8,1.4,2.7
	c0.7,0.8,1.5,1.5,2.5,2.1c1.1,0.6,2.3,0.9,3.8,0.9h0c0.6,0,1.1-0.2,1.5-0.6c0.4-0.4,0.6-0.9,0.6-1.5c0-0.6-0.2-1.1-0.6-1.5
	C143.1,144.9,142.6,144.7,142,144.7"/>
<path class="st0" d="M127.9,144.7c-0.9,0-1.5-0.2-2-0.5c-0.5-0.3-0.9-0.7-1.2-1.1c-0.3-0.4-0.5-0.8-0.6-1.2
	c-0.1-0.5-0.1-0.8-0.1-0.9v-20.3c0-0.6-0.2-1.1-0.6-1.5c-0.8-0.8-2.2-0.8-3.1,0c-0.4,0.4-0.6,0.9-0.6,1.5v20.3
	c0,0.7,0.1,1.6,0.4,2.5c0.3,0.9,0.7,1.8,1.4,2.7c0.7,0.8,1.5,1.5,2.5,2.1c1.1,0.6,2.3,0.9,3.8,0.9h0c0.6,0,1.1-0.2,1.5-0.6
	c0.4-0.4,0.6-0.9,0.6-1.5c0-0.6-0.2-1.1-0.6-1.5C129,144.9,128.5,144.7,127.9,144.7"/>
<path class="st0" d="M73.3,129.9c-0.9,0-1.5,0.2-2,0.5c-0.5,0.3-0.9,0.7-1.2,1.1c-0.3,0.4-0.5,0.8-0.6,1.2c-0.1,0.5-0.1,0.8-0.1,0.9
	V147c0,0.6-0.2,1.1-0.6,1.5c-0.8,0.8-2.2,0.8-3.1,0c-0.4-0.4-0.6-0.9-0.6-1.5v-13.3c0-0.7,0.1-1.6,0.4-2.5c0.3-0.9,0.7-1.8,1.4-2.7
	c0.7-0.8,1.5-1.5,2.5-2.1c1.1-0.6,2.3-0.9,3.8-0.9h0c0.6,0,1.1,0.2,1.5,0.6c0.4,0.4,0.6,0.9,0.6,1.5c0,0.6-0.2,1.1-0.6,1.5
	C74.4,129.7,73.9,129.9,73.3,129.9"/>
<path class="st1" d="M163.9,129.1c-1.1-1.1-2.3-1.9-3.7-2.5c-1.4-0.6-2.9-1-4.5-1h0c-1.7,0.1-3.2,0.4-4.6,1
	c-1.4,0.6-2.7,1.5-3.7,2.5c-1,1-1.9,2.3-2.5,3.7c-0.6,1.4-0.9,2.9-0.9,4.5c0,1.7,0.3,3.2,0.9,4.6c0.6,1.4,1.5,2.7,2.5,3.7
	c1.1,1,2.3,1.8,3.7,2.4c1.4,0.6,2.9,0.9,4.5,0.9c1.6,0,3.2-0.3,4.6-0.9c1.4-0.6,2.7-1.5,3.7-2.5c1-1,1.9-2.3,2.5-3.7
	c0.6-1.4,0.9-2.9,0.9-4.5c0-1.6-0.3-3.1-0.9-4.6C165.8,131.4,164.9,130.1,163.9,129.1 M163,137.4c0,1-0.2,2-0.6,2.8
	c-0.4,0.9-0.9,1.7-1.6,2.3c-0.7,0.7-1.5,1.2-2.4,1.6c-1.8,0.8-3.9,0.8-5.7,0c-0.9-0.4-1.7-0.9-2.3-1.6c-0.7-0.7-1.2-1.5-1.6-2.3
	c-0.4-0.9-0.6-1.8-0.6-2.8c0-1,0.2-2,0.6-2.9c0.4-0.9,0.9-1.7,1.6-2.4c0.7-0.7,1.4-1.2,2.3-1.6c0.9-0.4,1.8-0.6,2.8-0.6
	c1,0,2,0.2,2.9,0.6c0.9,0.4,1.7,0.9,2.4,1.6c0.7,0.7,1.2,1.5,1.6,2.4C162.8,135.4,163,136.4,163,137.4"/>
<path class="st1" d="M197.1,126.2c-0.4,0.4-0.6,0.9-0.6,1.5v19.2c0,0.6,0.2,1.1,0.6,1.5c0.4,0.4,0.9,0.6,1.5,0.6
	c0.6,0,1.1-0.2,1.5-0.6c0.4-0.4,0.6-0.9,0.6-1.5v-19.2c0-0.6-0.2-1.1-0.6-1.5C199.4,125.3,197.9,125.3,197.1,126.2"/>
<path class="st1" d="M196.8,119.6c-0.5,0.5-0.8,1.1-0.8,1.9c0,0.7,0.3,1.4,0.8,1.9c0.5,0.5,1.1,0.8,1.9,0.8c0.7,0,1.3-0.3,1.9-0.8
	c0.5-0.5,0.8-1.1,0.8-1.9c0-0.7-0.3-1.3-0.8-1.9C199.5,118.6,197.8,118.6,196.8,119.6"/>
<path class="st1" d="M223.5,142.7c-0.8-0.8-2.3-0.8-3.1,0c-0.7,0.7-1.5,1.2-2.3,1.5c-1.8,0.7-3.9,0.7-5.7,0
	c-0.9-0.4-1.7-0.9-2.3-1.6c-0.7-0.7-1.2-1.5-1.6-2.3c-0.4-0.9-0.6-1.8-0.6-2.8c0-1,0.2-2,0.6-2.9c0.4-0.9,0.9-1.7,1.6-2.4
	c0.7-0.7,1.5-1.2,2.3-1.6c1.8-0.8,3.9-0.8,5.7,0c0.9,0.4,1.7,0.9,2.3,1.4c0.8,0.8,2.2,0.8,3.1,0c0.5-0.5,0.7-1.2,0.5-1.9
	c-0.2-0.6-0.4-0.9-0.7-1.2c-0.3-0.3-0.7-0.6-1.2-1c-0.5-0.4-1.1-0.7-1.8-1.1c-0.7-0.3-1.4-0.6-2.2-0.9c-0.8-0.2-1.8-0.4-2.7-0.4h0
	c-1.7,0.1-3.2,0.4-4.6,1c-1.4,0.6-2.7,1.5-3.7,2.5c-1.1,1.1-1.9,2.3-2.5,3.7c-0.6,1.4-0.9,2.9-0.9,4.5c0,1.7,0.3,3.2,0.9,4.6
	c0.6,1.4,1.5,2.7,2.5,3.7c1,1,2.3,1.8,3.7,2.4c1.4,0.6,2.9,0.9,4.5,0.9c1,0,1.9-0.1,2.8-0.3c0.9-0.2,1.6-0.5,2.3-0.8
	c0.7-0.3,1.3-0.7,1.8-1.1c0.5-0.4,0.9-0.7,1.2-1c0.5-0.5,0.7-1,0.7-1.6C224.2,143.7,224,143.1,223.5,142.7"/>
<path class="st1" d="M192.4,132.8c-0.6-1.4-1.5-2.6-2.5-3.7c-1.1-1.1-2.3-1.9-3.7-2.5c-1.4-0.6-2.9-1-4.5-1h0
	c-1.7,0.1-3.2,0.4-4.6,1c-1.4,0.6-2.7,1.5-3.7,2.5c-1,1.1-1.9,2.3-2.5,3.7c-0.6,1.4-0.9,2.9-0.9,4.5c0,1.7,0.3,3.2,0.9,4.6
	c0.6,1.4,1.5,2.6,2.5,3.7c1.1,1,2.3,1.8,3.7,2.4c2.9,1.2,6.5,1.2,9.4-0.4c0.9-0.5,1.7-1.1,2.5-1.7v0.3c0,1-0.2,1.9-0.6,2.8
	c-0.4,0.9-0.9,1.7-1.6,2.3c-0.7,0.7-1.4,1.2-2.3,1.6c-1.8,0.8-3.9,0.8-5.7,0c-0.9-0.4-1.6-0.9-2.3-1.5c-0.3-0.4-0.8-0.6-1.4-0.7
	l-0.3,0c-0.5,0-0.9,0.2-1.4,0.5c-0.5,0.4-0.7,0.9-0.8,1.4c-0.1,0.5,0,1.1,0.3,1.6c1.2,1.2,2.4,2.1,3.9,2.8c1.4,0.6,3,0.9,4.6,0.9
	c1.6,0,3.1-0.3,4.6-0.9c1.4-0.6,2.6-1.4,3.7-2.5c1-1,1.9-2.3,2.5-3.7c0.5-1.1,0.7-2.2,0.9-3.4c0-0.2,0.1-0.3,0.1-0.5v-0.7v-2.4v-6.4
	C193.4,135.8,193.1,134.2,192.4,132.8 M188.4,140.3c-0.4,0.9-0.9,1.7-1.6,2.3c-0.7,0.7-1.5,1.2-2.3,1.5c-1.8,0.7-3.9,0.7-5.6,0
	c-0.9-0.4-1.7-0.9-2.3-1.6c-0.7-0.7-1.2-1.4-1.6-2.3c-0.4-0.9-0.6-1.8-0.6-2.8c0-1,0.2-2,0.6-2.9c0.4-0.9,0.9-1.7,1.6-2.4
	c0.7-0.7,1.4-1.2,2.3-1.6c0.9-0.4,1.8-0.6,2.8-0.6c1,0,2,0.2,2.9,0.6c0.9,0.4,1.7,0.9,2.4,1.6c0.7,0.7,1.2,1.5,1.6,2.4
	c0.4,0.9,0.6,1.9,0.6,2.8C189,138.4,188.8,139.4,188.4,140.3"/>
<path class="st1" d="M103.2,33.7c-0.7-0.7-1.7-1.1-2.8-1.1c-1.1,0-2.1,0.4-2.8,1.1c-0.8,0.8-1.1,1.7-1.1,2.8v15.4v28.6
	c0,1.1,0.4,2,1.1,2.8c0.7,0.7,1.7,1.1,2.8,1.1c1.1,0,2.1-0.4,2.8-1.1c0.8-0.8,1.2-1.7,1.2-2.8V51.9V36.5
	C104.3,35.4,103.9,34.5,103.2,33.7"/>
<path class="st1" d="M157.9,26.2c-1.1-2.7-2.7-5.1-4.7-7.1c-2-2-4.4-3.6-7.1-4.8c-1.7-0.7-3.5-1.2-5.4-1.5c-1.1-0.2-2.3-0.3-3.5-0.3
	c-3.7,0-7.4,0.9-10.4,2.5c-2.3,1.3-4.3,2.8-6.1,4.7l-1.9,2l-1.9-2c-1.8-1.9-3.8-3.5-6.1-4.7c-3-1.6-6.7-2.5-10.4-2.5
	c-1.2,0-2.3,0.1-3.5,0.3c-1.9,0.3-3.8,0.8-5.4,1.5c-2.8,1.2-5.2,2.8-7.1,4.8c-2,2-3.6,4.4-4.7,7.1c-1.1,2.7-1.7,5.7-1.7,8.8v45.6
	c0,1.1,0.4,2.1,1.1,2.8c0.7,0.7,1.7,1.1,2.8,1.1c1.1,0,2.1-0.4,2.8-1.1c0.8-0.8,1.1-1.7,1.1-2.8V34.9c0-2,0.4-3.9,1.2-5.6
	c0.6-1.3,1.3-2.5,2.2-3.6c0.3-0.3,0.6-0.7,0.9-1c1.4-1.4,2.9-2.4,4.7-3.2c1.7-0.7,3.7-1.1,5.6-1.1c0.5,0,0.9,0,1.4,0.1
	c3.2,0.3,6.3,1.8,8.6,4.1c2.7,2.6,4.1,5.9,4.4,9.7c0,0.2,0,0.5,0,0.7v45.6c0,1.1,0.4,2,1.1,2.8c0.7,0.7,1.7,1.1,2.8,1.1c0,0,0,0,0,0
	c0,0,0,0,0,0c1.1,0,2.1-0.4,2.8-1.1c0.7-0.8,1.1-1.7,1.1-2.8V34.9c0-0.2,0-0.5,0-0.7c0.3-3.8,1.8-7.1,4.4-9.7
	c2.4-2.3,5.4-3.7,8.6-4.1c0.4,0,0.9-0.1,1.4-0.1c2,0,3.9,0.4,5.6,1.1c1.8,0.8,3.3,1.8,4.7,3.2c0.3,0.3,0.6,0.7,0.9,1
	c0.9,1.1,1.6,2.2,2.2,3.6c0.8,1.8,1.2,3.6,1.2,5.6v45.6c0,1.1,0.4,2,1.1,2.8c0.7,0.7,1.7,1.1,2.8,1.1c1.1,0,2.1-0.4,2.8-1.1
	c0.8-0.8,1.1-1.7,1.1-2.8V34.9C159.7,31.9,159.1,28.9,157.9,26.2"/>
<path class="st1" d="M155.7,103.6c-4.2-0.1-7.7-0.9-10.5-2.5c-2.8-1.5-5.1-3.5-6.9-5.7c-1.8-2.3-3.1-4.7-3.8-7.3
	c-0.8-2.5-1.2-4.9-1.2-6.9V36.5c0-1.1,0.4-2,1.1-2.8c0.7-0.7,1.7-1.1,2.8-1.1c1.1,0,2.1,0.4,2.8,1.1c0.8,0.8,1.2,1.7,1.2,2.8v44.7
	c0,0.8,0.2,1.9,0.5,3.4c0.3,1.6,1,3.1,2.1,4.7c1,1.6,2.5,3,4.4,4.3c1.9,1.2,4.4,1.9,7.6,2c1.1,0,2,0.4,2.8,1.1
	c0.8,0.8,1.2,1.7,1.2,2.8c0,1.1-0.4,2.1-1.2,2.8C157.8,103.2,156.9,103.6,155.7,103.6L155.7,103.6z"/>
<line class="st2" x1="-27.2" y1="-10.5" x2="259.2" y2="-10.5"/>
</svg>
