<?xml version="1.0" encoding="utf-8"?>
<!-- Generator: Adobe Illustrator 23.0.4, SVG Export Plug-In . SVG Version: 6.00 Build 0)  -->
<svg version="1.1" id="Layer_1" xmlns="http://www.w3.org/2000/svg" xmlns:xlink="http://www.w3.org/1999/xlink" x="0px" y="0px"
	 viewBox="0 0 339 392.3" style="enable-background:new 0 0 339 392.3;" xml:space="preserve">
<style type="text/css">
	.st0{fill:#FA7943;}
	.st1{fill:#FFFFFF;}
	.st2{stroke:#FFFFFF;stroke-miterlimit:10;}
	.st3{fill:#D76E3C;stroke:#FFFFFF;stroke-width:3;stroke-miterlimit:10;}
	.st4{fill:#CBCBCA;stroke:#FFFFFF;stroke-width:3;stroke-miterlimit:10;}
</style>
<circle class="st0" cx="169.5" cy="222.8" r="169.5"/>
<g>
	<path class="st1" d="M130.3,128L130.3,128c0-4.8,3.6-8.7,8.8-8.7c3.2,0,5.1,1.1,6.6,2.6l-2.4,2.7c-1.3-1.2-2.6-1.9-4.3-1.9
		c-2.8,0-4.9,2.4-4.9,5.2v0c0,2.9,2,5.3,4.9,5.3c1.9,0,3.1-0.8,4.4-2l2.4,2.4c-1.7,1.8-3.6,3-6.9,3C134,136.6,130.3,132.8,130.3,128
		z"/>
	<path class="st1" d="M148.8,119.5h3.7v13.4h8.4v3.4h-12.1V119.5z"/>
	<path class="st1" d="M161.9,128L161.9,128c0-4.8,3.8-8.7,9-8.7s8.9,3.9,8.9,8.6v0c0,4.8-3.8,8.7-9,8.7S161.9,132.7,161.9,128z
		 M175.9,128L175.9,128c0-2.9-2.1-5.3-5.1-5.3s-5,2.4-5,5.2v0c0,2.9,2.1,5.3,5.1,5.3S175.9,130.8,175.9,128z"/>
	<path class="st1" d="M181.8,133.9l2.2-2.6c1.5,1.2,3.1,2,5,2c1.5,0,2.4-0.6,2.4-1.6v0c0-0.9-0.6-1.4-3.4-2.1
		c-3.4-0.9-5.6-1.8-5.6-5.1v0c0-3,2.4-5.1,5.9-5.1c2.4,0,4.5,0.8,6.2,2.1l-1.9,2.8c-1.5-1-3-1.7-4.4-1.7c-1.4,0-2.2,0.6-2.2,1.5v0
		c0,1.1,0.7,1.5,3.6,2.2c3.4,0.9,5.3,2.1,5.3,5v0c0,3.3-2.5,5.2-6.2,5.2C186.4,136.5,183.8,135.7,181.8,133.9z"/>
	<path class="st1" d="M198.3,119.5H211v3.3h-9v3.4h7.9v3.3H202v3.5h9.1v3.3h-12.8V119.5z"/>
</g>
<g>
	<path class="st1" d="M122.1,200.7c-0.6,0.3-1.7,0.6-3.2,0.6c-3.4,0-6-2.2-6-6.1c0-3.8,2.6-6.4,6.3-6.4c1.5,0,2.5,0.3,2.9,0.5
		l-0.4,1.3c-0.6-0.3-1.4-0.5-2.4-0.5c-2.8,0-4.7,1.8-4.7,5c0,3,1.7,4.9,4.7,4.9c1,0,1.9-0.2,2.6-0.5L122.1,200.7z"/>
	<path class="st1" d="M131.7,196.7c0,3.2-2.2,4.6-4.3,4.6c-2.4,0-4.2-1.7-4.2-4.5c0-2.9,1.9-4.6,4.3-4.6
		C130,192.2,131.7,194,131.7,196.7z M124.8,196.8c0,1.9,1.1,3.3,2.6,3.3c1.5,0,2.6-1.4,2.6-3.4c0-1.5-0.7-3.3-2.6-3.3
		C125.6,193.4,124.8,195.1,124.8,196.8z"/>
	<path class="st1" d="M133.7,194.8c0-0.9,0-1.6-0.1-2.4h1.4l0.1,1.4h0c0.4-0.8,1.4-1.6,2.9-1.6c1.2,0,3.1,0.7,3.1,3.7v5.2h-1.6v-5
		c0-1.4-0.5-2.6-2-2.6c-1,0-1.9,0.7-2.1,1.6c-0.1,0.2-0.1,0.5-0.1,0.7v5.2h-1.6V194.8z"/>
	<path class="st1" d="M145.5,189.9v2.5h2.3v1.2h-2.3v4.7c0,1.1,0.3,1.7,1.2,1.7c0.4,0,0.7-0.1,0.9-0.1l0.1,1.2
		c-0.3,0.1-0.8,0.2-1.4,0.2c-0.7,0-1.3-0.2-1.7-0.7c-0.5-0.5-0.6-1.2-0.6-2.3v-4.8h-1.4v-1.2h1.4v-2.1L145.5,189.9z"/>
	<path class="st1" d="M154.4,201.1l-0.1-1.1h-0.1c-0.5,0.7-1.4,1.3-2.7,1.3c-1.8,0-2.7-1.2-2.7-2.5c0-2.1,1.9-3.3,5.2-3.2v-0.2
		c0-0.7-0.2-2-2-2c-0.8,0-1.7,0.3-2.3,0.6l-0.4-1c0.7-0.5,1.8-0.8,2.9-0.8c2.7,0,3.3,1.8,3.3,3.6v3.3c0,0.8,0,1.5,0.1,2.1H154.4z
		 M154.2,196.7c-1.7,0-3.7,0.3-3.7,2c0,1,0.7,1.5,1.5,1.5c1.1,0,1.9-0.7,2.1-1.5c0.1-0.2,0.1-0.3,0.1-0.5V196.7z"/>
	<path class="st1" d="M164.5,200.8c-0.4,0.2-1.3,0.5-2.5,0.5c-2.6,0-4.3-1.8-4.3-4.4c0-2.7,1.8-4.6,4.7-4.6c0.9,0,1.8,0.2,2.2,0.5
		l-0.4,1.2c-0.4-0.2-1-0.4-1.8-0.4c-2,0-3.1,1.5-3.1,3.3c0,2,1.3,3.3,3,3.3c0.9,0,1.5-0.2,1.9-0.4L164.5,200.8z"/>
	<path class="st1" d="M168.5,189.9v2.5h2.3v1.2h-2.3v4.7c0,1.1,0.3,1.7,1.2,1.7c0.4,0,0.7-0.1,0.9-0.1l0.1,1.2
		c-0.3,0.1-0.8,0.2-1.4,0.2c-0.7,0-1.3-0.2-1.7-0.7c-0.5-0.5-0.6-1.2-0.6-2.3v-4.8h-1.4v-1.2h1.4v-2.1L168.5,189.9z"/>
	<path class="st1" d="M184.9,200.7c-0.6,0.3-1.7,0.6-3.2,0.6c-3.4,0-6-2.2-6-6.1c0-3.8,2.6-6.4,6.3-6.4c1.5,0,2.5,0.3,2.9,0.5
		l-0.4,1.3c-0.6-0.3-1.4-0.5-2.4-0.5c-2.8,0-4.7,1.8-4.7,5c0,3,1.7,4.9,4.7,4.9c1,0,1.9-0.2,2.6-0.5L184.9,200.7z"/>
	<path class="st1" d="M187.4,197c0,2.1,1.4,3,3,3c1.1,0,1.8-0.2,2.4-0.5l0.3,1.1c-0.6,0.3-1.5,0.5-2.9,0.5c-2.7,0-4.3-1.8-4.3-4.4
		c0-2.6,1.5-4.7,4.1-4.7c2.8,0,3.6,2.5,3.6,4.1c0,0.3,0,0.6-0.1,0.7H187.4z M192.1,195.9c0-1-0.4-2.6-2.2-2.6
		c-1.6,0-2.3,1.5-2.4,2.6H192.1z"/>
	<path class="st1" d="M195.6,194.8c0-0.9,0-1.6-0.1-2.4h1.4l0.1,1.4h0c0.4-0.8,1.4-1.6,2.9-1.6c1.2,0,3.1,0.7,3.1,3.7v5.2h-1.6v-5
		c0-1.4-0.5-2.6-2-2.6c-1,0-1.9,0.7-2.1,1.6c-0.1,0.2-0.1,0.5-0.1,0.7v5.2h-1.6V194.8z"/>
	<path class="st1" d="M207.4,189.9v2.5h2.3v1.2h-2.3v4.7c0,1.1,0.3,1.7,1.2,1.7c0.4,0,0.7-0.1,0.9-0.1l0.1,1.2
		c-0.3,0.1-0.8,0.2-1.4,0.2c-0.7,0-1.3-0.2-1.7-0.7c-0.5-0.5-0.6-1.2-0.6-2.3v-4.8h-1.4v-1.2h1.4v-2.1L207.4,189.9z"/>
	<path class="st1" d="M212.2,197c0,2.1,1.4,3,3,3c1.1,0,1.8-0.2,2.4-0.5l0.3,1.1c-0.6,0.3-1.5,0.5-2.9,0.5c-2.7,0-4.3-1.8-4.3-4.4
		c0-2.6,1.5-4.7,4.1-4.7c2.8,0,3.6,2.5,3.6,4.1c0,0.3,0,0.6-0.1,0.7H212.2z M216.9,195.9c0-1-0.4-2.6-2.2-2.6
		c-1.6,0-2.3,1.5-2.4,2.6H216.9z"/>
	<path class="st1" d="M220.4,195.1c0-1,0-1.9-0.1-2.7h1.4l0.1,1.7h0.1c0.4-1.2,1.4-1.9,2.4-1.9c0.2,0,0.3,0,0.5,0.1v1.5
		c-0.2,0-0.3-0.1-0.5-0.1c-1.1,0-1.9,0.8-2.1,2c0,0.2-0.1,0.5-0.1,0.7v4.6h-1.6V195.1z"/>
	<path class="st1" d="M113.4,220.8c0.7,0.4,1.7,0.8,2.8,0.8c1.6,0,2.5-0.8,2.5-2.1c0-1.1-0.6-1.8-2.3-2.4c-2-0.7-3.2-1.7-3.2-3.4
		c0-1.9,1.6-3.3,3.9-3.3c1.2,0,2.1,0.3,2.7,0.6l-0.4,1.3c-0.4-0.2-1.2-0.6-2.3-0.6c-1.7,0-2.3,1-2.3,1.8c0,1.1,0.7,1.7,2.4,2.3
		c2.1,0.8,3.1,1.8,3.1,3.6c0,1.9-1.4,3.5-4.2,3.5c-1.2,0-2.4-0.3-3.1-0.8L113.4,220.8z"/>
	<path class="st1" d="M128.8,217h-4.7v4.4h5.3v1.3h-6.8v-12.1h6.6v1.3h-5v3.8h4.7V217z"/>
	<path class="st1" d="M141.6,217.4c-0.1-1.7-0.2-3.7-0.2-5.2h-0.1c-0.4,1.4-0.9,2.9-1.5,4.6l-2.1,5.9h-1.2l-2-5.8
		c-0.6-1.7-1.1-3.3-1.4-4.7h0c0,1.5-0.1,3.5-0.2,5.4l-0.3,5.2H131l0.8-12.1h2l2.1,5.9c0.5,1.5,0.9,2.8,1.2,4.1h0.1
		c0.3-1.2,0.7-2.6,1.3-4.1l2.2-5.9h2l0.8,12.1h-1.5L141.6,217.4z"/>
	<path class="st1" d="M144.4,223.4l5-13.1h1.2l-5,13.1H144.4z"/>
	<path class="st1" d="M152,210.7c0.8-0.1,1.7-0.2,3-0.2c1.5,0,2.7,0.4,3.4,1c0.7,0.6,1.1,1.5,1.1,2.5c0,1.1-0.3,2-0.9,2.6
		c-0.8,0.9-2.2,1.3-3.7,1.3c-0.5,0-0.9,0-1.3-0.1v4.9H152V210.7z M153.6,216.6c0.3,0.1,0.8,0.1,1.3,0.1c1.9,0,3-0.9,3-2.6
		c0-1.6-1.1-2.4-2.9-2.4c-0.7,0-1.2,0.1-1.5,0.1V216.6z"/>
	<path class="st1" d="M162,218.6c0,2.1,1.4,3,3,3c1.1,0,1.8-0.2,2.4-0.5l0.3,1.1c-0.6,0.3-1.5,0.5-2.9,0.5c-2.7,0-4.3-1.8-4.3-4.4
		s1.5-4.7,4.1-4.7c2.8,0,3.6,2.5,3.6,4.1c0,0.3,0,0.6-0.1,0.7H162z M166.6,217.5c0-1-0.4-2.6-2.2-2.6c-1.6,0-2.3,1.5-2.4,2.6H166.6z
		"/>
	<path class="st1" d="M170.1,216.7c0-1,0-1.9-0.1-2.7h1.4l0.1,1.7h0.1c0.4-1.2,1.4-1.9,2.4-1.9c0.2,0,0.3,0,0.5,0.1v1.5
		c-0.2,0-0.3-0.1-0.5-0.1c-1.1,0-1.9,0.8-2.1,2c0,0.2-0.1,0.5-0.1,0.7v4.6h-1.6V216.7z"/>
	<path class="st1" d="M176.7,222.7v-7.5h-1.2V214h1.2v-0.4c0-1.2,0.3-2.3,1-3c0.6-0.6,1.4-0.8,2.1-0.8c0.6,0,1,0.1,1.4,0.3l-0.2,1.2
		c-0.2-0.1-0.6-0.2-1-0.2c-1.4,0-1.7,1.2-1.7,2.5v0.5h2.1v1.2h-2.1v7.5H176.7z"/>
	<path class="st1" d="M189.4,218.3c0,3.2-2.2,4.6-4.3,4.6c-2.4,0-4.2-1.7-4.2-4.5c0-2.9,1.9-4.6,4.3-4.6
		C187.7,213.8,189.4,215.6,189.4,218.3z M182.5,218.4c0,1.9,1.1,3.3,2.6,3.3c1.5,0,2.6-1.4,2.6-3.4c0-1.5-0.7-3.3-2.6-3.3
		C183.3,215,182.5,216.7,182.5,218.4z"/>
	<path class="st1" d="M191.4,216.7c0-1,0-1.9-0.1-2.7h1.4l0.1,1.7h0.1c0.4-1.2,1.4-1.9,2.4-1.9c0.2,0,0.3,0,0.5,0.1v1.5
		c-0.2,0-0.3-0.1-0.5-0.1c-1.1,0-1.9,0.8-2.1,2c0,0.2-0.1,0.5-0.1,0.7v4.6h-1.6V216.7z"/>
	<path class="st1" d="M197.4,216.4c0-0.9,0-1.6-0.1-2.4h1.4l0.1,1.4h0.1c0.5-0.8,1.3-1.6,2.7-1.6c1.2,0,2.1,0.7,2.5,1.7h0
		c0.3-0.5,0.6-0.9,1-1.1c0.5-0.4,1.1-0.6,1.9-0.6c1.2,0,2.9,0.8,2.9,3.8v5.1h-1.5v-4.9c0-1.7-0.6-2.7-1.9-2.7
		c-0.9,0-1.6,0.7-1.9,1.4c-0.1,0.2-0.1,0.5-0.1,0.8v5.4h-1.5v-5.2c0-1.4-0.6-2.4-1.8-2.4c-1,0-1.7,0.8-2,1.6
		c-0.1,0.2-0.1,0.5-0.1,0.8v5.3h-1.5V216.4z"/>
	<path class="st1" d="M217.2,222.7l-0.1-1.1H217c-0.5,0.7-1.4,1.3-2.7,1.3c-1.8,0-2.7-1.2-2.7-2.5c0-2.1,1.9-3.3,5.2-3.2V217
		c0-0.7-0.2-2-2-2c-0.8,0-1.7,0.3-2.3,0.6l-0.4-1c0.7-0.5,1.8-0.8,2.9-0.8c2.7,0,3.3,1.8,3.3,3.6v3.3c0,0.8,0,1.5,0.1,2.1H217.2z
		 M217,218.3c-1.7,0-3.7,0.3-3.7,2c0,1,0.7,1.5,1.5,1.5c1.1,0,1.9-0.7,2.1-1.5c0.1-0.2,0.1-0.3,0.1-0.5V218.3z"/>
	<path class="st1" d="M221.1,216.4c0-0.9,0-1.6-0.1-2.4h1.4l0.1,1.4h0c0.4-0.8,1.4-1.6,2.9-1.6c1.2,0,3.1,0.7,3.1,3.7v5.2h-1.6v-5
		c0-1.4-0.5-2.6-2-2.6c-1,0-1.9,0.7-2.1,1.6c-0.1,0.2-0.1,0.5-0.1,0.7v5.2h-1.6V216.4z"/>
	<path class="st1" d="M237.3,222.4c-0.4,0.2-1.3,0.5-2.5,0.5c-2.6,0-4.3-1.8-4.3-4.4c0-2.7,1.8-4.6,4.7-4.6c0.9,0,1.8,0.2,2.2,0.5
		l-0.4,1.2c-0.4-0.2-1-0.4-1.8-0.4c-2,0-3.1,1.5-3.1,3.3c0,2,1.3,3.3,3,3.3c0.9,0,1.5-0.2,1.9-0.4L237.3,222.4z"/>
	<path class="st1" d="M239.9,218.6c0,2.1,1.4,3,3,3c1.1,0,1.8-0.2,2.4-0.5l0.3,1.1c-0.6,0.3-1.5,0.5-2.9,0.5c-2.7,0-4.3-1.8-4.3-4.4
		s1.5-4.7,4.1-4.7c2.8,0,3.6,2.5,3.6,4.1c0,0.3,0,0.6-0.1,0.7H239.9z M244.5,217.5c0-1-0.4-2.6-2.2-2.6c-1.6,0-2.3,1.5-2.4,2.6
		H244.5z"/>
	<path class="st1" d="M113.6,232.2h1.6V243h5.2v1.3h-6.8V232.2z"/>
	<path class="st1" d="M129.7,239.9c0,3.2-2.2,4.6-4.3,4.6c-2.4,0-4.2-1.7-4.2-4.5c0-2.9,1.9-4.6,4.3-4.6
		C128,235.4,129.7,237.2,129.7,239.9z M122.8,240c0,1.9,1.1,3.3,2.6,3.3c1.5,0,2.6-1.4,2.6-3.4c0-1.5-0.7-3.3-2.6-3.3
		C123.6,236.6,122.8,238.3,122.8,240z"/>
	<path class="st1" d="M132.2,235.6l1.9,5.1c0.2,0.6,0.4,1.3,0.6,1.8h0c0.2-0.5,0.3-1.2,0.6-1.8l1.7-5.1h1.7l-2.4,6.2
		c-1.1,3-1.9,4.5-3,5.5c-0.8,0.7-1.5,1-1.9,1l-0.4-1.3c0.4-0.1,0.9-0.4,1.4-0.8c0.4-0.3,1-1,1.3-1.8c0.1-0.2,0.1-0.3,0.1-0.4
		c0-0.1,0-0.2-0.1-0.4l-3.2-8H132.2z"/>
	<path class="st1" d="M144.8,244.3l-0.1-1.1h-0.1c-0.5,0.7-1.4,1.3-2.7,1.3c-1.8,0-2.7-1.2-2.7-2.5c0-2.1,1.9-3.3,5.2-3.2v-0.2
		c0-0.7-0.2-2-2-2c-0.8,0-1.7,0.3-2.3,0.6l-0.4-1c0.7-0.5,1.8-0.8,2.9-0.8c2.7,0,3.3,1.8,3.3,3.6v3.3c0,0.8,0,1.5,0.1,2.1H144.8z
		 M144.6,239.9c-1.7,0-3.7,0.3-3.7,2c0,1,0.7,1.5,1.5,1.5c1.1,0,1.9-0.7,2.1-1.5c0.1-0.2,0.1-0.3,0.1-0.5V239.9z"/>
	<path class="st1" d="M148.7,231.5h1.6v12.8h-1.6V231.5z"/>
	<path class="st1" d="M154.8,233.1v2.5h2.3v1.2h-2.3v4.7c0,1.1,0.3,1.7,1.2,1.7c0.4,0,0.7-0.1,0.9-0.1l0.1,1.2
		c-0.3,0.1-0.8,0.2-1.4,0.2c-0.7,0-1.3-0.2-1.7-0.7c-0.5-0.5-0.6-1.2-0.6-2.3v-4.8h-1.4v-1.2h1.4v-2.1L154.8,233.1z"/>
	<path class="st1" d="M159.6,235.6l1.9,5.1c0.2,0.6,0.4,1.3,0.6,1.8h0c0.2-0.5,0.3-1.2,0.6-1.8l1.7-5.1h1.7l-2.4,6.2
		c-1.1,3-1.9,4.5-3,5.5c-0.8,0.7-1.5,1-1.9,1l-0.4-1.3c0.4-0.1,0.9-0.4,1.4-0.8c0.4-0.3,1-1,1.3-1.8c0.1-0.2,0.1-0.3,0.1-0.4
		c0-0.1,0-0.2-0.1-0.4l-3.2-8H159.6z"/>
	<path class="st1" d="M166.2,245l5-13.1h1.2l-5,13.1H166.2z"/>
	<path class="st1" d="M175.3,232.2v12.1h-1.6v-12.1H175.3z"/>
	<path class="st1" d="M178.2,238c0-0.9,0-1.6-0.1-2.4h1.4l0.1,1.4h0c0.4-0.8,1.4-1.6,2.9-1.6c1.2,0,3.1,0.7,3.1,3.7v5.2H184v-5
		c0-1.4-0.5-2.6-2-2.6c-1,0-1.9,0.7-2.1,1.6c-0.1,0.2-0.1,0.5-0.1,0.7v5.2h-1.6V238z"/>
	<path class="st1" d="M194.4,244c-0.4,0.2-1.3,0.5-2.5,0.5c-2.6,0-4.3-1.8-4.3-4.4c0-2.7,1.8-4.6,4.7-4.6c0.9,0,1.8,0.2,2.2,0.5
		l-0.4,1.2c-0.4-0.2-1-0.4-1.8-0.4c-2,0-3.1,1.5-3.1,3.3c0,2,1.3,3.3,3,3.3c0.9,0,1.5-0.2,1.9-0.4L194.4,244z"/>
	<path class="st1" d="M197,240.2c0,2.1,1.4,3,3,3c1.1,0,1.8-0.2,2.4-0.5l0.3,1.1c-0.6,0.3-1.5,0.5-2.9,0.5c-2.7,0-4.3-1.8-4.3-4.4
		s1.5-4.7,4.1-4.7c2.8,0,3.6,2.5,3.6,4.1c0,0.3,0,0.6-0.1,0.7H197z M201.6,239.1c0-1-0.4-2.6-2.2-2.6c-1.6,0-2.3,1.5-2.4,2.6H201.6z
		"/>
	<path class="st1" d="M205.1,238c0-0.9,0-1.6-0.1-2.4h1.4l0.1,1.4h0c0.4-0.8,1.4-1.6,2.9-1.6c1.2,0,3.1,0.7,3.1,3.7v5.2H211v-5
		c0-1.4-0.5-2.6-2-2.6c-1,0-1.9,0.7-2.1,1.6c-0.1,0.2-0.1,0.5-0.1,0.7v5.2h-1.6V238z"/>
	<path class="st1" d="M217,233.1v2.5h2.3v1.2H217v4.7c0,1.1,0.3,1.7,1.2,1.7c0.4,0,0.7-0.1,0.9-0.1l0.1,1.2
		c-0.3,0.1-0.8,0.2-1.4,0.2c-0.7,0-1.3-0.2-1.7-0.7c-0.5-0.5-0.6-1.2-0.6-2.3v-4.8h-1.4v-1.2h1.4v-2.1L217,233.1z"/>
	<path class="st1" d="M222.8,233.1c0,0.5-0.4,1-1,1c-0.6,0-1-0.4-1-1c0-0.6,0.4-1,1-1C222.4,232.2,222.8,232.6,222.8,233.1z
		 M221,244.3v-8.7h1.6v8.7H221z"/>
	<path class="st1" d="M225.8,235.6l1.7,4.9c0.3,0.8,0.5,1.5,0.7,2.2h0.1c0.2-0.7,0.5-1.4,0.7-2.2l1.7-4.9h1.7l-3.4,8.7h-1.5
		l-3.3-8.7H225.8z"/>
	<path class="st1" d="M234.6,240.2c0,2.1,1.4,3,3,3c1.1,0,1.8-0.2,2.4-0.5l0.3,1.1c-0.6,0.3-1.5,0.5-2.9,0.5c-2.7,0-4.3-1.8-4.3-4.4
		s1.5-4.7,4.1-4.7c2.8,0,3.6,2.5,3.6,4.1c0,0.3,0,0.6-0.1,0.7H234.6z M239.2,239.1c0-1-0.4-2.6-2.2-2.6c-1.6,0-2.3,1.5-2.4,2.6
		H239.2z"/>
	<path class="st1" d="M113.6,253.9c0.8-0.1,1.7-0.2,3-0.2c1.5,0,2.7,0.4,3.4,1c0.7,0.6,1.1,1.5,1.1,2.5c0,1.1-0.3,2-0.9,2.6
		c-0.8,0.9-2.2,1.3-3.7,1.3c-0.5,0-0.9,0-1.3-0.1v4.9h-1.6V253.9z M115.2,259.8c0.3,0.1,0.8,0.1,1.3,0.1c1.9,0,3-0.9,3-2.6
		c0-1.6-1.1-2.4-2.9-2.4c-0.7,0-1.2,0.1-1.5,0.1V259.8z"/>
	<path class="st1" d="M122.9,259.9c0-1,0-1.9-0.1-2.7h1.4l0.1,1.7h0.1c0.4-1.2,1.3-1.9,2.4-1.9c0.2,0,0.3,0,0.5,0.1v1.5
		c-0.2,0-0.3-0.1-0.5-0.1c-1.1,0-1.9,0.8-2.1,2c0,0.2-0.1,0.5-0.1,0.7v4.6h-1.6V259.9z"/>
	<path class="st1" d="M136.5,261.5c0,3.2-2.2,4.6-4.3,4.6c-2.4,0-4.2-1.7-4.2-4.5c0-2.9,1.9-4.6,4.3-4.6
		C134.8,257,136.5,258.8,136.5,261.5z M129.5,261.6c0,1.9,1.1,3.3,2.6,3.3c1.5,0,2.6-1.4,2.6-3.4c0-1.5-0.7-3.3-2.6-3.3
		C130.4,258.2,129.5,259.9,129.5,261.6z"/>
	<path class="st1" d="M146,257.2c0,0.6-0.1,1.3-0.1,2.4v5.1c0,2-0.4,3.2-1.2,4c-0.8,0.8-2.1,1-3.2,1c-1,0-2.2-0.3-2.9-0.7l0.4-1.2
		c0.6,0.4,1.5,0.7,2.6,0.7c1.6,0,2.8-0.8,2.8-3v-1h0c-0.5,0.8-1.4,1.5-2.8,1.5c-2.2,0-3.7-1.8-3.7-4.2c0-3,1.9-4.6,3.9-4.6
		c1.5,0,2.3,0.8,2.7,1.5h0l0.1-1.3H146z M144.3,260.6c0-0.3,0-0.5-0.1-0.7c-0.3-0.9-1.1-1.7-2.2-1.7c-1.5,0-2.6,1.3-2.6,3.3
		c0,1.7,0.9,3.1,2.6,3.1c1,0,1.9-0.6,2.2-1.6c0.1-0.3,0.1-0.6,0.1-0.8V260.6z"/>
	<path class="st1" d="M148.4,259.9c0-1,0-1.9-0.1-2.7h1.4l0.1,1.7h0.1c0.4-1.2,1.4-1.9,2.4-1.9c0.2,0,0.3,0,0.4,0.1v1.5
		c-0.2,0-0.3-0.1-0.5-0.1c-1.1,0-1.9,0.8-2.1,2c0,0.2-0.1,0.5-0.1,0.7v4.6h-1.6V259.9z"/>
	<path class="st1" d="M159,265.9l-0.1-1.1h-0.1c-0.5,0.7-1.4,1.3-2.7,1.3c-1.8,0-2.7-1.2-2.7-2.5c0-2.1,1.9-3.3,5.2-3.2v-0.2
		c0-0.7-0.2-2-2-2c-0.8,0-1.7,0.3-2.3,0.6l-0.4-1c0.7-0.5,1.8-0.8,2.9-0.8c2.7,0,3.3,1.8,3.3,3.6v3.3c0,0.8,0,1.5,0.1,2.1H159z
		 M158.8,261.5c-1.7,0-3.7,0.3-3.7,2c0,1,0.7,1.5,1.5,1.5c1.1,0,1.9-0.7,2.1-1.5c0.1-0.2,0.1-0.3,0.1-0.5V261.5z"/>
	<path class="st1" d="M162.9,259.6c0-0.9,0-1.6-0.1-2.4h1.4l0.1,1.4h0.1c0.5-0.8,1.3-1.6,2.7-1.6c1.2,0,2.1,0.7,2.5,1.7h0
		c0.3-0.5,0.6-0.9,1-1.1c0.5-0.4,1.1-0.6,1.9-0.6c1.2,0,2.9,0.8,2.9,3.8v5.1h-1.5V261c0-1.7-0.6-2.7-1.9-2.7c-0.9,0-1.6,0.7-1.9,1.4
		c-0.1,0.2-0.1,0.5-0.1,0.8v5.4h-1.5v-5.2c0-1.4-0.6-2.4-1.8-2.4c-1,0-1.7,0.8-2,1.6c-0.1,0.2-0.1,0.5-0.1,0.8v5.3h-1.5V259.6z"/>
	<path class="st1" d="M177.7,264.3c0.5,0.3,1.3,0.6,2.1,0.6c1.2,0,1.7-0.6,1.7-1.3c0-0.8-0.5-1.2-1.6-1.6c-1.6-0.6-2.3-1.4-2.3-2.5
		c0-1.4,1.1-2.6,3-2.6c0.9,0,1.7,0.3,2.1,0.5l-0.4,1.2c-0.3-0.2-1-0.5-1.8-0.5c-0.9,0-1.5,0.5-1.5,1.2c0,0.7,0.5,1,1.7,1.5
		c1.5,0.6,2.3,1.3,2.3,2.6c0,1.5-1.2,2.6-3.3,2.6c-1,0-1.8-0.2-2.4-0.6L177.7,264.3z"/>
</g>
<line class="st2" x1="99" y1="182.7" x2="99" y2="278.4"/>
<g>
	<path class="st3" d="M189.8,77.4c-3.6,0-6.5-2.9-6.5-6.5l0,0c0-3.6,2.9-6.5,6.5-6.5h54.9c3.6,0,6.5,2.9,6.5,6.5l0,0
		c0,3.6-2.9,6.5-6.5,6.5C244.6,77.4,189.8,77.4,189.8,77.4z"/>
	<path class="st3" d="M153.4,77.4c3.6,0,6.5-2.9,6.5-6.5l0,0c0-3.6-2.9-6.5-6.5-6.5H98.6c-3.6,0-6.5,2.9-6.5,6.5l0,0
		c0,3.6,2.9,6.5,6.5,6.5C98.6,77.4,153.4,77.4,153.4,77.4z"/>
	<g>
		<path class="st4" d="M186,87.5h-28.7c-4.1,0-7.8-2.2-9.8-5.5h-13.5c2.7,10.4,12.1,18,23.3,18H186c11.2,0,20.6-7.7,23.3-18h-13.5
			C193.7,85.2,190.1,87.5,186,87.5z"/>
		<path class="st4" d="M157.2,54.2H186c4.1,0,7.8,2.2,9.8,5.5h13.5c-2.7-10.4-12.1-18-23.3-18h-28.7c-11.2,0-20.6,7.7-23.3,18h13.5
			C149.4,56.5,153.1,54.2,157.2,54.2z"/>
	</g>
</g>
</svg>
