<?xml version="1.0" encoding="utf-8"?>
<!-- Generator: Adobe Illustrator 23.0.4, SVG Export Plug-In . SVG Version: 6.00 Build 0)  -->
<svg version="1.1" id="Layer_1" xmlns="http://www.w3.org/2000/svg" xmlns:xlink="http://www.w3.org/1999/xlink" x="0px" y="0px"
	 viewBox="0 0 339 392.3" style="enable-background:new 0 0 339 392.3;" xml:space="preserve">
<style type="text/css">
	.st0{fill:#FA7943;}
	.st1{fill:#F26E36;stroke:#FFFFFF;stroke-width:4;stroke-miterlimit:10;}
	.st2{fill:#CCCBCB;stroke:#FFFFFF;stroke-width:4;stroke-miterlimit:10;}
	.st3{fill:#848689;stroke:#FFFFFF;stroke-width:4;stroke-miterlimit:10;}
	.st4{fill:#848689;stroke:#FFFFFF;stroke-width:3;stroke-miterlimit:10;}
	.st5{fill:#CCCBCB;stroke:#FFFFFF;stroke-width:3;stroke-miterlimit:10;}
	.st6{fill:#F26E36;stroke:#FFFFFF;stroke-width:3;stroke-miterlimit:10;}
	.st7{fill:#F26E36;}
	.st8{fill:#CCCBCB;}
	.st9{fill:#848689;}
	.st10{fill:#FFFFFF;}
	.st11{stroke:#FFFFFF;stroke-miterlimit:10;}
</style>
<circle class="st0" cx="169.5" cy="222.8" r="169.5"/>
<g>
	
		<rect x="141.2" y="39.3" transform="matrix(0.5364 -0.844 0.844 0.5364 36.2494 155.9524)" class="st1" width="37.8" height="11.3"/>
	
		<rect x="187.3" y="43.1" transform="matrix(0.8113 -0.5846 0.5846 0.8113 0.1705 124.5104)" class="st2" width="11.3" height="37.8"/>
	
		<rect x="159.3" y="58.9" transform="matrix(1.764137e-03 -1 1 1.764137e-03 86.8123 242.5706)" class="st3" width="11.3" height="37.8"/>
	<circle class="st4" cx="204.2" cy="77.7" r="23.3"/>
	<circle class="st5" cx="170.1" cy="29.1" r="23.3"/>
	<circle class="st6" cx="138.4" cy="77.7" r="23.3"/>
	<circle class="st7" cx="170.1" cy="29.1" r="10.7"/>
	<circle class="st8" cx="204.2" cy="77.7" r="10.7"/>
	<circle class="st9" cx="138.4" cy="77.7" r="10.7"/>
	
		<rect x="141.2" y="39.3" transform="matrix(0.5364 -0.844 0.844 0.5364 36.2494 155.9524)" class="st7" width="37.8" height="11.3"/>
	
		<rect x="187.3" y="43.1" transform="matrix(0.8113 -0.5846 0.5846 0.8113 0.1705 124.5104)" class="st8" width="11.3" height="37.8"/>
	
		<rect x="159.3" y="58.9" transform="matrix(1.764137e-03 -1 1 1.764137e-03 86.8123 242.5706)" class="st9" width="11.3" height="37.8"/>
</g>
<g>
	<path class="st10" d="M114.1,119.5h12.7v3.3h-9v3.4h7.9v3.3h-7.9v3.5h9.1v3.3h-12.8V119.5z"/>
	<path class="st10" d="M130.2,119.5h3.4l7.9,10.3v-10.3h3.6v16.8h-3.1l-8.1-10.7v10.7h-3.6V119.5z"/>
	<path class="st10" d="M148.4,128L148.4,128c0-4.8,3.7-8.7,8.8-8.7c3,0,4.8,0.8,6.6,2.3l-2.3,2.8c-1.3-1.1-2.4-1.7-4.4-1.7
		c-2.7,0-4.8,2.4-4.8,5.2v0c0,3.1,2.1,5.3,5.1,5.3c1.3,0,2.5-0.3,3.5-1v-2.4h-3.7v-3.2h7.3v7.3c-1.7,1.5-4.1,2.7-7.2,2.7
		C152,136.6,148.4,132.9,148.4,128z"/>
	<path class="st10" d="M173.7,119.4h3.4l7.2,16.9h-3.9l-1.5-3.8h-7.1l-1.5,3.8h-3.8L173.7,119.4z M177.6,129.3l-2.2-5.4l-2.2,5.4
		H177.6z"/>
	<path class="st10" d="M185.1,128L185.1,128c0-4.8,3.7-8.7,8.8-8.7c3,0,4.8,0.8,6.6,2.3l-2.3,2.8c-1.3-1.1-2.4-1.7-4.4-1.7
		c-2.7,0-4.8,2.4-4.8,5.2v0c0,3.1,2.1,5.3,5.1,5.3c1.3,0,2.5-0.3,3.5-1v-2.4h-3.7v-3.2h7.3v7.3c-1.7,1.5-4.1,2.7-7.2,2.7
		C188.7,136.6,185.1,132.9,185.1,128z"/>
	<path class="st10" d="M204.6,119.5h12.7v3.3h-9v3.4h7.9v3.3h-7.9v3.5h9.1v3.3h-12.8V119.5z"/>
</g>
<g>
	<path class="st10" d="M122.1,166.5c-0.6,0.3-1.7,0.6-3.2,0.6c-3.4,0-6-2.2-6-6.1c0-3.8,2.6-6.4,6.3-6.4c1.5,0,2.5,0.3,2.9,0.5
		l-0.4,1.3c-0.6-0.3-1.4-0.5-2.4-0.5c-2.8,0-4.7,1.8-4.7,5c0,3,1.7,4.9,4.7,4.9c1,0,1.9-0.2,2.6-0.5L122.1,166.5z"/>
	<path class="st10" d="M131.1,164.5c0,0.9,0,1.7,0.1,2.4h-1.4l-0.1-1.4h0c-0.4,0.7-1.3,1.6-2.9,1.6c-1.4,0-3-0.8-3-3.8v-5.1h1.6v4.8
		c0,1.7,0.5,2.8,1.9,2.8c1.1,0,1.8-0.7,2.1-1.4c0.1-0.2,0.1-0.5,0.1-0.8v-5.3h1.6V164.5z"/>
	<path class="st10" d="M133.5,165.3c0.5,0.3,1.3,0.6,2.1,0.6c1.2,0,1.7-0.6,1.7-1.3c0-0.8-0.5-1.2-1.6-1.6c-1.6-0.6-2.3-1.4-2.3-2.5
		c0-1.4,1.1-2.6,3-2.6c0.9,0,1.7,0.3,2.1,0.5l-0.4,1.2c-0.3-0.2-1-0.5-1.8-0.5c-0.9,0-1.5,0.5-1.5,1.2c0,0.7,0.5,1,1.7,1.5
		c1.5,0.6,2.3,1.3,2.3,2.6c0,1.5-1.2,2.6-3.3,2.6c-1,0-1.8-0.2-2.4-0.6L133.5,165.3z"/>
	<path class="st10" d="M142.8,155.7v2.5h2.3v1.2h-2.3v4.7c0,1.1,0.3,1.7,1.2,1.7c0.4,0,0.7-0.1,0.9-0.1l0.1,1.2
		c-0.3,0.1-0.8,0.2-1.4,0.2c-0.7,0-1.3-0.2-1.7-0.7c-0.5-0.5-0.6-1.2-0.6-2.3v-4.8h-1.4v-1.2h1.4v-2.1L142.8,155.7z"/>
	<path class="st10" d="M154.6,162.5c0,3.2-2.2,4.6-4.3,4.6c-2.4,0-4.2-1.7-4.2-4.5c0-2.9,1.9-4.6,4.3-4.6
		C152.9,158,154.6,159.8,154.6,162.5z M147.7,162.6c0,1.9,1.1,3.3,2.6,3.3c1.5,0,2.6-1.4,2.6-3.4c0-1.5-0.7-3.3-2.6-3.3
		C148.5,159.2,147.7,160.9,147.7,162.6z"/>
	<path class="st10" d="M156.6,160.6c0-0.9,0-1.6-0.1-2.4h1.4l0.1,1.4h0.1c0.5-0.8,1.3-1.6,2.7-1.6c1.2,0,2.1,0.7,2.5,1.7h0
		c0.3-0.5,0.6-0.9,1-1.1c0.5-0.4,1.1-0.6,1.9-0.6c1.2,0,2.9,0.8,2.9,3.8v5.1h-1.5V162c0-1.7-0.6-2.7-1.9-2.7c-0.9,0-1.6,0.7-1.9,1.4
		c-0.1,0.2-0.1,0.5-0.1,0.8v5.4H162v-5.2c0-1.4-0.6-2.4-1.8-2.4c-1,0-1.7,0.8-2,1.6c-0.1,0.2-0.1,0.5-0.1,0.8v5.3h-1.5V160.6z"/>
	<path class="st10" d="M172.5,162.8c0,2.1,1.4,3,3,3c1.1,0,1.8-0.2,2.4-0.5l0.3,1.1c-0.6,0.3-1.5,0.5-2.9,0.5
		c-2.7,0-4.3-1.8-4.3-4.4s1.5-4.7,4.1-4.7c2.8,0,3.6,2.5,3.6,4.1c0,0.3,0,0.6-0.1,0.7H172.5z M177.1,161.7c0-1-0.4-2.6-2.2-2.6
		c-1.6,0-2.3,1.5-2.4,2.6H177.1z"/>
	<path class="st10" d="M180.6,160.9c0-1,0-1.9-0.1-2.7h1.4l0.1,1.7h0.1c0.4-1.2,1.4-1.9,2.4-1.9c0.2,0,0.3,0,0.4,0.1v1.5
		c-0.2,0-0.3-0.1-0.5-0.1c-1.1,0-1.9,0.8-2.1,2c0,0.2-0.1,0.5-0.1,0.7v4.6h-1.6V160.9z"/>
	<path class="st10" d="M115.2,176.4v7.2c0,2.7,1.2,3.9,2.8,3.9c1.8,0,3-1.2,3-3.9v-7.2h1.6v7.1c0,3.7-2,5.3-4.6,5.3
		c-2.5,0-4.4-1.4-4.4-5.2v-7.1H115.2z"/>
	<path class="st10" d="M125.2,182.2c0-0.9,0-1.6-0.1-2.4h1.4l0.1,1.4h0c0.4-0.8,1.4-1.6,2.9-1.6c1.2,0,3.1,0.7,3.1,3.7v5.2h-1.6v-5
		c0-1.4-0.5-2.6-2-2.6c-1,0-1.9,0.7-2.1,1.6c-0.1,0.2-0.1,0.5-0.1,0.7v5.2h-1.6V182.2z"/>
	<path class="st10" d="M142.7,175.7v10.5c0,0.8,0,1.7,0.1,2.3h-1.4l-0.1-1.5h0c-0.5,1-1.5,1.7-3,1.7c-2.1,0-3.7-1.8-3.7-4.4
		c0-2.9,1.8-4.7,3.9-4.7c1.3,0,2.2,0.6,2.6,1.3h0v-5.2H142.7z M141.2,183.3c0-0.2,0-0.5-0.1-0.7c-0.2-1-1.1-1.8-2.3-1.8
		c-1.6,0-2.6,1.4-2.6,3.4c0,1.8,0.9,3.2,2.6,3.2c1.1,0,2-0.7,2.3-1.9c0.1-0.2,0.1-0.4,0.1-0.7V183.3z"/>
	<path class="st10" d="M146.2,184.4c0,2.1,1.4,3,3,3c1.1,0,1.8-0.2,2.4-0.5l0.3,1.1c-0.6,0.3-1.5,0.5-2.9,0.5
		c-2.7,0-4.3-1.8-4.3-4.4c0-2.6,1.5-4.7,4.1-4.7c2.8,0,3.6,2.5,3.6,4.1c0,0.3,0,0.6-0.1,0.7H146.2z M150.9,183.3
		c0-1-0.4-2.6-2.2-2.6c-1.6,0-2.3,1.5-2.4,2.6H150.9z"/>
	<path class="st10" d="M154.4,182.5c0-1,0-1.9-0.1-2.7h1.4l0.1,1.7h0.1c0.4-1.2,1.4-1.9,2.4-1.9c0.2,0,0.3,0,0.4,0.1v1.5
		c-0.2,0-0.3-0.1-0.5-0.1c-1.1,0-1.9,0.8-2.1,2c0,0.2-0.1,0.5-0.1,0.7v4.6h-1.6V182.5z"/>
	<path class="st10" d="M160.1,186.9c0.5,0.3,1.3,0.6,2.1,0.6c1.2,0,1.7-0.6,1.7-1.3c0-0.8-0.5-1.2-1.6-1.6c-1.6-0.6-2.3-1.4-2.3-2.5
		c0-1.4,1.1-2.6,3-2.6c0.9,0,1.7,0.3,2.1,0.5l-0.4,1.2c-0.3-0.2-1-0.5-1.8-0.5c-0.9,0-1.5,0.5-1.5,1.2c0,0.7,0.5,1,1.7,1.5
		c1.5,0.6,2.3,1.3,2.3,2.6c0,1.5-1.2,2.6-3.3,2.6c-1,0-1.8-0.2-2.4-0.6L160.1,186.9z"/>
	<path class="st10" d="M169.3,177.3v2.5h2.3v1.2h-2.3v4.7c0,1.1,0.3,1.7,1.2,1.7c0.4,0,0.7-0.1,0.9-0.1l0.1,1.2
		c-0.3,0.1-0.8,0.2-1.4,0.2c-0.7,0-1.3-0.2-1.7-0.7c-0.5-0.5-0.6-1.2-0.6-2.3V181h-1.4v-1.2h1.4v-2.1L169.3,177.3z"/>
	<path class="st10" d="M178.2,188.5l-0.1-1.1H178c-0.5,0.7-1.4,1.3-2.7,1.3c-1.8,0-2.7-1.2-2.7-2.5c0-2.1,1.9-3.3,5.2-3.2v-0.2
		c0-0.7-0.2-2-2-2c-0.8,0-1.7,0.3-2.3,0.6l-0.4-1c0.7-0.5,1.8-0.8,2.9-0.8c2.7,0,3.3,1.8,3.3,3.6v3.3c0,0.8,0,1.5,0.1,2.1H178.2z
		 M177.9,184.1c-1.7,0-3.7,0.3-3.7,2c0,1,0.7,1.5,1.5,1.5c1.1,0,1.9-0.7,2.1-1.5c0.1-0.2,0.1-0.3,0.1-0.5V184.1z"/>
	<path class="st10" d="M182,182.2c0-0.9,0-1.6-0.1-2.4h1.4l0.1,1.4h0c0.4-0.8,1.4-1.6,2.9-1.6c1.2,0,3.1,0.7,3.1,3.7v5.2h-1.6v-5
		c0-1.4-0.5-2.6-2-2.6c-1,0-1.9,0.7-2.1,1.6c-0.1,0.2-0.1,0.5-0.1,0.7v5.2H182V182.2z"/>
	<path class="st10" d="M199.5,175.7v10.5c0,0.8,0,1.7,0.1,2.3h-1.4l-0.1-1.5h0c-0.5,1-1.5,1.7-3,1.7c-2.1,0-3.7-1.8-3.7-4.4
		c0-2.9,1.8-4.7,3.9-4.7c1.3,0,2.2,0.6,2.6,1.3h0v-5.2H199.5z M198,183.3c0-0.2,0-0.5-0.1-0.7c-0.2-1-1.1-1.8-2.3-1.8
		c-1.6,0-2.6,1.4-2.6,3.4c0,1.8,0.9,3.2,2.6,3.2c1.1,0,2-0.7,2.3-1.9c0.1-0.2,0.1-0.4,0.1-0.7V183.3z"/>
	<path class="st10" d="M203.9,177.3c0,0.5-0.4,1-1,1c-0.6,0-1-0.4-1-1c0-0.6,0.4-1,1-1C203.6,176.4,203.9,176.8,203.9,177.3z
		 M202.2,188.5v-8.7h1.6v8.7H202.2z"/>
	<path class="st10" d="M206.4,182.2c0-0.9,0-1.6-0.1-2.4h1.4l0.1,1.4h0c0.4-0.8,1.4-1.6,2.9-1.6c1.2,0,3.1,0.7,3.1,3.7v5.2h-1.6v-5
		c0-1.4-0.5-2.6-2-2.6c-1,0-1.9,0.7-2.1,1.6c-0.1,0.2-0.1,0.5-0.1,0.7v5.2h-1.6V182.2z"/>
	<path class="st10" d="M223.9,179.8c0,0.6-0.1,1.3-0.1,2.4v5.1c0,2-0.4,3.2-1.2,4c-0.8,0.8-2.1,1-3.2,1c-1,0-2.2-0.3-2.9-0.7
		l0.4-1.2c0.6,0.4,1.5,0.7,2.6,0.7c1.6,0,2.8-0.8,2.8-3v-1h0c-0.5,0.8-1.4,1.5-2.8,1.5c-2.2,0-3.7-1.8-3.7-4.2c0-3,1.9-4.6,3.9-4.6
		c1.5,0,2.3,0.8,2.7,1.5h0l0.1-1.3H223.9z M222.2,183.2c0-0.3,0-0.5-0.1-0.7c-0.3-0.9-1.1-1.7-2.2-1.7c-1.5,0-2.6,1.3-2.6,3.3
		c0,1.7,0.9,3.1,2.6,3.1c1,0,1.9-0.6,2.2-1.6c0.1-0.3,0.1-0.6,0.1-0.8V183.2z"/>
	<path class="st10" d="M122.1,209.7c-0.6,0.3-1.7,0.6-3.2,0.6c-3.4,0-6-2.2-6-6.1c0-3.8,2.6-6.4,6.3-6.4c1.5,0,2.5,0.3,2.9,0.5
		l-0.4,1.3c-0.6-0.3-1.4-0.5-2.4-0.5c-2.8,0-4.7,1.8-4.7,5c0,3,1.7,4.9,4.7,4.9c1,0,1.9-0.2,2.6-0.5L122.1,209.7z"/>
	<path class="st10" d="M124,204.1c0-1,0-1.9-0.1-2.7h1.4l0.1,1.7h0.1c0.4-1.2,1.4-1.9,2.4-1.9c0.2,0,0.3,0,0.5,0.1v1.5
		c-0.2,0-0.3-0.1-0.5-0.1c-1.1,0-1.9,0.8-2.1,2c0,0.2-0.1,0.5-0.1,0.7v4.6H124V204.1z"/>
	<path class="st10" d="M130.6,206c0,2.1,1.4,3,3,3c1.1,0,1.8-0.2,2.4-0.5l0.3,1.1c-0.6,0.3-1.5,0.5-2.9,0.5c-2.7,0-4.3-1.8-4.3-4.4
		c0-2.6,1.5-4.7,4.1-4.7c2.8,0,3.6,2.5,3.6,4.1c0,0.3,0,0.6-0.1,0.7H130.6z M135.2,204.9c0-1-0.4-2.6-2.2-2.6
		c-1.6,0-2.3,1.5-2.4,2.6H135.2z"/>
	<path class="st10" d="M143.5,210.1l-0.1-1.1h-0.1c-0.5,0.7-1.4,1.3-2.7,1.3c-1.8,0-2.7-1.2-2.7-2.5c0-2.1,1.9-3.3,5.2-3.2v-0.2
		c0-0.7-0.2-2-2-2c-0.8,0-1.7,0.3-2.3,0.6l-0.4-1c0.7-0.5,1.8-0.8,2.9-0.8c2.7,0,3.3,1.8,3.3,3.6v3.3c0,0.8,0,1.5,0.1,2.1H143.5z
		 M143.3,205.7c-1.7,0-3.7,0.3-3.7,2c0,1,0.7,1.5,1.5,1.5c1.1,0,1.9-0.7,2.1-1.5c0.1-0.2,0.1-0.3,0.1-0.5V205.7z"/>
	<path class="st10" d="M149.2,198.9v2.5h2.3v1.2h-2.3v4.7c0,1.1,0.3,1.7,1.2,1.7c0.4,0,0.7-0.1,0.9-0.1l0.1,1.2
		c-0.3,0.1-0.8,0.2-1.4,0.2c-0.7,0-1.3-0.2-1.7-0.7c-0.5-0.5-0.6-1.2-0.6-2.3v-4.8h-1.4v-1.2h1.4v-2.1L149.2,198.9z"/>
	<path class="st10" d="M155,198.9c0,0.5-0.4,1-1,1c-0.6,0-1-0.4-1-1c0-0.6,0.4-1,1-1C154.6,198,155,198.4,155,198.9z M153.2,210.1
		v-8.7h1.6v8.7H153.2z"/>
	<path class="st10" d="M158.1,201.4l1.7,4.9c0.3,0.8,0.5,1.5,0.7,2.2h0.1c0.2-0.7,0.5-1.4,0.7-2.2l1.7-4.9h1.7l-3.4,8.7h-1.5
		l-3.3-8.7H158.1z"/>
	<path class="st10" d="M166.8,206c0,2.1,1.4,3,3,3c1.1,0,1.8-0.2,2.4-0.5l0.3,1.1c-0.6,0.3-1.5,0.5-2.9,0.5c-2.7,0-4.3-1.8-4.3-4.4
		c0-2.6,1.5-4.7,4.1-4.7c2.8,0,3.6,2.5,3.6,4.1c0,0.3,0,0.6-0.1,0.7H166.8z M171.5,204.9c0-1-0.4-2.6-2.2-2.6
		c-1.6,0-2.3,1.5-2.4,2.6H171.5z"/>
	<path class="st10" d="M122.1,231.3c-0.6,0.3-1.7,0.6-3.2,0.6c-3.4,0-6-2.2-6-6.1c0-3.8,2.6-6.4,6.3-6.4c1.5,0,2.5,0.3,2.9,0.5
		l-0.4,1.3c-0.6-0.3-1.4-0.5-2.4-0.5c-2.8,0-4.7,1.8-4.7,5c0,3,1.7,4.9,4.7,4.9c1,0,1.9-0.2,2.6-0.5L122.1,231.3z"/>
	<path class="st10" d="M131.7,227.3c0,3.2-2.2,4.6-4.3,4.6c-2.4,0-4.2-1.7-4.2-4.5c0-2.9,1.9-4.6,4.3-4.6
		C130,222.8,131.7,224.6,131.7,227.3z M124.8,227.4c0,1.9,1.1,3.3,2.6,3.3c1.5,0,2.6-1.4,2.6-3.4c0-1.5-0.7-3.3-2.6-3.3
		C125.6,224,124.8,225.7,124.8,227.4z"/>
	<path class="st10" d="M133.7,225.4c0-0.9,0-1.6-0.1-2.4h1.4l0.1,1.4h0c0.4-0.8,1.4-1.6,2.9-1.6c1.2,0,3.1,0.7,3.1,3.7v5.2h-1.6v-5
		c0-1.4-0.5-2.6-2-2.6c-1,0-1.9,0.7-2.1,1.6c-0.1,0.2-0.1,0.5-0.1,0.7v5.2h-1.6V225.4z"/>
	<path class="st10" d="M145.5,220.5v2.5h2.3v1.2h-2.3v4.7c0,1.1,0.3,1.7,1.2,1.7c0.4,0,0.7-0.1,0.9-0.1l0.1,1.2
		c-0.3,0.1-0.8,0.2-1.4,0.2c-0.7,0-1.3-0.2-1.7-0.7c-0.5-0.5-0.6-1.2-0.6-2.3v-4.8h-1.4V223h1.4v-2.1L145.5,220.5z"/>
	<path class="st10" d="M150.4,227.6c0,2.1,1.4,3,3,3c1.1,0,1.8-0.2,2.4-0.5l0.3,1.1c-0.6,0.3-1.5,0.5-2.9,0.5
		c-2.7,0-4.3-1.8-4.3-4.4s1.5-4.7,4.1-4.7c2.8,0,3.6,2.5,3.6,4.1c0,0.3,0,0.6-0.1,0.7H150.4z M155,226.5c0-1-0.4-2.6-2.2-2.6
		c-1.6,0-2.3,1.5-2.4,2.6H155z"/>
	<path class="st10" d="M158.5,225.4c0-0.9,0-1.6-0.1-2.4h1.4l0.1,1.4h0c0.4-0.8,1.4-1.6,2.9-1.6c1.2,0,3.1,0.7,3.1,3.7v5.2h-1.6v-5
		c0-1.4-0.5-2.6-2-2.6c-1,0-1.9,0.7-2.1,1.6c-0.1,0.2-0.1,0.5-0.1,0.7v5.2h-1.6V225.4z"/>
	<path class="st10" d="M170.3,220.5v2.5h2.3v1.2h-2.3v4.7c0,1.1,0.3,1.7,1.2,1.7c0.4,0,0.7-0.1,0.9-0.1l0.1,1.2
		c-0.3,0.1-0.8,0.2-1.4,0.2c-0.7,0-1.3-0.2-1.7-0.7c-0.5-0.5-0.6-1.2-0.6-2.3v-4.8h-1.4V223h1.4v-2.1L170.3,220.5z"/>
	<path class="st10" d="M115,253.3l-3.1-12.1h1.7l1.4,6.1c0.4,1.5,0.7,3,0.9,4.2h0c0.2-1.2,0.6-2.6,1-4.2l1.6-6.1h1.6l1.5,6.2
		c0.3,1.4,0.7,2.9,0.8,4.2h0c0.3-1.3,0.6-2.7,1-4.2l1.6-6.1h1.6l-3.4,12.1h-1.6l-1.5-6.3c-0.4-1.5-0.6-2.7-0.8-4h0
		c-0.2,1.2-0.5,2.4-0.9,4l-1.7,6.3H115z"/>
	<path class="st10" d="M128.4,249.2c0,2.1,1.4,3,3,3c1.1,0,1.8-0.2,2.4-0.5l0.3,1.1c-0.6,0.3-1.5,0.5-2.9,0.5
		c-2.7,0-4.3-1.8-4.3-4.4s1.5-4.7,4.1-4.7c2.8,0,3.6,2.5,3.6,4.1c0,0.3,0,0.6-0.1,0.7H128.4z M133.1,248.1c0-1-0.4-2.6-2.2-2.6
		c-1.6,0-2.3,1.5-2.4,2.6H133.1z"/>
	<path class="st10" d="M136.5,253.3c0-0.6,0.1-1.5,0.1-2.3v-10.5h1.6v5.5h0c0.6-1,1.6-1.6,3-1.6c2.2,0,3.7,1.8,3.7,4.4
		c0,3.1-2,4.7-3.9,4.7c-1.3,0-2.3-0.5-2.9-1.6H138l-0.1,1.4H136.5z M138.1,249.8c0,0.2,0,0.4,0.1,0.6c0.3,1.1,1.2,1.9,2.4,1.9
		c1.7,0,2.6-1.4,2.6-3.3c0-1.7-0.9-3.2-2.6-3.2c-1.1,0-2.1,0.7-2.4,1.9c0,0.2-0.1,0.4-0.1,0.6V249.8z"/>
	<path class="st10" d="M155.5,253.3l-0.1-1.1h-0.1c-0.5,0.7-1.4,1.3-2.7,1.3c-1.8,0-2.7-1.2-2.7-2.5c0-2.1,1.9-3.3,5.2-3.2v-0.2
		c0-0.7-0.2-2-2-2c-0.8,0-1.7,0.3-2.3,0.6l-0.4-1c0.7-0.5,1.8-0.8,2.9-0.8c2.7,0,3.3,1.8,3.3,3.6v3.3c0,0.8,0,1.5,0.1,2.1H155.5z
		 M155.2,248.9c-1.7,0-3.7,0.3-3.7,2c0,1,0.7,1.5,1.5,1.5c1.1,0,1.9-0.7,2.1-1.5c0.1-0.2,0.1-0.3,0.1-0.5V248.9z"/>
	<path class="st10" d="M159.3,247c0-0.9,0-1.6-0.1-2.4h1.4l0.1,1.4h0c0.4-0.8,1.4-1.6,2.9-1.6c1.2,0,3.1,0.7,3.1,3.7v5.2h-1.6v-5
		c0-1.4-0.5-2.6-2-2.6c-1,0-1.9,0.7-2.1,1.6c-0.1,0.2-0.1,0.5-0.1,0.7v5.2h-1.6V247z"/>
	<path class="st10" d="M176.8,240.5v10.5c0,0.8,0,1.7,0.1,2.3h-1.4l-0.1-1.5h0c-0.5,1-1.5,1.7-3,1.7c-2.1,0-3.7-1.8-3.7-4.4
		c0-2.9,1.8-4.7,3.9-4.7c1.3,0,2.2,0.6,2.6,1.3h0v-5.2H176.8z M175.2,248.1c0-0.2,0-0.5-0.1-0.7c-0.2-1-1.1-1.8-2.3-1.8
		c-1.6,0-2.6,1.4-2.6,3.4c0,1.8,0.9,3.2,2.6,3.2c1.1,0,2-0.7,2.3-1.9c0.1-0.2,0.1-0.4,0.1-0.7V248.1z"/>
	<path class="st10" d="M183.1,251.4c0.7,0.4,1.7,0.8,2.8,0.8c1.6,0,2.5-0.8,2.5-2.1c0-1.1-0.6-1.8-2.3-2.4c-2-0.7-3.2-1.7-3.2-3.4
		c0-1.9,1.6-3.3,3.9-3.3c1.2,0,2.1,0.3,2.7,0.6l-0.4,1.3c-0.4-0.2-1.2-0.6-2.3-0.6c-1.7,0-2.3,1-2.3,1.8c0,1.1,0.7,1.7,2.4,2.3
		c2.1,0.8,3.1,1.8,3.1,3.6c0,1.9-1.4,3.5-4.2,3.5c-1.2,0-2.4-0.3-3.1-0.8L183.1,251.4z"/>
	<path class="st10" d="M198.5,247.6h-4.7v4.4h5.3v1.3h-6.8v-12.1h6.6v1.3h-5v3.8h4.7V247.6z"/>
	<path class="st10" d="M211.4,247.1c0,4.2-2.5,6.4-5.6,6.4c-3.2,0-5.5-2.5-5.5-6.2c0-3.9,2.4-6.4,5.6-6.4
		C209.3,241,211.4,243.5,211.4,247.1z M202,247.3c0,2.6,1.4,4.9,3.9,4.9c2.5,0,3.9-2.3,3.9-5c0-2.4-1.3-4.9-3.9-4.9
		C203.3,242.3,202,244.6,202,247.3z"/>
	<path class="st10" d="M113.4,273c0.7,0.4,1.7,0.8,2.8,0.8c1.6,0,2.5-0.8,2.5-2.1c0-1.1-0.6-1.8-2.3-2.4c-2-0.7-3.2-1.7-3.2-3.4
		c0-1.9,1.6-3.3,3.9-3.3c1.2,0,2.1,0.3,2.7,0.6l-0.4,1.3c-0.4-0.2-1.2-0.6-2.3-0.6c-1.7,0-2.3,1-2.3,1.8c0,1.1,0.7,1.7,2.4,2.3
		c2.1,0.8,3.1,1.8,3.1,3.6c0,1.9-1.4,3.5-4.2,3.5c-1.2,0-2.4-0.3-3.1-0.8L113.4,273z"/>
	<path class="st10" d="M130.4,270.5c0,3.2-2.2,4.6-4.3,4.6c-2.4,0-4.2-1.7-4.2-4.5c0-2.9,1.9-4.6,4.3-4.6
		C128.8,266,130.4,267.8,130.4,270.5z M123.5,270.6c0,1.9,1.1,3.3,2.6,3.3c1.5,0,2.6-1.4,2.6-3.4c0-1.5-0.7-3.3-2.6-3.3
		C124.3,267.2,123.5,268.9,123.5,270.6z"/>
	<path class="st10" d="M138.7,274.6c-0.4,0.2-1.3,0.5-2.5,0.5c-2.6,0-4.3-1.8-4.3-4.4c0-2.7,1.8-4.6,4.7-4.6c0.9,0,1.8,0.2,2.2,0.5
		l-0.4,1.2c-0.4-0.2-1-0.4-1.8-0.4c-2,0-3.1,1.5-3.1,3.3c0,2,1.3,3.3,3,3.3c0.9,0,1.5-0.2,1.9-0.4L138.7,274.6z"/>
	<path class="st10" d="M142.3,263.7c0,0.5-0.4,1-1,1c-0.6,0-1-0.4-1-1c0-0.6,0.4-1,1-1C141.9,262.8,142.3,263.2,142.3,263.7z
		 M140.5,274.9v-8.7h1.6v8.7H140.5z"/>
	<path class="st10" d="M149.5,274.9l-0.1-1.1h-0.1c-0.5,0.7-1.4,1.3-2.7,1.3c-1.8,0-2.7-1.2-2.7-2.5c0-2.1,1.9-3.3,5.2-3.2v-0.2
		c0-0.7-0.2-2-2-2c-0.8,0-1.7,0.3-2.3,0.6l-0.4-1c0.7-0.5,1.8-0.8,2.9-0.8c2.7,0,3.3,1.8,3.3,3.6v3.3c0,0.8,0,1.5,0.1,2.1H149.5z
		 M149.3,270.5c-1.7,0-3.7,0.3-3.7,2c0,1,0.7,1.5,1.5,1.5c1.1,0,1.9-0.7,2.1-1.5c0.1-0.2,0.1-0.3,0.1-0.5V270.5z"/>
	<path class="st10" d="M153.4,262.1h1.6v12.8h-1.6V262.1z"/>
	<path class="st10" d="M113.6,284.4h6.5v1.3h-5v4h4.6v1.3h-4.6v5.5h-1.6V284.4z"/>
	<path class="st10" d="M123.6,285.3c0,0.5-0.4,1-1,1c-0.6,0-1-0.4-1-1c0-0.6,0.4-1,1-1C123.3,284.4,123.6,284.8,123.6,285.3z
		 M121.9,296.5v-8.7h1.6v8.7H121.9z"/>
	<path class="st10" d="M127,292.4c0,2.1,1.4,3,3,3c1.1,0,1.8-0.2,2.4-0.5l0.3,1.1c-0.6,0.3-1.5,0.5-2.9,0.5c-2.7,0-4.3-1.8-4.3-4.4
		c0-2.6,1.5-4.7,4.1-4.7c2.8,0,3.6,2.5,3.6,4.1c0,0.3,0,0.6-0.1,0.7H127z M131.6,291.3c0-1-0.4-2.6-2.2-2.6c-1.6,0-2.3,1.5-2.4,2.6
		H131.6z"/>
	<path class="st10" d="M135.1,283.7h1.6v12.8h-1.6V283.7z"/>
	<path class="st10" d="M146.9,283.7v10.5c0,0.8,0,1.7,0.1,2.3h-1.4l-0.1-1.5h0c-0.5,1-1.5,1.7-3,1.7c-2.1,0-3.7-1.8-3.7-4.4
		c0-2.9,1.8-4.7,3.9-4.7c1.3,0,2.2,0.6,2.6,1.3h0v-5.2H146.9z M145.3,291.3c0-0.2,0-0.5-0.1-0.7c-0.2-1-1.1-1.8-2.3-1.8
		c-1.6,0-2.6,1.4-2.6,3.4c0,1.8,0.9,3.2,2.6,3.2c1.1,0,2-0.7,2.3-1.9c0.1-0.2,0.1-0.4,0.1-0.7V291.3z"/>
	<path class="st10" d="M159.7,290.8h-4.7v4.4h5.3v1.3h-6.8v-12.1h6.6v1.3h-5v3.8h4.7V290.8z"/>
	<path class="st10" d="M162.7,287.8l1.7,4.9c0.3,0.8,0.5,1.5,0.7,2.2h0.1c0.2-0.7,0.5-1.4,0.7-2.2l1.7-4.9h1.7l-3.4,8.7h-1.5
		l-3.3-8.7H162.7z"/>
	<path class="st10" d="M171.4,292.4c0,2.1,1.4,3,3,3c1.1,0,1.8-0.2,2.4-0.5l0.3,1.1c-0.6,0.3-1.5,0.5-2.9,0.5
		c-2.7,0-4.3-1.8-4.3-4.4c0-2.6,1.5-4.7,4.1-4.7c2.8,0,3.6,2.5,3.6,4.1c0,0.3,0,0.6-0.1,0.7H171.4z M176.1,291.3
		c0-1-0.4-2.6-2.2-2.6c-1.6,0-2.3,1.5-2.4,2.6H176.1z"/>
	<path class="st10" d="M179.5,290.2c0-0.9,0-1.6-0.1-2.4h1.4l0.1,1.4h0c0.4-0.8,1.4-1.6,2.9-1.6c1.2,0,3.1,0.7,3.1,3.7v5.2h-1.6v-5
		c0-1.4-0.5-2.6-2-2.6c-1,0-1.9,0.7-2.1,1.6c-0.1,0.2-0.1,0.5-0.1,0.7v5.2h-1.6V290.2z"/>
	<path class="st10" d="M191.4,285.3v2.5h2.3v1.2h-2.3v4.7c0,1.1,0.3,1.7,1.2,1.7c0.4,0,0.7-0.1,0.9-0.1l0.1,1.2
		c-0.3,0.1-0.8,0.2-1.4,0.2c-0.7,0-1.3-0.2-1.7-0.7c-0.5-0.5-0.6-1.2-0.6-2.3V289h-1.4v-1.2h1.4v-2.1L191.4,285.3z"/>
	<path class="st10" d="M195.2,294.9c0.5,0.3,1.3,0.6,2.1,0.6c1.2,0,1.7-0.6,1.7-1.3c0-0.8-0.5-1.2-1.6-1.6c-1.6-0.6-2.3-1.4-2.3-2.5
		c0-1.4,1.1-2.6,3-2.6c0.9,0,1.7,0.3,2.1,0.5l-0.4,1.2c-0.3-0.2-1-0.5-1.8-0.5c-0.9,0-1.5,0.5-1.5,1.2c0,0.7,0.5,1,1.7,1.5
		c1.5,0.6,2.3,1.3,2.3,2.6c0,1.5-1.2,2.6-3.3,2.6c-1,0-1.8-0.2-2.4-0.6L195.2,294.9z"/>
	<path class="st10" d="M113.6,306.1c0.7-0.1,1.8-0.3,2.9-0.3c1.6,0,2.6,0.3,3.3,0.9c0.6,0.5,1,1.2,1,2.1c0,1.2-0.8,2.2-2.1,2.7v0
		c1.2,0.3,2.5,1.2,2.5,3c0,1-0.4,1.8-1,2.4c-0.8,0.8-2.2,1.1-4.2,1.1c-1.1,0-1.9-0.1-2.4-0.1V306.1z M115.2,311.1h1.4
		c1.7,0,2.6-0.9,2.6-2c0-1.4-1.1-2-2.7-2c-0.7,0-1.1,0.1-1.4,0.1V311.1z M115.2,316.9c0.3,0.1,0.8,0.1,1.3,0.1
		c1.6,0,3.1-0.6,3.1-2.4c0-1.7-1.4-2.3-3.1-2.3h-1.3V316.9z"/>
	<path class="st10" d="M123.3,312.1c0-1,0-1.9-0.1-2.7h1.4l0.1,1.7h0.1c0.4-1.2,1.4-1.9,2.4-1.9c0.2,0,0.3,0,0.5,0.1v1.5
		c-0.2,0-0.3-0.1-0.5-0.1c-1.1,0-1.9,0.8-2.1,2c0,0.2-0.1,0.5-0.1,0.7v4.6h-1.6V312.1z"/>
	<path class="st10" d="M134,318.1l-0.1-1.1h-0.1c-0.5,0.7-1.4,1.3-2.7,1.3c-1.8,0-2.7-1.2-2.7-2.5c0-2.1,1.9-3.3,5.2-3.2v-0.2
		c0-0.7-0.2-2-2-2c-0.8,0-1.7,0.3-2.3,0.6l-0.4-1c0.7-0.5,1.8-0.8,2.9-0.8c2.7,0,3.3,1.8,3.3,3.6v3.3c0,0.8,0,1.5,0.1,2.1H134z
		 M133.7,313.7c-1.7,0-3.7,0.3-3.7,2c0,1,0.7,1.5,1.5,1.5c1.1,0,1.9-0.7,2.1-1.5c0.1-0.2,0.1-0.3,0.1-0.5V313.7z"/>
	<path class="st10" d="M137.8,311.8c0-0.9,0-1.6-0.1-2.4h1.4l0.1,1.4h0c0.4-0.8,1.4-1.6,2.9-1.6c1.2,0,3.1,0.7,3.1,3.7v5.2h-1.6v-5
		c0-1.4-0.5-2.6-2-2.6c-1,0-1.9,0.7-2.1,1.6c-0.1,0.2-0.1,0.5-0.1,0.7v5.2h-1.6V311.8z"/>
	<path class="st10" d="M155.3,305.3v10.5c0,0.8,0,1.7,0.1,2.3H154l-0.1-1.5h0c-0.5,1-1.5,1.7-3,1.7c-2.1,0-3.7-1.8-3.7-4.4
		c0-2.9,1.8-4.7,3.9-4.7c1.3,0,2.2,0.6,2.6,1.3h0v-5.2H155.3z M153.7,312.9c0-0.2,0-0.5-0.1-0.7c-0.2-1-1.1-1.8-2.3-1.8
		c-1.6,0-2.6,1.4-2.6,3.4c0,1.8,0.9,3.2,2.6,3.2c1.1,0,2-0.7,2.3-1.9c0.1-0.2,0.1-0.4,0.1-0.7V312.9z"/>
	<path class="st10" d="M163.8,314.3l-1.3,3.8h-1.6L165,306h1.9l4.1,12.1h-1.7l-1.3-3.8H163.8z M167.8,313.1l-1.2-3.5
		c-0.3-0.8-0.5-1.5-0.6-2.2h0c-0.2,0.7-0.4,1.5-0.6,2.2l-1.2,3.5H167.8z"/>
	<path class="st10" d="M178.8,317.8c-0.4,0.2-1.3,0.5-2.5,0.5c-2.6,0-4.3-1.8-4.3-4.4c0-2.7,1.8-4.6,4.7-4.6c0.9,0,1.8,0.2,2.2,0.5
		l-0.4,1.2c-0.4-0.2-1-0.4-1.8-0.4c-2,0-3.1,1.5-3.1,3.3c0,2,1.3,3.3,3,3.3c0.9,0,1.5-0.2,1.9-0.4L178.8,317.8z"/>
	<path class="st10" d="M182.8,306.9v2.5h2.3v1.2h-2.3v4.7c0,1.1,0.3,1.7,1.2,1.7c0.4,0,0.7-0.1,0.9-0.1l0.1,1.2
		c-0.3,0.1-0.8,0.2-1.4,0.2c-0.7,0-1.3-0.2-1.7-0.7c-0.5-0.5-0.6-1.2-0.6-2.3v-4.8h-1.4v-1.2h1.4v-2.1L182.8,306.9z"/>
	<path class="st10" d="M188.6,306.9c0,0.5-0.4,1-1,1c-0.6,0-1-0.4-1-1c0-0.6,0.4-1,1-1C188.2,306,188.6,306.4,188.6,306.9z
		 M186.8,318.1v-8.7h1.6v8.7H186.8z"/>
	<path class="st10" d="M191.6,309.4l1.7,4.9c0.3,0.8,0.5,1.5,0.7,2.2h0.1c0.2-0.7,0.5-1.4,0.7-2.2l1.7-4.9h1.7l-3.4,8.7h-1.5
		l-3.3-8.7H191.6z"/>
	<path class="st10" d="M204.4,318.1l-0.1-1.1h-0.1c-0.5,0.7-1.4,1.3-2.7,1.3c-1.8,0-2.7-1.2-2.7-2.5c0-2.1,1.9-3.3,5.2-3.2v-0.2
		c0-0.7-0.2-2-2-2c-0.8,0-1.7,0.3-2.3,0.6l-0.4-1c0.7-0.5,1.8-0.8,2.9-0.8c2.7,0,3.3,1.8,3.3,3.6v3.3c0,0.8,0,1.5,0.1,2.1H204.4z
		 M204.2,313.7c-1.7,0-3.7,0.3-3.7,2c0,1,0.7,1.5,1.5,1.5c1.1,0,1.9-0.7,2.1-1.5c0.1-0.2,0.1-0.3,0.1-0.5V313.7z"/>
	<path class="st10" d="M210.1,306.9v2.5h2.3v1.2h-2.3v4.7c0,1.1,0.3,1.7,1.2,1.7c0.4,0,0.7-0.1,0.9-0.1l0.1,1.2
		c-0.3,0.1-0.8,0.2-1.4,0.2c-0.7,0-1.3-0.2-1.7-0.7c-0.5-0.5-0.6-1.2-0.6-2.3v-4.8h-1.4v-1.2h1.4v-2.1L210.1,306.9z"/>
	<path class="st10" d="M215.9,306.9c0,0.5-0.4,1-1,1c-0.6,0-1-0.4-1-1c0-0.6,0.4-1,1-1C215.6,306,215.9,306.4,215.9,306.9z
		 M214.2,318.1v-8.7h1.6v8.7H214.2z"/>
	<path class="st10" d="M226.3,313.7c0,3.2-2.2,4.6-4.3,4.6c-2.4,0-4.2-1.7-4.2-4.5c0-2.9,1.9-4.6,4.3-4.6
		C224.6,309.2,226.3,311,226.3,313.7z M219.4,313.8c0,1.9,1.1,3.3,2.6,3.3c1.5,0,2.6-1.4,2.6-3.4c0-1.5-0.7-3.3-2.6-3.3
		C220.2,310.4,219.4,312.1,219.4,313.8z"/>
	<path class="st10" d="M228.3,311.8c0-0.9,0-1.6-0.1-2.4h1.4l0.1,1.4h0c0.4-0.8,1.4-1.6,2.9-1.6c1.2,0,3.1,0.7,3.1,3.7v5.2h-1.6v-5
		c0-1.4-0.5-2.6-2-2.6c-1,0-1.9,0.7-2.1,1.6c-0.1,0.2-0.1,0.5-0.1,0.7v5.2h-1.6V311.8z"/>
	<path class="st10" d="M238,316.5c0.5,0.3,1.3,0.6,2.1,0.6c1.2,0,1.7-0.6,1.7-1.3c0-0.8-0.5-1.2-1.6-1.6c-1.6-0.6-2.3-1.4-2.3-2.5
		c0-1.4,1.1-2.6,3-2.6c0.9,0,1.7,0.3,2.1,0.5l-0.4,1.2c-0.3-0.2-1-0.5-1.8-0.5c-0.9,0-1.5,0.5-1.5,1.2c0,0.7,0.5,1,1.7,1.5
		c1.5,0.6,2.3,1.3,2.3,2.6c0,1.5-1.2,2.6-3.3,2.6c-1,0-1.8-0.2-2.4-0.6L238,316.5z"/>
	<path class="st10" d="M113.6,327.7c0.8-0.1,1.7-0.2,3-0.2c1.5,0,2.7,0.4,3.4,1c0.7,0.6,1.1,1.5,1.1,2.5c0,1.1-0.3,2-0.9,2.6
		c-0.8,0.9-2.2,1.3-3.7,1.3c-0.5,0-0.9,0-1.3-0.1v4.9h-1.6V327.7z M115.2,333.6c0.3,0.1,0.8,0.1,1.3,0.1c1.9,0,3-0.9,3-2.6
		c0-1.6-1.1-2.4-2.9-2.4c-0.7,0-1.2,0.1-1.5,0.1V333.6z"/>
	<path class="st10" d="M123.2,327.7c0.8-0.2,1.9-0.3,3-0.3c1.7,0,2.8,0.3,3.5,1c0.6,0.5,1,1.4,1,2.3c0,1.6-1,2.7-2.3,3.1v0.1
		c0.9,0.3,1.5,1.2,1.8,2.4c0.4,1.7,0.7,2.9,0.9,3.3h-1.6c-0.2-0.3-0.5-1.4-0.8-2.9c-0.4-1.7-1-2.3-2.4-2.4h-1.5v5.3h-1.6V327.7z
		 M124.8,333.3h1.6c1.7,0,2.7-0.9,2.7-2.3c0-1.6-1.1-2.2-2.8-2.3c-0.8,0-1.3,0.1-1.5,0.1V333.3z"/>
</g>
<line class="st11" x1="99" y1="153.9" x2="99" y2="346.5"/>
</svg>
