<?xml version="1.0" encoding="utf-8"?>
<!-- Generator: Adobe Illustrator 23.0.4, SVG Export Plug-In . SVG Version: 6.00 Build 0)  -->
<svg version="1.1" id="Layer_1" xmlns="http://www.w3.org/2000/svg" xmlns:xlink="http://www.w3.org/1999/xlink" x="0px" y="0px"
	 viewBox="0 0 339 392.3" style="enable-background:new 0 0 339 392.3;" xml:space="preserve">
<style type="text/css">
	.st0{fill:#FA7943;}
	.st1{fill:#FFFFFF;}
	.st2{stroke:#FFFFFF;stroke-miterlimit:10;}
	.st3{fill:#CCCBCB;stroke:#FFFFFF;stroke-width:4;stroke-miterlimit:10;}
	.st4{fill:#F26E36;stroke:#FFFFFF;stroke-width:4;stroke-miterlimit:10;}
	.st5{fill:#F26E36;stroke:#FFFFFF;stroke-miterlimit:10;}
	.st6{fill:#CCCBCB;}
	.st7{fill:#F26E36;}
</style>
<circle class="st0" cx="169.5" cy="222.8" r="169.5"/>
<g>
	<path class="st1" d="M119.8,119.4h3.4l7.2,16.9h-3.9l-1.5-3.8h-7.1l-1.5,3.8h-3.8L119.8,119.4z M123.7,129.3l-2.2-5.4l-2.2,5.4
		H123.7z"/>
	<path class="st1" d="M133,119.5h4l4.4,7.1l4.4-7.1h4v16.8h-3.7v-11l-4.7,7.2h-0.1l-4.7-7.1v10.9H133V119.5z"/>
	<path class="st1" d="M153.9,119.5h6.9c4,0,6.4,2.4,6.4,5.8v0c0,3.9-3,5.9-6.8,5.9h-2.8v5h-3.7V119.5z M160.5,128
		c1.8,0,2.9-1.1,2.9-2.5v0c0-1.7-1.2-2.5-3-2.5h-2.9v5.1H160.5z"/>
	<path class="st1" d="M169.9,119.5h3.7v13.4h8.4v3.4h-12.1V119.5z"/>
	<path class="st1" d="M184.9,119.5h3.7v16.8h-3.7V119.5z"/>
	<path class="st1" d="M192.8,119.5h12.8v3.4h-9.1v3.6h8v3.4h-8v6.5h-3.7V119.5z"/>
	<path class="st1" d="M213.3,129.7l-6.5-10.2h4.3l4,6.7l4.1-6.7h4.2l-6.5,10.1v6.7h-3.7V129.7z"/>
</g>
<g>
	<path class="st1" d="M123.9,174.2c-0.1-1.7-0.2-3.7-0.2-5.2h-0.1c-0.4,1.4-0.9,2.9-1.5,4.6l-2.1,5.9h-1.2l-2-5.8
		c-0.6-1.7-1.1-3.3-1.4-4.7h0c0,1.5-0.1,3.5-0.2,5.4l-0.3,5.2h-1.5l0.8-12.1h2l2.1,5.9c0.5,1.5,0.9,2.8,1.2,4.1h0.1
		c0.3-1.2,0.7-2.6,1.3-4.1l2.2-5.9h2l0.8,12.1h-1.5L123.9,174.2z"/>
	<path class="st1" d="M129,175.4c0,2.1,1.4,3,3,3c1.1,0,1.8-0.2,2.4-0.5l0.3,1.1c-0.6,0.3-1.5,0.5-2.9,0.5c-2.7,0-4.3-1.8-4.3-4.4
		c0-2.6,1.5-4.7,4.1-4.7c2.8,0,3.6,2.5,3.6,4.1c0,0.3,0,0.6-0.1,0.7H129z M133.7,174.3c0-1-0.4-2.6-2.2-2.6c-1.6,0-2.3,1.5-2.4,2.6
		H133.7z"/>
	<path class="st1" d="M144.7,166.7v10.5c0,0.8,0,1.7,0.1,2.3h-1.4l-0.1-1.5h0c-0.5,1-1.5,1.7-3,1.7c-2.1,0-3.7-1.8-3.7-4.4
		c0-2.9,1.8-4.7,3.9-4.7c1.3,0,2.2,0.6,2.6,1.3h0v-5.2H144.7z M143.1,174.3c0-0.2,0-0.5-0.1-0.7c-0.2-1-1.1-1.8-2.3-1.8
		c-1.6,0-2.6,1.4-2.6,3.4c0,1.8,0.9,3.2,2.6,3.2c1.1,0,2-0.7,2.3-1.9c0.1-0.2,0.1-0.4,0.1-0.7V174.3z"/>
	<path class="st1" d="M149.1,168.3c0,0.5-0.4,1-1,1c-0.6,0-1-0.4-1-1c0-0.6,0.4-1,1-1C148.7,167.4,149.1,167.8,149.1,168.3z
		 M147.3,179.5v-8.7h1.6v8.7H147.3z"/>
	<path class="st1" d="M156.4,179.5l-0.1-1.1h-0.1c-0.5,0.7-1.4,1.3-2.7,1.3c-1.8,0-2.7-1.2-2.7-2.5c0-2.1,1.9-3.3,5.2-3.2v-0.2
		c0-0.7-0.2-2-2-2c-0.8,0-1.7,0.3-2.3,0.6l-0.4-1c0.7-0.5,1.8-0.8,2.9-0.8c2.7,0,3.3,1.8,3.3,3.6v3.3c0,0.8,0,1.5,0.1,2.1H156.4z
		 M156.1,175.1c-1.7,0-3.7,0.3-3.7,2c0,1,0.7,1.5,1.5,1.5c1.1,0,1.9-0.7,2.1-1.5c0.1-0.2,0.1-0.3,0.1-0.5V175.1z"/>
	<path class="st1" d="M164.1,167.5c0.8-0.1,1.7-0.2,3-0.2c1.5,0,2.7,0.4,3.4,1c0.7,0.6,1.1,1.5,1.1,2.5c0,1.1-0.3,2-0.9,2.6
		c-0.8,0.9-2.2,1.3-3.7,1.3c-0.5,0-0.9,0-1.3-0.1v4.9h-1.6V167.5z M165.7,173.4c0.3,0.1,0.8,0.1,1.3,0.1c1.9,0,3-0.9,3-2.6
		c0-1.6-1.1-2.4-2.9-2.4c-0.7,0-1.2,0.1-1.5,0.1V173.4z"/>
	<path class="st1" d="M173.5,166.7h1.6v12.8h-1.6V166.7z"/>
	<path class="st1" d="M182.6,179.5l-0.1-1.1h-0.1c-0.5,0.7-1.4,1.3-2.7,1.3c-1.8,0-2.7-1.2-2.7-2.5c0-2.1,1.9-3.3,5.2-3.2v-0.2
		c0-0.7-0.2-2-2-2c-0.8,0-1.7,0.3-2.3,0.6l-0.4-1c0.7-0.5,1.8-0.8,2.9-0.8c2.7,0,3.3,1.8,3.3,3.6v3.3c0,0.8,0,1.5,0.1,2.1H182.6z
		 M182.4,175.1c-1.7,0-3.7,0.3-3.7,2c0,1,0.7,1.5,1.5,1.5c1.1,0,1.9-0.7,2.1-1.5c0.1-0.2,0.1-0.3,0.1-0.5V175.1z"/>
	<path class="st1" d="M186.4,173.2c0-0.9,0-1.6-0.1-2.4h1.4l0.1,1.4h0c0.4-0.8,1.4-1.6,2.9-1.6c1.2,0,3.1,0.7,3.1,3.7v5.2h-1.6v-5
		c0-1.4-0.5-2.6-2-2.6c-1,0-1.9,0.7-2.1,1.6c-0.1,0.2-0.1,0.5-0.1,0.7v5.2h-1.6V173.2z"/>
	<path class="st1" d="M196.4,173.2c0-0.9,0-1.6-0.1-2.4h1.4l0.1,1.4h0c0.4-0.8,1.4-1.6,2.9-1.6c1.2,0,3.1,0.7,3.1,3.7v5.2h-1.6v-5
		c0-1.4-0.5-2.6-2-2.6c-1,0-1.9,0.7-2.1,1.6c-0.1,0.2-0.1,0.5-0.1,0.7v5.2h-1.6V173.2z"/>
	<path class="st1" d="M208.2,168.3c0,0.5-0.4,1-1,1c-0.6,0-1-0.4-1-1c0-0.6,0.4-1,1-1C207.8,167.4,208.2,167.8,208.2,168.3z
		 M206.4,179.5v-8.7h1.6v8.7H206.4z"/>
	<path class="st1" d="M210.6,173.2c0-0.9,0-1.6-0.1-2.4h1.4l0.1,1.4h0c0.4-0.8,1.4-1.6,2.9-1.6c1.2,0,3.1,0.7,3.1,3.7v5.2h-1.6v-5
		c0-1.4-0.5-2.6-2-2.6c-1,0-1.9,0.7-2.1,1.6c-0.1,0.2-0.1,0.5-0.1,0.7v5.2h-1.6V173.2z"/>
	<path class="st1" d="M228.1,170.8c0,0.6-0.1,1.3-0.1,2.4v5.1c0,2-0.4,3.2-1.2,4c-0.8,0.8-2.1,1-3.2,1c-1,0-2.2-0.3-2.9-0.7l0.4-1.2
		c0.6,0.4,1.5,0.7,2.6,0.7c1.6,0,2.8-0.8,2.8-3v-1h0c-0.5,0.8-1.4,1.5-2.8,1.5c-2.2,0-3.7-1.8-3.7-4.2c0-3,1.9-4.6,3.9-4.6
		c1.5,0,2.3,0.8,2.7,1.5h0l0.1-1.3H228.1z M226.5,174.2c0-0.3,0-0.5-0.1-0.7c-0.3-0.9-1.1-1.7-2.2-1.7c-1.5,0-2.6,1.3-2.6,3.3
		c0,1.7,0.9,3.1,2.6,3.1c1,0,1.9-0.6,2.2-1.6c0.1-0.3,0.1-0.6,0.1-0.8V174.2z"/>
	<path class="st1" d="M242.2,179.5c-0.3-0.3-0.7-0.7-1.1-1.2c-1,1-2.2,1.4-3.5,1.4c-2.4,0-3.7-1.6-3.7-3.4c0-1.7,1-2.8,2.4-3.5v-0.1
		c-0.6-0.8-1-1.7-1-2.5c0-1.5,1.1-3,3.1-3c1.5,0,2.7,1,2.7,2.6c0,1.3-0.7,2.3-2.7,3.2v0.1c1,1.2,2.2,2.5,3,3.4
		c0.6-0.8,0.9-2,1.2-3.5h1.4c-0.3,1.9-0.8,3.4-1.7,4.5c0.6,0.7,1.3,1.4,2,2.1H242.2z M240.2,177.4c-0.7-0.8-2.1-2.3-3.4-3.8
		c-0.6,0.4-1.6,1.2-1.6,2.5c0,1.4,1,2.4,2.5,2.4C238.8,178.5,239.7,178,240.2,177.4z M236.6,170c0,0.9,0.4,1.5,0.9,2.2
		c1.2-0.7,2-1.3,2-2.4c0-0.7-0.4-1.6-1.4-1.6C237.1,168.3,236.6,169.1,236.6,170z"/>
	<path class="st1" d="M113.6,189.1c0.8-0.1,1.7-0.2,3-0.2c1.5,0,2.7,0.4,3.4,1c0.7,0.6,1.1,1.5,1.1,2.5c0,1.1-0.3,2-0.9,2.6
		c-0.8,0.9-2.2,1.3-3.7,1.3c-0.5,0-0.9,0-1.3-0.1v4.9h-1.6V189.1z M115.2,195c0.3,0.1,0.8,0.1,1.3,0.1c1.9,0,3-0.9,3-2.6
		c0-1.6-1.1-2.4-2.9-2.4c-0.7,0-1.2,0.1-1.5,0.1V195z"/>
	<path class="st1" d="M123.1,188.3h1.6v12.8h-1.6V188.3z"/>
	<path class="st1" d="M132.1,201.1L132,200H132c-0.5,0.7-1.4,1.3-2.7,1.3c-1.8,0-2.7-1.2-2.7-2.5c0-2.1,1.9-3.3,5.2-3.2v-0.2
		c0-0.7-0.2-2-2-2c-0.8,0-1.7,0.3-2.3,0.6l-0.4-1c0.7-0.5,1.8-0.8,2.9-0.8c2.7,0,3.3,1.8,3.3,3.6v3.3c0,0.8,0,1.5,0.1,2.1H132.1z
		 M131.9,196.7c-1.7,0-3.7,0.3-3.7,2c0,1,0.7,1.5,1.5,1.5c1.1,0,1.9-0.7,2.1-1.5c0.1-0.2,0.1-0.3,0.1-0.5V196.7z"/>
	<path class="st1" d="M142.2,200.8c-0.4,0.2-1.3,0.5-2.5,0.5c-2.6,0-4.3-1.8-4.3-4.4c0-2.7,1.8-4.6,4.7-4.6c0.9,0,1.8,0.2,2.2,0.5
		l-0.4,1.2c-0.4-0.2-1-0.4-1.8-0.4c-2,0-3.1,1.5-3.1,3.3c0,2,1.3,3.3,3,3.3c0.9,0,1.5-0.2,1.9-0.4L142.2,200.8z"/>
	<path class="st1" d="M144.8,197c0,2.1,1.4,3,3,3c1.1,0,1.8-0.2,2.4-0.5l0.3,1.1c-0.6,0.3-1.5,0.5-2.9,0.5c-2.7,0-4.3-1.8-4.3-4.4
		c0-2.6,1.5-4.7,4.1-4.7c2.8,0,3.6,2.5,3.6,4.1c0,0.3,0,0.6-0.1,0.7H144.8z M149.5,195.9c0-1-0.4-2.6-2.2-2.6
		c-1.6,0-2.3,1.5-2.4,2.6H149.5z"/>
	<path class="st1" d="M153,194.8c0-0.9,0-1.6-0.1-2.4h1.4l0.1,1.4h0.1c0.5-0.8,1.3-1.6,2.7-1.6c1.2,0,2.1,0.7,2.5,1.7h0
		c0.3-0.5,0.6-0.9,1-1.1c0.5-0.4,1.1-0.6,1.9-0.6c1.2,0,2.9,0.8,2.9,3.8v5.1h-1.5v-4.9c0-1.7-0.6-2.7-1.9-2.7
		c-0.9,0-1.6,0.7-1.9,1.4c-0.1,0.2-0.1,0.5-0.1,0.8v5.4h-1.5v-5.2c0-1.4-0.6-2.4-1.8-2.4c-1,0-1.7,0.8-2,1.6
		c-0.1,0.2-0.1,0.5-0.1,0.8v5.3H153V194.8z"/>
	<path class="st1" d="M168.9,197c0,2.1,1.4,3,3,3c1.1,0,1.8-0.2,2.4-0.5l0.3,1.1c-0.6,0.3-1.5,0.5-2.9,0.5c-2.7,0-4.3-1.8-4.3-4.4
		c0-2.6,1.5-4.7,4.1-4.7c2.8,0,3.6,2.5,3.6,4.1c0,0.3,0,0.6-0.1,0.7H168.9z M173.5,195.9c0-1-0.4-2.6-2.2-2.6
		c-1.6,0-2.3,1.5-2.4,2.6H173.5z"/>
	<path class="st1" d="M177,194.8c0-0.9,0-1.6-0.1-2.4h1.4l0.1,1.4h0c0.4-0.8,1.4-1.6,2.9-1.6c1.2,0,3.1,0.7,3.1,3.7v5.2h-1.6v-5
		c0-1.4-0.5-2.6-2-2.6c-1,0-1.9,0.7-2.1,1.6c-0.1,0.2-0.1,0.5-0.1,0.7v5.2H177V194.8z"/>
	<path class="st1" d="M188.8,189.9v2.5h2.3v1.2h-2.3v4.7c0,1.1,0.3,1.7,1.2,1.7c0.4,0,0.7-0.1,0.9-0.1l0.1,1.2
		c-0.3,0.1-0.8,0.2-1.4,0.2c-0.7,0-1.3-0.2-1.7-0.7c-0.5-0.5-0.6-1.2-0.6-2.3v-4.8h-1.4v-1.2h1.4v-2.1L188.8,189.9z"/>
	<path class="st1" d="M113.6,210.7c1-0.1,2.1-0.3,3.3-0.3c2.3,0,3.9,0.5,4.9,1.5c1.1,1,1.7,2.4,1.7,4.4c0,2-0.6,3.6-1.7,4.7
		c-1.1,1.1-3,1.7-5.4,1.7c-1.1,0-2.1-0.1-2.8-0.1V210.7z M115.2,221.5c0.4,0.1,1,0.1,1.6,0.1c3.3,0,5.2-1.9,5.2-5.1
		c0-2.9-1.6-4.7-4.9-4.7c-0.8,0-1.4,0.1-1.8,0.2V221.5z"/>
	<path class="st1" d="M130.4,222.7l-0.1-1.1h-0.1c-0.5,0.7-1.4,1.3-2.7,1.3c-1.8,0-2.7-1.2-2.7-2.5c0-2.1,1.9-3.3,5.2-3.2V217
		c0-0.7-0.2-2-2-2c-0.8,0-1.7,0.3-2.3,0.6l-0.4-1c0.7-0.5,1.8-0.8,2.9-0.8c2.7,0,3.3,1.8,3.3,3.6v3.3c0,0.8,0,1.5,0.1,2.1H130.4z
		 M130.2,218.3c-1.7,0-3.7,0.3-3.7,2c0,1,0.7,1.5,1.5,1.5c1.1,0,1.9-0.7,2.1-1.5c0.1-0.2,0.1-0.3,0.1-0.5V218.3z"/>
	<path class="st1" d="M136.1,211.5v2.5h2.3v1.2h-2.3v4.7c0,1.1,0.3,1.7,1.2,1.7c0.4,0,0.7-0.1,0.9-0.1l0.1,1.2
		c-0.3,0.1-0.8,0.2-1.4,0.2c-0.7,0-1.3-0.2-1.7-0.7c-0.5-0.5-0.6-1.2-0.6-2.3v-4.8h-1.4V214h1.4v-2.1L136.1,211.5z"/>
	<path class="st1" d="M145,222.7l-0.1-1.1h-0.1c-0.5,0.7-1.4,1.3-2.7,1.3c-1.8,0-2.7-1.2-2.7-2.5c0-2.1,1.9-3.3,5.2-3.2V217
		c0-0.7-0.2-2-2-2c-0.8,0-1.7,0.3-2.3,0.6l-0.4-1c0.7-0.5,1.8-0.8,2.9-0.8c2.7,0,3.3,1.8,3.3,3.6v3.3c0,0.8,0,1.5,0.1,2.1H145z
		 M144.7,218.3c-1.7,0-3.7,0.3-3.7,2c0,1,0.7,1.5,1.5,1.5c1.1,0,1.9-0.7,2.1-1.5c0.1-0.2,0.1-0.3,0.1-0.5V218.3z"/>
	<path class="st1" d="M154.6,218.9l-1.3,3.8h-1.6l4.1-12.1h1.9l4.1,12.1h-1.7l-1.3-3.8H154.6z M158.6,217.7l-1.2-3.5
		c-0.3-0.8-0.5-1.5-0.6-2.2h0c-0.2,0.7-0.4,1.5-0.6,2.2l-1.2,3.5H158.6z"/>
	<path class="st1" d="M163.6,216.4c0-0.9,0-1.6-0.1-2.4h1.4l0.1,1.4h0c0.4-0.8,1.4-1.6,2.9-1.6c1.2,0,3.1,0.7,3.1,3.7v5.2h-1.6v-5
		c0-1.4-0.5-2.6-2-2.6c-1,0-1.9,0.7-2.1,1.6c-0.1,0.2-0.1,0.5-0.1,0.7v5.2h-1.6V216.4z"/>
	<path class="st1" d="M178.4,222.7l-0.1-1.1h-0.1c-0.5,0.7-1.4,1.3-2.7,1.3c-1.8,0-2.7-1.2-2.7-2.5c0-2.1,1.9-3.3,5.2-3.2V217
		c0-0.7-0.2-2-2-2c-0.8,0-1.7,0.3-2.3,0.6l-0.4-1c0.7-0.5,1.8-0.8,2.9-0.8c2.7,0,3.3,1.8,3.3,3.6v3.3c0,0.8,0,1.5,0.1,2.1H178.4z
		 M178.2,218.3c-1.7,0-3.7,0.3-3.7,2c0,1,0.7,1.5,1.5,1.5c1.1,0,1.9-0.7,2.1-1.5c0.1-0.2,0.1-0.3,0.1-0.5V218.3z"/>
	<path class="st1" d="M182.2,209.9h1.6v12.8h-1.6V209.9z"/>
	<path class="st1" d="M187.1,214l1.9,5.1c0.2,0.6,0.4,1.3,0.6,1.8h0c0.2-0.5,0.3-1.2,0.6-1.8l1.7-5.1h1.7l-2.4,6.2
		c-1.1,3-1.9,4.5-3,5.5c-0.8,0.7-1.5,1-1.9,1l-0.4-1.3c0.4-0.1,0.9-0.4,1.4-0.8c0.4-0.3,1-1,1.3-1.8c0.1-0.2,0.1-0.3,0.1-0.4
		c0-0.1,0-0.2-0.1-0.4l-3.2-8H187.1z"/>
	<path class="st1" d="M194.6,221.1c0.5,0.3,1.3,0.6,2.1,0.6c1.2,0,1.7-0.6,1.7-1.3c0-0.8-0.5-1.2-1.6-1.6c-1.6-0.6-2.3-1.4-2.3-2.5
		c0-1.4,1.1-2.6,3-2.6c0.9,0,1.7,0.3,2.1,0.5l-0.4,1.2c-0.3-0.2-1-0.5-1.8-0.5c-0.9,0-1.5,0.5-1.5,1.2c0,0.7,0.5,1,1.7,1.5
		c1.5,0.6,2.3,1.3,2.3,2.6c0,1.5-1.2,2.6-3.3,2.6c-1,0-1.8-0.2-2.4-0.6L194.6,221.1z"/>
	<path class="st1" d="M203.8,211.5c0,0.5-0.4,1-1,1c-0.6,0-1-0.4-1-1c0-0.6,0.4-1,1-1C203.4,210.6,203.8,211,203.8,211.5z
		 M202,222.7V214h1.6v8.7H202z"/>
	<path class="st1" d="M206,221.1c0.5,0.3,1.3,0.6,2.1,0.6c1.2,0,1.7-0.6,1.7-1.3c0-0.8-0.5-1.2-1.6-1.6c-1.6-0.6-2.3-1.4-2.3-2.5
		c0-1.4,1.1-2.6,3-2.6c0.9,0,1.7,0.3,2.1,0.5l-0.4,1.2c-0.3-0.2-1-0.5-1.8-0.5c-0.9,0-1.5,0.5-1.5,1.2c0,0.7,0.5,1,1.7,1.5
		c1.5,0.6,2.3,1.3,2.3,2.6c0,1.5-1.2,2.6-3.3,2.6c-1,0-1.8-0.2-2.4-0.6L206,221.1z"/>
	<path class="st1" d="M122.1,243.9c-0.6,0.3-1.7,0.6-3.2,0.6c-3.4,0-6-2.2-6-6.1c0-3.8,2.6-6.4,6.3-6.4c1.5,0,2.5,0.3,2.9,0.5
		l-0.4,1.3c-0.6-0.3-1.4-0.5-2.4-0.5c-2.8,0-4.7,1.8-4.7,5c0,3,1.7,4.9,4.7,4.9c1,0,1.9-0.2,2.6-0.5L122.1,243.9z"/>
	<path class="st1" d="M124,231.5h1.6v5.4h0c0.3-0.5,0.6-0.8,1.1-1.1c0.5-0.3,1-0.5,1.6-0.5c1.2,0,3,0.7,3,3.7v5.2h-1.6v-5
		c0-1.4-0.5-2.6-2-2.6c-1,0-1.8,0.7-2.1,1.6c-0.1,0.2-0.1,0.5-0.1,0.8v5.3H124V231.5z"/>
	<path class="st1" d="M138.8,244.3l-0.1-1.1h-0.1c-0.5,0.7-1.4,1.3-2.7,1.3c-1.8,0-2.7-1.2-2.7-2.5c0-2.1,1.9-3.3,5.2-3.2v-0.2
		c0-0.7-0.2-2-2-2c-0.8,0-1.7,0.3-2.3,0.6l-0.4-1c0.7-0.5,1.8-0.8,2.9-0.8c2.7,0,3.3,1.8,3.3,3.6v3.3c0,0.8,0,1.5,0.1,2.1H138.8z
		 M138.6,239.9c-1.7,0-3.7,0.3-3.7,2c0,1,0.7,1.5,1.5,1.5c1.1,0,1.9-0.7,2.1-1.5c0.1-0.2,0.1-0.3,0.1-0.5V239.9z"/>
	<path class="st1" d="M142.7,238c0-0.9,0-1.6-0.1-2.4h1.4l0.1,1.4h0c0.4-0.8,1.4-1.6,2.9-1.6c1.2,0,3.1,0.7,3.1,3.7v5.2h-1.6v-5
		c0-1.4-0.5-2.6-2-2.6c-1,0-1.9,0.7-2.1,1.6c-0.1,0.2-0.1,0.5-0.1,0.7v5.2h-1.6V238z"/>
	<path class="st1" d="M152.7,238c0-0.9,0-1.6-0.1-2.4h1.4l0.1,1.4h0c0.4-0.8,1.4-1.6,2.9-1.6c1.2,0,3.1,0.7,3.1,3.7v5.2h-1.6v-5
		c0-1.4-0.5-2.6-2-2.6c-1,0-1.9,0.7-2.1,1.6c-0.1,0.2-0.1,0.5-0.1,0.7v5.2h-1.6V238z"/>
	<path class="st1" d="M163.5,240.2c0,2.1,1.4,3,3,3c1.1,0,1.8-0.2,2.4-0.5l0.3,1.1c-0.6,0.3-1.5,0.5-2.9,0.5c-2.7,0-4.3-1.8-4.3-4.4
		s1.5-4.7,4.1-4.7c2.8,0,3.6,2.5,3.6,4.1c0,0.3,0,0.6-0.1,0.7H163.5z M168.2,239.1c0-1-0.4-2.6-2.2-2.6c-1.6,0-2.3,1.5-2.4,2.6
		H168.2z"/>
	<path class="st1" d="M171.7,231.5h1.6v12.8h-1.6V231.5z"/>
	<path class="st1" d="M190,239c-0.1-1.7-0.2-3.7-0.2-5.2h-0.1c-0.4,1.4-0.9,2.9-1.5,4.6l-2.1,5.9h-1.2l-2-5.8
		c-0.6-1.7-1.1-3.3-1.4-4.7h0c0,1.5-0.1,3.5-0.2,5.4l-0.3,5.2h-1.5l0.8-12.1h2l2.1,5.9c0.5,1.5,0.9,2.8,1.2,4.1h0.1
		c0.3-1.2,0.7-2.6,1.3-4.1l2.2-5.9h2l0.8,12.1h-1.5L190,239z"/>
	<path class="st1" d="M199.1,244.3l-0.1-1.1H199c-0.5,0.7-1.4,1.3-2.7,1.3c-1.8,0-2.7-1.2-2.7-2.5c0-2.1,1.9-3.3,5.2-3.2v-0.2
		c0-0.7-0.2-2-2-2c-0.8,0-1.7,0.3-2.3,0.6l-0.4-1c0.7-0.5,1.8-0.8,2.9-0.8c2.7,0,3.3,1.8,3.3,3.6v3.3c0,0.8,0,1.5,0.1,2.1H199.1z
		 M198.9,239.9c-1.7,0-3.7,0.3-3.7,2c0,1,0.7,1.5,1.5,1.5c1.1,0,1.9-0.7,2.1-1.5c0.1-0.2,0.1-0.3,0.1-0.5V239.9z"/>
	<path class="st1" d="M203,238.3c0-1,0-1.9-0.1-2.7h1.4l0.1,1.7h0.1c0.4-1.2,1.4-1.9,2.4-1.9c0.2,0,0.3,0,0.4,0.1v1.5
		c-0.2,0-0.3-0.1-0.5-0.1c-1.1,0-1.9,0.8-2.1,2c0,0.2-0.1,0.5-0.1,0.7v4.6H203V238.3z"/>
	<path class="st1" d="M210.5,239.6L210.5,239.6c0.3-0.3,0.6-0.7,0.8-1l2.6-3h1.9l-3.4,3.6l3.8,5.1h-1.9l-3-4.2l-0.8,0.9v3.3H209
		v-12.8h1.6V239.6z"/>
	<path class="st1" d="M218.3,240.2c0,2.1,1.4,3,3,3c1.1,0,1.8-0.2,2.4-0.5l0.3,1.1c-0.6,0.3-1.5,0.5-2.9,0.5c-2.7,0-4.3-1.8-4.3-4.4
		s1.5-4.7,4.1-4.7c2.8,0,3.6,2.5,3.6,4.1c0,0.3,0,0.6-0.1,0.7H218.3z M222.9,239.1c0-1-0.4-2.6-2.2-2.6c-1.6,0-2.3,1.5-2.4,2.6
		H222.9z"/>
	<path class="st1" d="M228.3,233.1v2.5h2.3v1.2h-2.3v4.7c0,1.1,0.3,1.7,1.2,1.7c0.4,0,0.7-0.1,0.9-0.1l0.1,1.2
		c-0.3,0.1-0.8,0.2-1.4,0.2c-0.7,0-1.3-0.2-1.7-0.7c-0.5-0.5-0.6-1.2-0.6-2.3v-4.8h-1.4v-1.2h1.4v-2.1L228.3,233.1z"/>
	<path class="st1" d="M234.1,233.1c0,0.5-0.4,1-1,1c-0.6,0-1-0.4-1-1c0-0.6,0.4-1,1-1C233.8,232.2,234.1,232.6,234.1,233.1z
		 M232.4,244.3v-8.7h1.6v8.7H232.4z"/>
	<path class="st1" d="M236.6,238c0-0.9,0-1.6-0.1-2.4h1.4l0.1,1.4h0c0.4-0.8,1.4-1.6,2.9-1.6c1.2,0,3.1,0.7,3.1,3.7v5.2h-1.6v-5
		c0-1.4-0.5-2.6-2-2.6c-1,0-1.9,0.7-2.1,1.6c-0.1,0.2-0.1,0.5-0.1,0.7v5.2h-1.6V238z"/>
	<path class="st1" d="M254.1,235.6c0,0.6-0.1,1.3-0.1,2.4v5.1c0,2-0.4,3.2-1.2,4c-0.8,0.8-2.1,1-3.2,1c-1,0-2.2-0.3-2.9-0.7l0.4-1.2
		c0.6,0.4,1.5,0.7,2.6,0.7c1.6,0,2.8-0.8,2.8-3v-1h0c-0.5,0.8-1.4,1.5-2.8,1.5c-2.2,0-3.7-1.8-3.7-4.2c0-3,1.9-4.6,3.9-4.6
		c1.5,0,2.3,0.8,2.7,1.5h0l0.1-1.3H254.1z M252.4,239c0-0.3,0-0.5-0.1-0.7c-0.3-0.9-1.1-1.7-2.2-1.7c-1.5,0-2.6,1.3-2.6,3.3
		c0,1.7,0.9,3.1,2.6,3.1c1,0,1.9-0.6,2.2-1.6c0.1-0.3,0.1-0.6,0.1-0.8V239z"/>
	<path class="st1" d="M130.5,255.1h-3.7v-1.3h9v1.3H132v10.8h-1.6V255.1z"/>
	<path class="st1" d="M143.7,261.5c0,3.2-2.2,4.6-4.3,4.6c-2.4,0-4.2-1.7-4.2-4.5c0-2.9,1.9-4.6,4.3-4.6
		C142,257,143.7,258.8,143.7,261.5z M136.7,261.6c0,1.9,1.1,3.3,2.6,3.3c1.5,0,2.6-1.4,2.6-3.4c0-1.5-0.7-3.3-2.6-3.3
		C137.6,258.2,136.7,259.9,136.7,261.6z"/>
	<path class="st1" d="M149.5,253.9c0.8-0.1,1.7-0.2,3-0.2c1.5,0,2.7,0.4,3.4,1c0.7,0.6,1.1,1.5,1.1,2.5c0,1.1-0.3,2-0.9,2.6
		c-0.8,0.9-2.2,1.3-3.7,1.3c-0.5,0-0.9,0-1.3-0.1v4.9h-1.6V253.9z M151.1,259.8c0.3,0.1,0.8,0.1,1.3,0.1c1.9,0,3-0.9,3-2.6
		c0-1.6-1.1-2.4-2.9-2.4c-0.7,0-1.2,0.1-1.5,0.1V259.8z"/>
	<path class="st1" d="M163.4,265.9l-0.1-1.1h-0.1c-0.5,0.7-1.4,1.3-2.7,1.3c-1.8,0-2.7-1.2-2.7-2.5c0-2.1,1.9-3.3,5.2-3.2v-0.2
		c0-0.7-0.2-2-2-2c-0.8,0-1.7,0.3-2.3,0.6l-0.4-1c0.7-0.5,1.8-0.8,2.9-0.8c2.7,0,3.3,1.8,3.3,3.6v3.3c0,0.8,0,1.5,0.1,2.1H163.4z
		 M163.2,261.5c-1.7,0-3.7,0.3-3.7,2c0,1,0.7,1.5,1.5,1.5c1.1,0,1.9-0.7,2.1-1.5c0.1-0.2,0.1-0.3,0.1-0.5V261.5z"/>
	<path class="st1" d="M167.3,259.9c0-1,0-1.9-0.1-2.7h1.4l0.1,1.7h0.1c0.4-1.2,1.4-1.9,2.4-1.9c0.2,0,0.3,0,0.5,0.1v1.5
		c-0.2,0-0.3-0.1-0.5-0.1c-1.1,0-1.9,0.8-2.1,2c0,0.2-0.1,0.5-0.1,0.7v4.6h-1.6V259.9z"/>
	<path class="st1" d="M175.5,254.7v2.5h2.3v1.2h-2.3v4.7c0,1.1,0.3,1.7,1.2,1.7c0.4,0,0.7-0.1,0.9-0.1l0.1,1.2
		c-0.3,0.1-0.8,0.2-1.4,0.2c-0.7,0-1.3-0.2-1.7-0.7c-0.5-0.5-0.6-1.2-0.6-2.3v-4.8h-1.4v-1.2h1.4v-2.1L175.5,254.7z"/>
	<path class="st1" d="M179.5,259.6c0-0.9,0-1.6-0.1-2.4h1.4l0.1,1.4h0c0.4-0.8,1.4-1.6,2.9-1.6c1.2,0,3.1,0.7,3.1,3.7v5.2h-1.6v-5
		c0-1.4-0.5-2.6-2-2.6c-1,0-1.9,0.7-2.1,1.6c-0.1,0.2-0.1,0.5-0.1,0.7v5.2h-1.6V259.6z"/>
	<path class="st1" d="M190.4,261.8c0,2.1,1.4,3,3,3c1.1,0,1.8-0.2,2.4-0.5l0.3,1.1c-0.6,0.3-1.5,0.5-2.9,0.5c-2.7,0-4.3-1.8-4.3-4.4
		s1.5-4.7,4.1-4.7c2.8,0,3.6,2.5,3.6,4.1c0,0.3,0,0.6-0.1,0.7H190.4z M195,260.7c0-1-0.4-2.6-2.2-2.6c-1.6,0-2.3,1.5-2.4,2.6H195z"
		/>
	<path class="st1" d="M198.5,259.9c0-1,0-1.9-0.1-2.7h1.4l0.1,1.7h0.1c0.4-1.2,1.4-1.9,2.4-1.9c0.2,0,0.3,0,0.5,0.1v1.5
		c-0.2,0-0.3-0.1-0.5-0.1c-1.1,0-1.9,0.8-2.1,2c0,0.2-0.1,0.5-0.1,0.7v4.6h-1.6V259.9z"/>
	<path class="st1" d="M130.5,276.7h-3.7v-1.3h9v1.3H132v10.8h-1.6V276.7z"/>
	<path class="st1" d="M136.9,274.7h1.6v5.4h0c0.3-0.4,0.6-0.8,1.1-1.1c0.5-0.3,1-0.5,1.6-0.5c1.2,0,3,0.7,3,3.7v5.2h-1.6v-5
		c0-1.4-0.5-2.6-2-2.6c-1,0-1.8,0.7-2.1,1.6c-0.1,0.2-0.1,0.5-0.1,0.8v5.3h-1.6V274.7z"/>
	<path class="st1" d="M146.9,281.5c0-1,0-1.9-0.1-2.7h1.4l0.1,1.7h0.1c0.4-1.2,1.4-1.9,2.4-1.9c0.2,0,0.3,0,0.5,0.1v1.5
		c-0.2,0-0.3-0.1-0.5-0.1c-1.1,0-1.9,0.8-2.1,2c0,0.2-0.1,0.5-0.1,0.7v4.6h-1.6V281.5z"/>
	<path class="st1" d="M160.5,283.1c0,3.2-2.2,4.6-4.3,4.6c-2.4,0-4.2-1.7-4.2-4.5c0-2.9,1.9-4.6,4.3-4.6
		C158.8,278.6,160.5,280.4,160.5,283.1z M153.6,283.2c0,1.9,1.1,3.3,2.6,3.3c1.5,0,2.6-1.4,2.6-3.4c0-1.5-0.7-3.3-2.6-3.3
		C154.4,279.8,153.6,281.5,153.6,283.2z"/>
	<path class="st1" d="M169.8,285.1c0,0.9,0,1.7,0.1,2.4h-1.4l-0.1-1.4h0c-0.4,0.7-1.3,1.6-2.9,1.6c-1.4,0-3-0.8-3-3.8v-5.1h1.6v4.8
		c0,1.7,0.5,2.8,1.9,2.8c1.1,0,1.8-0.7,2.1-1.4c0.1-0.2,0.1-0.5,0.1-0.8v-5.3h1.6V285.1z"/>
	<path class="st1" d="M179.9,278.8c0,0.6-0.1,1.3-0.1,2.4v5.1c0,2-0.4,3.2-1.2,4c-0.8,0.8-2.1,1-3.2,1c-1,0-2.2-0.3-2.9-0.7l0.4-1.2
		c0.6,0.4,1.5,0.7,2.6,0.7c1.6,0,2.8-0.8,2.8-3v-1h0c-0.5,0.8-1.4,1.5-2.8,1.5c-2.2,0-3.7-1.8-3.7-4.2c0-3,1.9-4.6,3.9-4.6
		c1.5,0,2.3,0.8,2.7,1.5h0l0.1-1.3H179.9z M178.3,282.2c0-0.3,0-0.5-0.1-0.7c-0.3-0.9-1.1-1.7-2.2-1.7c-1.5,0-2.6,1.3-2.6,3.3
		c0,1.7,0.9,3.1,2.6,3.1c1,0,1.9-0.6,2.2-1.6c0.1-0.3,0.1-0.6,0.1-0.8V282.2z"/>
	<path class="st1" d="M182.5,274.7h1.6v5.4h0c0.3-0.4,0.6-0.8,1.1-1.1c0.5-0.3,1-0.5,1.6-0.5c1.2,0,3,0.7,3,3.7v5.2h-1.6v-5
		c0-1.4-0.5-2.6-2-2.6c-1,0-1.8,0.7-2.1,1.6c-0.1,0.2-0.1,0.5-0.1,0.8v5.3h-1.6V274.7z"/>
	<path class="st1" d="M196.1,282.1v1.2h-4.4v-1.2H196.1z"/>
	<path class="st1" d="M198,281.6c0-1.1,0-2-0.1-2.8h1.4l0.1,1.5h0c0.6-1.1,1.7-1.7,3.1-1.7c2.1,0,3.7,1.8,3.7,4.4
		c0,3.1-1.9,4.7-4,4.7c-1.2,0-2.2-0.5-2.7-1.4h0v4.7H198V281.6z M199.6,284c0,0.2,0,0.5,0.1,0.6c0.3,1.1,1.2,1.9,2.4,1.9
		c1.7,0,2.6-1.4,2.6-3.4c0-1.7-0.9-3.2-2.6-3.2c-1.1,0-2.1,0.8-2.4,2c-0.1,0.2-0.1,0.4-0.1,0.6V284z"/>
	<path class="st1" d="M213.1,287.5l-0.1-1.1h-0.1c-0.5,0.7-1.4,1.3-2.7,1.3c-1.8,0-2.7-1.2-2.7-2.5c0-2.1,1.9-3.3,5.2-3.2v-0.2
		c0-0.7-0.2-2-2-2c-0.8,0-1.7,0.3-2.3,0.6l-0.4-1c0.7-0.5,1.8-0.8,2.9-0.8c2.7,0,3.3,1.8,3.3,3.6v3.3c0,0.8,0,1.5,0.1,2.1H213.1z
		 M212.8,283.1c-1.7,0-3.7,0.3-3.7,2c0,1,0.7,1.5,1.5,1.5c1.1,0,1.9-0.7,2.1-1.5c0.1-0.2,0.1-0.3,0.1-0.5V283.1z"/>
	<path class="st1" d="M216.9,281.5c0-1,0-1.9-0.1-2.7h1.4l0.1,1.7h0.1c0.4-1.2,1.4-1.9,2.4-1.9c0.2,0,0.3,0,0.4,0.1v1.5
		c-0.2,0-0.3-0.1-0.5-0.1c-1.1,0-1.9,0.8-2.1,2c0,0.2-0.1,0.5-0.1,0.7v4.6h-1.6V281.5z"/>
	<path class="st1" d="M225.1,276.3v2.5h2.3v1.2h-2.3v4.7c0,1.1,0.3,1.7,1.2,1.7c0.4,0,0.7-0.1,0.9-0.1l0.1,1.2
		c-0.3,0.1-0.8,0.2-1.4,0.2c-0.7,0-1.3-0.2-1.7-0.7c-0.5-0.5-0.6-1.2-0.6-2.3V280h-1.4v-1.2h1.4v-2.1L225.1,276.3z"/>
	<path class="st1" d="M229.2,281.2c0-0.9,0-1.6-0.1-2.4h1.4l0.1,1.4h0c0.4-0.8,1.4-1.6,2.9-1.6c1.2,0,3.1,0.7,3.1,3.7v5.2H235v-5
		c0-1.4-0.5-2.6-2-2.6c-1,0-1.9,0.7-2.1,1.6c-0.1,0.2-0.1,0.5-0.1,0.7v5.2h-1.6V281.2z"/>
	<path class="st1" d="M240.1,283.4c0,2.1,1.4,3,3,3c1.1,0,1.8-0.2,2.4-0.5l0.3,1.1c-0.6,0.3-1.5,0.5-2.9,0.5c-2.7,0-4.3-1.8-4.3-4.4
		c0-2.6,1.5-4.7,4.1-4.7c2.8,0,3.6,2.5,3.6,4.1c0,0.3,0,0.6-0.1,0.7H240.1z M244.7,282.3c0-1-0.4-2.6-2.2-2.6
		c-1.6,0-2.3,1.5-2.4,2.6H244.7z"/>
	<path class="st1" d="M248.2,281.5c0-1,0-1.9-0.1-2.7h1.4l0.1,1.7h0.1c0.4-1.2,1.4-1.9,2.4-1.9c0.2,0,0.3,0,0.4,0.1v1.5
		c-0.2,0-0.3-0.1-0.5-0.1c-1.1,0-1.9,0.8-2.1,2c0,0.2-0.1,0.5-0.1,0.7v4.6h-1.6V281.5z"/>
</g>
<line class="st2" x1="99" y1="166.9" x2="99" y2="293"/>
<g>
	<g>
		<g>
			<path class="st3" d="M147.1,36.7c1.7,0,3.2,1.4,3.2,3.2v9.3c0,1.7-1.4,3.2-3.2,3.2h-9.3c-1.7,0-3.2-1.4-3.2-3.2v-9.3
				c0-1.7,1.4-3.2,3.2-3.2L147.1,36.7 M147.1,32.6h-9.3c-4.1,0-7.5,3.2-7.5,7.5v9.3c0,4.1,3.5,7.5,7.5,7.5h9.3
				c4.1,0,7.5-3.2,7.5-7.5v-9.3C154.6,35.8,151.4,32.6,147.1,32.6L147.1,32.6z"/>
		</g>
		<g>
			<path class="st3" d="M205,36.7c1.7,0,3.2,1.4,3.2,3.2v9.3c0,1.7-1.4,3.2-3.2,3.2h-9.3c-1.7,0-3.2-1.4-3.2-3.2v-9.3
				c0-1.7,1.4-3.2,3.2-3.2L205,36.7 M205,32.6h-9.3c-4.1,0-7.5,3.2-7.5,7.5v9.3c0,4.1,3.2,7.5,7.5,7.5h9.3c4.1,0,7.5-3.2,7.5-7.5
				v-9.3C212.5,35.8,209.1,32.6,205,32.6L205,32.6z"/>
		</g>
		<g>
			<path class="st3" d="M147.1,86.2c1.7,0,3.2,1.4,3.2,3.2v9.3c0,1.7-1.4,3.2-3.2,3.2h-9.3c-1.7,0-3.2-1.4-3.2-3.2v-9.3
				c0-1.7,1.4-3.2,3.2-3.2H147.1 M147.1,81.8h-9.3c-4.1,0-7.5,3.2-7.5,7.5v9.3c0,4.1,3.5,7.5,7.5,7.5h9.3c4.1,0,7.5-3.5,7.5-7.5
				v-9.3C154.6,85.3,151.4,81.8,147.1,81.8L147.1,81.8z"/>
		</g>
		<g>
			<path class="st3" d="M205,86.2c1.7,0,3.2,1.4,3.2,3.2v9.3c0,1.7-1.4,3.2-3.2,3.2h-9.3c-1.7,0-3.2-1.4-3.2-3.2v-9.3
				c0-1.7,1.4-3.2,3.2-3.2H205 M205,81.8h-9.3c-4.1,0-7.5,3.2-7.5,7.5v9.3c0,4.1,3.2,7.5,7.5,7.5h9.3c4.1,0,7.5-3.5,7.5-7.5v-9.3
				C212.5,85.3,209.1,81.8,205,81.8L205,81.8z"/>
		</g>
		<path class="st3" d="M188.2,48.8v0.3c0,4.1,3.2,7.5,7.5,7.5h0.3v25.2h-0.3c-4.1,0-7.5,3.2-7.5,7.5v0.3h-33.6v-0.3
			c0-4.1-3.2-7.5-7.5-7.5h-0.3V56.6h0.3c4.1,0,7.5-3.2,7.5-7.5v-0.3L188.2,48.8 M192.6,44.5h-42.3v4.6c0,1.7-1.4,3.2-3.2,3.2h-4.6
			v33.6h4.6c1.7,0,3.2,1.4,3.2,3.2V94h42v-4.6c0-1.7,1.4-3.2,3.2-3.2h4.6V52.3h-4.6c-1.7,0-3.2-1.4-3.2-3.2v-4.6H192.6z"/>
		<path class="st4" d="M182.1,17l-8.4-8.4l0,0c0,0,0,0-0.3-0.3l0,0l0,0l0,0l0,0l0,0l0,0l0,0c0,0,0,0-0.3,0l0,0c0,0,0,0-0.3,0l0,0
			c0,0,0,0-0.3,0h-0.3l0,0l0,0H172c0,0,0,0-0.3,0l0,0c0,0,0,0-0.3,0l0,0c0,0,0,0-0.3,0l0,0l0,0l0,0l0,0l0,0l0,0l0,0c0,0,0,0-0.3,0.3
			l0,0l-8.4,8.4c-1.2,1.2-1.2,3.2,0,4.6c0.6,0.6,1.4,0.9,2.3,0.9c0.9,0,1.7-0.3,2.3-0.9l2.9-2.9V39c0,1.7,1.4,3.2,3.2,3.2
			s3.2-1.4,3.2-3.2V18.4l2.9,2.9c0.6,0.6,1.4,0.9,2.3,0.9c0.9,0,1.7-0.3,2.3-0.9C183.6,20.4,183.6,18.4,182.1,17z"/>
		<path class="st4" d="M227.9,79.8l8.4-8.4l0,0c0,0,0,0,0.3-0.3l0,0l0,0l0,0l0,0l0,0l0,0l0,0c0,0,0,0,0-0.3l0,0c0,0,0,0,0-0.3l0,0
			c0,0,0,0,0-0.3V70l0,0l0,0v-0.3c0,0,0,0,0-0.3l0,0c0,0,0,0,0-0.3l0,0c0,0,0,0,0-0.3l0,0l0,0l0,0l0,0l0,0l0,0l0,0c0,0,0,0-0.3-0.3
			l0,0l-8.4-10.1c-1.2-1.2-3.2-1.2-4.3,0c-0.6,0.6-0.9,1.4-0.9,2.3c0,0.9,0.3,1.7,0.9,2.3l2.9,2.9h-20.6c-1.7,0-3.2,1.4-3.2,3.2
			s1.4,3.2,3.2,3.2h20.6l-2.9,2.9c-0.6,0.6-0.9,1.4-0.9,2.3c0,0.9,0.3,1.7,0.9,2.3C224.4,81.3,226.5,81.3,227.9,79.8z"/>
	</g>
	<g>
		<path class="st5" d="M147.1,36.7c1.7,0,3.2,1.4,3.2,3.2v9.3c0,1.7-1.4,3.2-3.2,3.2h-9.3c-1.7,0-3.2-1.4-3.2-3.2v-9.3
			c0-1.7,1.4-3.2,3.2-3.2L147.1,36.7"/>
	</g>
	<g>
		<path class="st5" d="M205,36.7c1.7,0,3.2,1.4,3.2,3.2v9.3c0,1.7-1.4,3.2-3.2,3.2h-9.3c-1.7,0-3.2-1.4-3.2-3.2v-9.3
			c0-1.7,1.4-3.2,3.2-3.2L205,36.7"/>
	</g>
	<g>
		<path class="st5" d="M147.1,86.2c1.7,0,3.2,1.4,3.2,3.2v9.3c0,1.7-1.4,3.2-3.2,3.2h-9.3c-1.7,0-3.2-1.4-3.2-3.2v-9.3
			c0-1.7,1.4-3.2,3.2-3.2H147.1"/>
	</g>
	<g>
		<path class="st5" d="M205,86.2c1.7,0,3.2,1.4,3.2,3.2v9.3c0,1.7-1.4,3.2-3.2,3.2h-9.3c-1.7,0-3.2-1.4-3.2-3.2v-9.3
			c0-1.7,1.4-3.2,3.2-3.2H205"/>
	</g>
	<g>
		<g>
			<g>
				<path class="st6" d="M147.1,36.7c1.7,0,3.2,1.4,3.2,3.2v9.3c0,1.7-1.4,3.2-3.2,3.2h-9.3c-1.7,0-3.2-1.4-3.2-3.2v-9.3
					c0-1.7,1.4-3.2,3.2-3.2L147.1,36.7 M147.1,32.6h-9.3c-4.1,0-7.5,3.2-7.5,7.5v9.3c0,4.1,3.5,7.5,7.5,7.5h9.3
					c4.1,0,7.5-3.2,7.5-7.5v-9.3C154.6,35.8,151.4,32.6,147.1,32.6L147.1,32.6z"/>
			</g>
			<g>
				<path class="st6" d="M205,36.7c1.7,0,3.2,1.4,3.2,3.2v9.3c0,1.7-1.4,3.2-3.2,3.2h-9.3c-1.7,0-3.2-1.4-3.2-3.2v-9.3
					c0-1.7,1.4-3.2,3.2-3.2L205,36.7 M205,32.6h-9.3c-4.1,0-7.5,3.2-7.5,7.5v9.3c0,4.1,3.2,7.5,7.5,7.5h9.3c4.1,0,7.5-3.2,7.5-7.5
					v-9.3C212.5,35.8,209.1,32.6,205,32.6L205,32.6z"/>
			</g>
			<g>
				<path class="st6" d="M147.1,86.2c1.7,0,3.2,1.4,3.2,3.2v9.3c0,1.7-1.4,3.2-3.2,3.2h-9.3c-1.7,0-3.2-1.4-3.2-3.2v-9.3
					c0-1.7,1.4-3.2,3.2-3.2H147.1 M147.1,81.8h-9.3c-4.1,0-7.5,3.2-7.5,7.5v9.3c0,4.1,3.5,7.5,7.5,7.5h9.3c4.1,0,7.5-3.5,7.5-7.5
					v-9.3C154.6,85.3,151.4,81.8,147.1,81.8L147.1,81.8z"/>
			</g>
			<g>
				<path class="st6" d="M205,86.2c1.7,0,3.2,1.4,3.2,3.2v9.3c0,1.7-1.4,3.2-3.2,3.2h-9.3c-1.7,0-3.2-1.4-3.2-3.2v-9.3
					c0-1.7,1.4-3.2,3.2-3.2H205 M205,81.8h-9.3c-4.1,0-7.5,3.2-7.5,7.5v9.3c0,4.1,3.2,7.5,7.5,7.5h9.3c4.1,0,7.5-3.5,7.5-7.5v-9.3
					C212.5,85.3,209.1,81.8,205,81.8L205,81.8z"/>
			</g>
			<path class="st6" d="M188.2,48.8v0.3c0,4.1,3.2,7.5,7.5,7.5h0.3v25.2h-0.3c-4.1,0-7.5,3.2-7.5,7.5v0.3h-33.6v-0.3
				c0-4.1-3.2-7.5-7.5-7.5h-0.3V56.6h0.3c4.1,0,7.5-3.2,7.5-7.5v-0.3L188.2,48.8 M192.6,44.5h-42.3v4.6c0,1.7-1.4,3.2-3.2,3.2h-4.6
				v33.6h4.6c1.7,0,3.2,1.4,3.2,3.2V94h42v-4.6c0-1.7,1.4-3.2,3.2-3.2h4.6V52.3h-4.6c-1.7,0-3.2-1.4-3.2-3.2v-4.6H192.6z"/>
			<path class="st7" d="M182.1,17l-8.4-8.4l0,0c0,0,0,0-0.3-0.3l0,0l0,0l0,0l0,0l0,0l0,0l0,0c0,0,0,0-0.3,0l0,0c0,0,0,0-0.3,0l0,0
				c0,0,0,0-0.3,0h-0.3l0,0l0,0H172c0,0,0,0-0.3,0l0,0c0,0,0,0-0.3,0l0,0c0,0,0,0-0.3,0l0,0l0,0l0,0l0,0l0,0l0,0l0,0
				c0,0,0,0-0.3,0.3l0,0l-8.4,8.4c-1.2,1.2-1.2,3.2,0,4.6c0.6,0.6,1.4,0.9,2.3,0.9c0.9,0,1.7-0.3,2.3-0.9l2.9-2.9V39
				c0,1.7,1.4,3.2,3.2,3.2s3.2-1.4,3.2-3.2V18.4l2.9,2.9c0.6,0.6,1.4,0.9,2.3,0.9c0.9,0,1.7-0.3,2.3-0.9
				C183.6,20.4,183.6,18.4,182.1,17z"/>
			<path class="st7" d="M227.9,79.8l8.4-8.4l0,0c0,0,0,0,0.3-0.3l0,0l0,0l0,0l0,0l0,0l0,0l0,0c0,0,0,0,0-0.3l0,0c0,0,0,0,0-0.3l0,0
				c0,0,0,0,0-0.3V70l0,0l0,0v-0.3c0,0,0,0,0-0.3l0,0c0,0,0,0,0-0.3l0,0c0,0,0,0,0-0.3l0,0l0,0l0,0l0,0l0,0l0,0l0,0c0,0,0,0-0.3-0.3
				l0,0l-8.4-10.1c-1.2-1.2-3.2-1.2-4.3,0c-0.6,0.6-0.9,1.4-0.9,2.3c0,0.9,0.3,1.7,0.9,2.3l2.9,2.9h-20.6c-1.7,0-3.2,1.4-3.2,3.2
				s1.4,3.2,3.2,3.2h20.6l-2.9,2.9c-0.6,0.6-0.9,1.4-0.9,2.3c0,0.9,0.3,1.7,0.9,2.3C224.4,81.3,226.5,81.3,227.9,79.8z"/>
		</g>
		<g>
			<path class="st7" d="M147.1,36.7c1.7,0,3.2,1.4,3.2,3.2v9.3c0,1.7-1.4,3.2-3.2,3.2h-9.3c-1.7,0-3.2-1.4-3.2-3.2v-9.3
				c0-1.7,1.4-3.2,3.2-3.2L147.1,36.7"/>
		</g>
		<g>
			<path class="st7" d="M205,36.7c1.7,0,3.2,1.4,3.2,3.2v9.3c0,1.7-1.4,3.2-3.2,3.2h-9.3c-1.7,0-3.2-1.4-3.2-3.2v-9.3
				c0-1.7,1.4-3.2,3.2-3.2L205,36.7"/>
		</g>
		<g>
			<path class="st7" d="M147.1,86.2c1.7,0,3.2,1.4,3.2,3.2v9.3c0,1.7-1.4,3.2-3.2,3.2h-9.3c-1.7,0-3.2-1.4-3.2-3.2v-9.3
				c0-1.7,1.4-3.2,3.2-3.2H147.1"/>
		</g>
		<g>
			<path class="st7" d="M205,86.2c1.7,0,3.2,1.4,3.2,3.2v9.3c0,1.7-1.4,3.2-3.2,3.2h-9.3c-1.7,0-3.2-1.4-3.2-3.2v-9.3
				c0-1.7,1.4-3.2,3.2-3.2H205"/>
		</g>
	</g>
</g>
</svg>
