<?xml version="1.0" standalone="no"?>
<!DOCTYPE svg PUBLIC "-//W3C//DTD SVG 20010904//EN"
 "http://www.w3.org/TR/2001/REC-SVG-20010904/DTD/svg10.dtd">
<svg version="1.0" xmlns="http://www.w3.org/2000/svg"
 width="672.000000pt" height="672.000000pt" viewBox="0 0 672.000000 672.000000"
 preserveAspectRatio="xMidYMid meet">
<metadata>
Created by potrace 1.11, written by Peter Selinger 2001-2013
</metadata>
<g transform="translate(0.000000,672.000000) scale(0.100000,-0.100000)"
fill="#000000" stroke="none">
<path d="M3187 6554 c-1 -1 -49 -5 -107 -8 -102 -6 -131 -9 -216 -21 -59 -8
-99 -16 -164 -29 -14 -3 -38 -8 -55 -11 -100 -20 -218 -52 -345 -96 -80 -27
-149 -50 -155 -52 -5 -2 -32 -13 -59 -25 -27 -12 -51 -22 -53 -22 -9 0 -288
-141 -328 -165 -22 -14 -96 -53 -165 -86 -244 -121 -381 -223 -515 -384 -28
-33 -53 -61 -57 -63 -5 -2 -8 -9 -8 -16 0 -7 -9 -21 -20 -31 -11 -10 -20 -23
-20 -30 0 -7 -9 -20 -20 -30 -11 -10 -18 -20 -15 -23 4 -4 -40 -68 -61 -87
-18 -16 -135 -174 -178 -240 -121 -184 -234 -396 -309 -580 -34 -85 -113 -315
-121 -353 -1 -9 -6 -24 -9 -32 -5 -15 -45 -191 -53 -240 -2 -14 -6 -34 -9 -45
-2 -11 -7 -42 -11 -70 -3 -27 -8 -61 -10 -75 -20 -149 -26 -521 -11 -670 4
-41 9 -95 11 -120 2 -25 5 -45 6 -45 1 0 3 -9 4 -20 4 -30 17 -115 21 -133 23
-114 37 -173 46 -202 5 -19 12 -46 15 -60 3 -14 12 -47 21 -75 10 -27 18 -52
18 -55 4 -26 61 -174 120 -315 22 -53 105 -217 116 -231 5 -6 6 -14 2 -17 -3
-4 -1 -7 5 -7 7 0 12 -4 12 -10 0 -5 27 -54 61 -107 33 -54 66 -107 72 -118 7
-11 15 -22 18 -25 3 -3 21 -27 39 -55 19 -27 40 -56 46 -65 7 -8 34 -42 61
-75 69 -86 73 -91 123 -145 25 -27 52 -57 61 -67 30 -34 174 -169 239 -223 36
-30 67 -57 70 -60 3 -3 32 -25 65 -50 33 -25 62 -47 65 -51 8 -9 178 -118 260
-167 105 -62 359 -185 460 -223 132 -49 305 -103 360 -114 8 -2 33 -8 55 -13
22 -6 51 -13 65 -16 108 -23 136 -28 236 -42 22 -3 53 -7 69 -9 170 -25 648
-24 767 1 13 3 37 6 53 8 59 8 171 27 205 36 19 5 46 11 60 14 119 21 384 105
530 168 88 38 245 112 270 128 63 40 72 40 135 2 152 -90 334 -147 540 -169
132 -14 236 -8 281 15 95 48 142 129 139 237 -2 59 -7 78 -33 121 -45 73 -134
125 -207 122 -48 -2 -192 18 -275 37 -8 2 -19 4 -23 4 -5 1 13 20 39 42 170
147 409 408 490 534 10 17 23 35 29 42 5 7 16 19 23 27 6 8 12 17 12 20 0 3
24 43 54 88 74 114 143 243 224 418 30 65 111 280 117 313 2 9 7 22 10 27 3 5
8 18 10 27 2 10 13 53 25 96 12 43 24 90 26 105 3 15 9 43 14 62 10 39 19 87
26 139 2 19 6 47 9 63 18 103 26 187 31 320 3 62 5 118 5 123 1 19 -11 280
-15 320 -6 62 -18 158 -22 180 -3 11 -7 38 -10 60 -11 79 -49 243 -80 346 -8
25 -16 54 -19 65 -7 34 -75 222 -104 289 -144 328 -299 581 -512 834 -30 36
-87 109 -126 161 -143 191 -294 318 -508 427 -49 25 -133 71 -185 102 -52 32
-110 64 -127 72 -18 7 -33 17 -33 21 0 5 -5 8 -10 8 -6 0 -43 15 -83 34 -201
94 -363 154 -567 207 -68 18 -205 48 -245 53 -23 4 -50 8 -62 10 -119 23 -298
37 -498 40 -69 1 -127 1 -128 0z"/>
</g>
</svg>
